<svg xmlns="http://www.w3.org/2000/svg" viewBox="0 0 873.1 579.09"><defs><style>.cls-1{fill:#a0afb5;}.cls-2,.cls-4{fill:#fff;}.cls-3{font-size:19.17px;}.cls-3,.cls-4{font-family:Lato-Regular, Lato;}.cls-4{font-size:25.07px;}.cls-10,.cls-5{fill:#0071bc;}.cls-6,.cls-7{fill:#961d22;}.cls-10,.cls-11,.cls-7{font-size:30px;font-family:Lato-Bold, Lato;font-weight:700;}.cls-8{letter-spacing:-0.07em;}.cls-9{font-size:66.37px;}.cls-11{stroke:#fff;stroke-miterlimit:10;}</style></defs><title>digtial-audience-final</title><g id="work_2" data-name="work 2"><circle class="cls-1" cx="156.37" cy="419.73" r="156.37"/><circle class="cls-2" cx="156.37" cy="448.97" r="127.13"/><text class="cls-3" transform="translate(134.13 449.16)">2015</text><text class="cls-4" transform="translate(127.29 304.28)">2016</text><path class="cls-5" d="M592.88,463.86a161.46,161.46,0,0,1-322.92,0c0-89.17,71.29-161.46,160.46-161.46S592.88,374.69,592.88,463.86Z" transform="translate(-7.9 -47.91)"/><path class="cls-2" d="M558.56,498.18a127.13,127.13,0,0,1-254.26,0c0-70.21,55.92-127.13,126.13-127.13S558.56,428,558.56,498.18Z" transform="translate(-7.9 -47.91)"/><text class="cls-3" transform="translate(401.29 449.46)">2015</text><text class="cls-4" transform="translate(393.44 301.43)">2016</text><circle class="cls-6" cx="693.85" cy="399.84" r="179.26"/><circle class="cls-2" cx="693.85" cy="451.96" r="127.13"/><text class="cls-3" transform="translate(671.61 450.15)">2015</text><text class="cls-4" transform="translate(664.76 287.31)">2016</text></g><g id="white_type" data-name="white type"><text class="cls-7" transform="translate(636.19 82.62)">DIGI<tspan class="cls-8" x="62.95" y="0">T</tspan><tspan x="78.6" y="0">AL</tspan><tspan class="cls-9"><tspan x="-7.44" y="70.06">41%</tspan></tspan></text><text class="cls-10" transform="translate(373.03 110.64)">RADIO<tspan class="cls-9"><tspan x="-16.75" y="70.06">27%</tspan></tspan></text><text class="cls-11" transform="translate(136.4 118.76)">TV<tspan class="cls-9"><tspan x="-45.57" y="70.06">23%</tspan></tspan></text><path d="M164.52,82.91l10.84,10.84h-8.67v32.52h-4.34V93.75h-8.67Z" transform="translate(-7.9 -47.91)"/><path class="cls-5" d="M427.52,66.91l10.84,10.84h-8.67v32.52h-4.34V77.75h-8.67Z" transform="translate(-7.9 -47.91)"/><path class="cls-6" d="M697.52,47.91l10.84,10.84h-8.67V91.27h-4.34V58.75h-8.67Z" transform="translate(-7.9 -47.91)"/></g></svg>