<svg xmlns="http://www.w3.org/2000/svg" viewBox="0 0 873.1 594.59"><defs><style>.cls-1{fill:#a0afb5;}.cls-2,.cls-4{fill:#fff;}.cls-10,.cls-11,.cls-3,.cls-7{font-size:36px;}.cls-3,.cls-4{font-family:Lato-Regular, Lato;}.cls-4{font-size:44px;}.cls-10,.cls-5{fill:#0071bc;}.cls-6,.cls-7{fill:#961d22;}.cls-10,.cls-11,.cls-7{font-family:Lato-Bold, Lato;font-weight:700;}.cls-8{letter-spacing:-0.07em;}.cls-9{font-size:90px;}.cls-11{stroke:#fff;stroke-miterlimit:10;}</style></defs><title>digtial audience-small</title><g id="work_2" data-name="work 2"><circle class="cls-1" cx="156.37" cy="435.23" r="156.37"/><circle class="cls-2" cx="156.37" cy="464.47" r="127.13"/><text class="cls-3" transform="translate(114.61 464.66)">2015</text><text class="cls-4" transform="translate(105.33 325.77)">2016</text><path class="cls-5" d="M592.88,463.86a161.46,161.46,0,0,1-322.92,0c0-89.17,71.29-161.46,160.46-161.46S592.88,374.69,592.88,463.86Z" transform="translate(-7.9 -32.41)"/><path class="cls-2" d="M558.56,498.18a127.13,127.13,0,0,1-254.26,0c0-70.21,55.92-127.13,126.13-127.13S558.56,428,558.56,498.18Z" transform="translate(-7.9 -32.41)"/><text class="cls-3" transform="translate(381.77 464.96)">2015</text><text class="cls-4" transform="translate(371.49 326.93)">2016</text><circle class="cls-6" cx="693.85" cy="415.33" r="179.26"/><circle class="cls-2" cx="693.85" cy="467.46" r="127.13"/><text class="cls-3" transform="translate(652.09 465.64)">2015</text><text class="cls-4" transform="translate(642.81 308.81)">2016</text></g><g id="white_type" data-name="white type"><text class="cls-7" transform="translate(624.64 98.12)">DIGI<tspan class="cls-8" x="75.54" y="0">T</tspan><tspan x="94.32" y="0">AL</tspan><tspan class="cls-9"><tspan x="-19.09" y="100">41%</tspan></tspan></text><text class="cls-10" transform="translate(363.35 126.14)">RADIO<tspan class="cls-9"><tspan x="-30.27" y="100">27%</tspan></tspan></text><text class="cls-11" transform="translate(132.49 134.25)">TV<tspan class="cls-9"><tspan x="-64.84" y="100">23%</tspan></tspan></text><path d="M165,66.33l13,13H167.58v38.95h-5.19V79.32H152Z" transform="translate(-7.9 -32.41)"/><path class="cls-5" d="M432,55.17l13,13H434.58V107.1h-5.19V68.15H419Z" transform="translate(-7.9 -32.41)"/><path class="cls-6" d="M700.38,32.41l13,13H703V84.35h-5.19V45.4H687.39Z" transform="translate(-7.9 -32.41)"/></g></svg>