<svg xmlns="http://www.w3.org/2000/svg" viewBox="0 0 881.16 599.35"><defs><style>.cls-1{font-size:21px;font-family:Lato-Regular, Lato;}.cls-2,.cls-3{fill:none;}.cls-3{stroke:#000;stroke-miterlimit:10;stroke-width:0.75px;}.cls-4{font-size:50px;font-family:Lato-Bold, Lato;font-weight:700;}.cls-4,.cls-6{fill:#961d22;}.cls-5{fill:#b3c1c6;}</style></defs><title>final-weekly-audience</title><g id="Layer_1" data-name="Layer 1"><text class="cls-1" transform="translate(25.31 572.12) scale(1.04 1)">0</text><text class="cls-1" transform="translate(12.66 472.28) scale(1.04 1)">50</text><text class="cls-1" transform="translate(0 372.45) scale(1.04 1)">100</text><text class="cls-1" transform="translate(0 272.62) scale(1.04 1)">150</text><text class="cls-1" transform="translate(0 172.78) scale(1.04 1)">200</text><text class="cls-1" transform="translate(0 72.95) scale(1.04 1)">250</text><path class="cls-2" d="M59.76,593.88" transform="translate(-8.82 -35.81)"/><line class="cls-3" x1="50.94" y1="558.07" x2="877.68" y2="558.07"/><line class="cls-3" x1="50.94" y1="458.24" x2="881.16" y2="458.24"/><line class="cls-3" x1="50.94" y1="358.41" x2="881.16" y2="358.41"/><line class="cls-3" x1="50.94" y1="258.57" x2="881.16" y2="258.57"/><line class="cls-3" x1="50.94" y1="158.74" x2="881.16" y2="158.74"/><line class="cls-3" x1="50.94" y1="58.91" x2="881.16" y2="58.91"/><text class="cls-1" transform="translate(760.17 595.52)">FY 2016</text><text class="cls-1" transform="translate(592.83 595.52)">FY 2015</text><text class="cls-1" transform="translate(438.67 595.52)">FY 2014</text><text class="cls-1" transform="translate(272.5 595.52)">FY 2013</text><text class="cls-1" transform="translate(111.33 595.52)">FY 2012</text><text class="cls-4" transform="translate(444.5 45.12)">278 Million</text></g><g id="Layer_3" data-name="Layer 3"><polygon class="cls-5" points="89.76 208.66 217.6 205.66 217.6 558.07 89.76 558.07 89.76 208.66"/><rect class="cls-5" x="249.56" y="143.76" width="127.84" height="414.31"/><rect class="cls-5" x="409.36" y="125.79" width="127.84" height="432.28"/><rect class="cls-5" x="569.16" y="103.83" width="127.84" height="454.25"/><rect class="cls-6" x="728.76" width="127.84" height="558.07"/></g></svg>