<svg xmlns="http://www.w3.org/2000/svg" viewBox="0 0 519.77 485.28"><defs><style>.cls-1,.cls-10{fill:#538ebd;}.cls-2,.cls-8,.cls-9{fill:#4d4d4f;}.cls-3{fill:#a7a9ac;}.cls-4{fill:#808285;}.cls-5{fill:#92aecf;}.cls-6{fill:#d1d3d4;}.cls-11,.cls-17,.cls-7{fill:#fff;}.cls-8,.cls-9{font-size:13.6px;}.cls-8{font-family:Lato-Bold, Lato;font-weight:700;}.cls-12,.cls-9{font-family:Lato-Regular, Lato;}.cls-10{font-size:46.81px;}.cls-10,.cls-11,.cls-17{font-family:Lato-Black, Lato;}.cls-11,.cls-17{font-size:9px;}.cls-13{letter-spacing:-0.02em;}.cls-14{letter-spacing:-0.01em;}.cls-15{letter-spacing:0em;}.cls-16{letter-spacing:-0.01em;}.cls-17{letter-spacing:-0.01em;}.cls-18{letter-spacing:-0.04em;}.cls-19{letter-spacing:-0.01em;}.cls-20{letter-spacing:-0.03em;}.cls-21{letter-spacing:-0.02em;}.cls-22{letter-spacing:-0.02em;}.cls-23{letter-spacing:-0.01em;}.cls-24{letter-spacing:0em;}.cls-25{letter-spacing:-0.06em;}.cls-26{letter-spacing:-0.04em;}.cls-27{letter-spacing:-0.07em;}.cls-28{letter-spacing:-0.03em;}</style></defs><title>OneTeam_elec-large</title><g id="Layer_1_copy" data-name="Layer 1 copy"><path class="cls-1" d="M270.59,260.36l206.94-67.24a242.8,242.8,0,0,0-270.42-58V315.29a103.65,103.65,0,0,1,63.48-54.93Z" transform="translate(-57.89 -116.43)"/><path class="cls-2" d="M57.89,359.06c0,6.46.27,13.06.8,19.66l171.42,55.7a103.21,103.21,0,0,1-32.71-75.35V139.38A242.6,242.6,0,0,0,57.89,359.06Z" transform="translate(-57.89 -116.43)"/><path class="cls-3" d="M484.62,201,313.18,256.72A103.61,103.61,0,0,1,384,298.45l.71,1L513.08,476.16A242.7,242.7,0,0,0,484.62,201Z" transform="translate(-57.89 -116.43)"/><path class="cls-4" d="M244.47,595.18l106-146a103,103,0,0,1-83.8,7.29L59.77,389.27A241.57,241.57,0,0,0,244.47,595.18Z" transform="translate(-57.89 -116.43)"/><path class="cls-5" d="M300.53,601.7c84.22,0,163.32-44.51,207.22-116.37L401.82,339.53a103.9,103.9,0,0,1,1.84,19.54,102.35,102.35,0,0,1-19.72,60.65L254.85,597.39A244.36,244.36,0,0,0,300.53,601.7Z" transform="translate(-57.89 -116.43)"/><circle class="cls-6" cx="242.91" cy="243.5" r="80.77"/><circle class="cls-7" cx="243.16" cy="244.41" r="59.45"/><text x="-57.89" y="-116.43"></text></g><g id="CEO_and_IBB_text" data-name="CEO and IBB text"><text class="cls-8" transform="translate(184.83 271.66) rotate(-113.14) scale(1.02 1)">I</text><text class="cls-8" transform="matrix(-0.3, -0.97, 0.95, -0.3, 183.03, 267.76)">B</text><text class="cls-8" transform="matrix(-0.17, -1, 0.99, -0.17, 180.36, 259.27)">B</text><text class="cls-8" transform="translate(178.92 250.48) rotate(-93.79) scale(1.02 1)">/</text><text class="cls-8" transform="matrix(0.04, -1.01, 1, 0.04, 178.5, 245.17)">T</text><text class="cls-8" transform="matrix(0.15, -1, 0.99, 0.15, 178.8, 237.05)">S</text><text class="cls-8" transform="matrix(0.24, -0.99, 0.97, 0.24, 179.98, 229.77)">I</text><text class="cls-9" transform="translate(181.05 225.49) rotate(-73.14) scale(1.02 1)"> </text><text class="cls-9" transform="matrix(0.33, -0.96, 0.94, 0.33, 181.84, 222.87)"> </text><text class="cls-9" transform="translate(182.57 220.31) rotate(-65.4) scale(1.02 1)">C</text><text class="cls-9" transform="matrix(0.54, -0.86, 0.85, 0.53, 186.51, 211.83)">o</text><text class="cls-9" transform="translate(190.6 205.4) rotate(-52.07) scale(1.02 1)">r</text><text class="cls-9" transform="matrix(0.7, -0.73, 0.72, 0.69, 193.95, 201.02)">p</text><text class="cls-9" transform="matrix(0.78, -0.65, 0.64, 0.77, 199.17, 195.55)">o</text><text class="cls-9" transform="matrix(0.84, -0.57, 0.56, 0.83, 205.08, 190.71)">r</text><text class="cls-9" transform="matrix(0.89, -0.49, 0.48, 0.88, 209.42, 187.73)">a</text><text class="cls-9" transform="matrix(0.93, -0.4, 0.39, 0.92, 215.57, 184.43)">t</text><text class="cls-9" transform="translate(220.25 182.37) rotate(-17.75) scale(1.02 1)">e</text><text class="cls-9" transform="translate(227.19 180.24) rotate(-13.38) scale(1.02 1)"> </text><text class="cls-9" transform="matrix(1, -0.16, 0.15, 0.99, 229.74, 179.53)">F</text><text class="cls-9" transform="translate(236.98 178.39) rotate(-2.52) scale(1.02 1)">u</text><text class="cls-9" transform="matrix(1.01, 0.07, -0.07, 1, 244.59, 178.05)">n</text><text class="cls-9" transform="translate(252.17 178.61) rotate(10.04) scale(1.02 1)">c</text><text class="cls-9" transform="matrix(0.98, 0.26, -0.26, 0.97, 258.51, 179.76)">t</text><text class="cls-9" transform="translate(263.53 181.14) rotate(18.77) scale(1.02 1)">i</text><text class="cls-9" transform="translate(266.9 182.19) rotate(23.56) scale(1.02 1)">o</text><text class="cls-9" transform="translate(273.87 185.23) rotate(30.08) scale(1.02 1)">n</text><text class="cls-9" transform="matrix(0.82, 0.59, -0.59, 0.81, 280.44, 189.08)">s</text><text class="cls-9" transform="translate(285.3 192.66) rotate(39.59) scale(1.02 1)"> </text><text class="cls-9" transform="matrix(0.72, 0.72, -0.7, 0.71, 287.44, 194.23)">&amp;</text><text class="cls-9" transform="matrix(0.65, 0.78, -0.76, 0.64, 294.19, 201.14)"> </text><text class="cls-9" transform="matrix(0.58, 0.84, -0.82, 0.57, 296.05, 203.06)">D</text><text class="cls-9" transform="translate(301.78 211.67) rotate(61.26) scale(1.02 1)">i</text><text class="cls-9" transform="translate(303.53 214.76) rotate(65.35) scale(1.02 1)">s</text><text class="cls-9" transform="translate(306.01 220.21) rotate(70.12) scale(1.02 1)">t</text><text class="cls-9" transform="translate(307.78 225.07) rotate(74.73) scale(1.02 1)">r</text><text class="cls-9" transform="translate(309.21 230.46) rotate(78.64) scale(1.02 1)">i</text><text class="cls-9" transform="matrix(0.12, 1.01, -0.99, 0.11, 309.99, 233.89)">b</text><text class="cls-9" transform="translate(310.87 241.5) rotate(89.99) scale(1.02 1)">u</text><text class="cls-9" transform="translate(310.81 249.14) rotate(95.47) scale(1.02 1)">t</text><text class="cls-9" transform="translate(310.29 254.29) rotate(99.25) scale(1.02 1)">i</text><text class="cls-9" transform="matrix(-0.25, 0.98, -0.97, -0.24, 309.81, 257.8)">o</text><text class="cls-9" transform="matrix(-0.36, 0.95, -0.94, -0.35, 307.97, 265.15)">n</text><text class="cls-10" transform="translate(195.36 259.48)">CEO</text></g><g id="network_text" data-name="network text"><text class="cls-11" transform="translate(59.84 322.77)">Office of Cuba <tspan x="0" y="10.5">Broadcasting </tspan><tspan x="0" y="21">(Radio and TV Martí)</tspan><tspan class="cls-12"><tspan x="0" y="31.5">Promotes freedom and </tspan><tspan x="0" y="42">democ</tspan><tspan class="cls-13" x="26.34" y="42">r</tspan><tspan x="29.8" y="42">acy </tspan><tspan class="cls-14" x="44.91" y="42">b</tspan><tspan class="cls-15" x="49.82" y="42">y pr</tspan><tspan class="cls-16" x="64.76" y="42">o</tspan><tspan x="69.65" y="42">viding the </tspan><tspan x="0" y="52.5">people of Cuba with objecti</tspan><tspan class="cls-14" x="106.88" y="52.5">v</tspan><tspan x="111.37" y="52.5">e </tspan><tspan x="0" y="63">news and information </tspan><tspan x="0" y="73.5">prog</tspan><tspan class="cls-13" x="18.2" y="73.5">r</tspan><tspan x="21.65" y="73.5">amming.</tspan></tspan></text><text class="cls-17" transform="translate(293.56 359.9)">Radio <tspan class="cls-18" x="25.15" y="0">F</tspan><tspan class="cls-19" x="29.82" y="0">ree Europe/Radio Liberty</tspan><tspan class="cls-12"><tspan x="0" y="10.5">Promotes democ</tspan><tspan class="cls-20" x="65.57" y="10.5">r</tspan><tspan x="68.96" y="10.5">atic values and </tspan><tspan x="0" y="21">institutions </tspan><tspan class="cls-21" x="45.61" y="21">b</tspan><tspan class="cls-19" x="50.45" y="21">y reporting the news in </tspan><tspan x="0" y="31.5">countries where a free press is </tspan><tspan x="0" y="42">banned </tspan><tspan class="cls-22" x="30.58" y="42">b</tspan><tspan x="35.42" y="42">y the g</tspan><tspan class="cls-22" x="60.68" y="42">ov</tspan><tspan x="69.91" y="42">ernment or </tspan><tspan x="0" y="52.5">not fully established.</tspan></tspan></text><text class="cls-11" transform="translate(33.71 134.3)">Middle East <tspan x="0" y="10.5">Broadcasting Networks </tspan><tspan x="0" y="21">(Alhur</tspan><tspan class="cls-23" x="26.05" y="21">r</tspan><tspan x="29.68" y="21">a TV and </tspan><tspan x="0" y="31.5">Radio S</tspan><tspan class="cls-23" x="30.46" y="31.5">a</tspan><tspan x="35.22" y="31.5">wa)</tspan><tspan class="cls-12"><tspan x="0" y="42">Pr</tspan><tspan class="cls-14" x="9.13" y="42">o</tspan><tspan x="14.01" y="42">vides objecti</tspan><tspan class="cls-16" x="63.22" y="42">v</tspan><tspan x="67.71" y="42">e, </tspan><tspan x="0" y="52.5">accu</tspan><tspan class="cls-13" x="17.97" y="52.5">r</tspan><tspan x="21.43" y="52.5">ate, and rel</tspan><tspan class="cls-16" x="64.69" y="52.5">e</tspan><tspan class="cls-24" x="69.29" y="52.5">vant </tspan><tspan x="0" y="63">news and information </tspan><tspan x="0" y="73.5">to the people of the </tspan><tspan x="0" y="84">Middle East about the </tspan><tspan x="0" y="94.5">region, the world, </tspan><tspan x="0" y="105">and the United States.</tspan></tspan></text><text class="cls-11" transform="translate(184.02 27.81)"><tspan class="cls-25">V</tspan><tspan x="6.05" y="0">oice of America</tspan><tspan class="cls-12"><tspan x="0" y="10.5">Pr</tspan><tspan class="cls-14" x="9.13" y="10.5">o</tspan><tspan x="14.01" y="10.5">vides a consistently reliable and </tspan><tspan x="0" y="21">authoritati</tspan><tspan class="cls-14" x="42.44" y="21">v</tspan><tspan x="46.94" y="21">e source of news, tells </tspan><tspan x="0" y="31.5">Americ</tspan><tspan class="cls-26" x="28.36" y="31.5">a</tspan><tspan x="32.6" y="31.5">’s stor</tspan><tspan class="cls-27" x="56.04" y="31.5">y</tspan><tspan x="60.06" y="31.5">, and presents a </tspan><tspan x="0" y="42">balanced and comprehensi</tspan><tspan class="cls-14" x="104.33" y="42">v</tspan><tspan x="108.82" y="42">e projection </tspan><tspan x="0" y="52.5">of significant American thought and </tspan><tspan x="0" y="63">institutions.</tspan></tspan></text><text class="cls-11" transform="translate(358.67 169.92)">Radio <tspan class="cls-28" x="25.58" y="0">F</tspan><tspan x="30.32" y="0">ree Asia</tspan><tspan class="cls-12"><tspan x="0" y="10.5">Pr</tspan><tspan class="cls-14" x="9.13" y="10.5">o</tspan><tspan x="14.01" y="10.5">vides reliable, unbiased </tspan><tspan x="0" y="21">news and information to</tspan><tspan x="0" y="31.5" xml:space="preserve"> six Asian countries that </tspan><tspan x="0" y="42">restrict free speech and </tspan><tspan x="0" y="52.5">prohibit access to a free press.</tspan></tspan></text></g><g id="network_logos" data-name="network logos"><path class="cls-7" d="M166.06,382.49a4.6,4.6,0,0,0,3.31-4.7c0-3.51-2.84-5.18-6.64-5.18H150.45l-4.27,12.78-4.27-12.78h-8.43V393H139V379.42L143.5,393h5.35l4.52-13.62V393h9c3.66,0,8-1,8-5.91C170.29,384.68,168.71,383.07,166.06,382.49Zm-5.28,6.69h-2v-12.7h1.56c1.81,0,3.57.18,3.57,2s-1.84,2.17-3.63,2.17h-.38v3.69h.91c1.87,0,4,.2,4,2.43S162.77,389.18,160.78,389.18Z" transform="translate(-57.89 -116.43)"/><polygon class="cls-7" points="126.59 256.19 126.59 269.82 119.84 256.19 112.78 256.19 112.78 276.61 118.22 276.61 118.22 263.98 124.46 276.61 132 276.61 132 256.19 126.59 256.19"/><path class="cls-7" d="M273.46,250.2l-8.85-24.38h-9.16l-1.54,4.44a12.53,12.53,0,0,1-6.91,19.9v0h9.28s3.93-14.71,3.95-14.76h0l4,14.76Z" transform="translate(-57.89 -116.43)"/><path class="cls-7" d="M241,225.84h-8.89l-4,14.76h0s-3.95-14.76-3.95-14.76h-9.28l8.46,24.38h9.16l1.66-4.57a12.53,12.53,0,0,1,6.8-19.81Z" transform="translate(-57.89 -116.43)"/><circle class="cls-7" cx="186.15" cy="121.54" r="4.9"/><g id="color"><path id="New_Symbol" data-name="New Symbol" class="cls-7" d="M437.71,412.25c-4.84.56-6.2,5.57-9.85,9.9C423,427.93,415.78,425,415.78,425c4.87-.61,6.27-5.65,10-10C430.73,409.29,437.71,412.25,437.71,412.25Zm-17.55,8.48s6.06-4.8,3.45-11.87c-2-5.33-5.76-9.11-3.75-13.56,0,0-6,4.87-3.5,11.87C418.26,412.52,422.17,416.28,420.16,420.73Zm-.35-1s.58-7.78-6.13-10.73c-5.23-2.3-10.73-2.09-12.62-6.59,0,0-.75,7.73,6.37,10.72C412.71,415.32,417.93,415.21,419.81,419.71Zm-8,13.06h13.61l3.18-6.39H411.84ZM414,451.51h1.15L423,433.62h-9Z" transform="translate(-57.89 -116.43)"/></g><path class="cls-7" d="M269.3,506a34.16,34.16,0,0,0-11.07-4.29,70.08,70.08,0,0,0-8.63,7.93,68.65,68.65,0,0,1,15-26.58,49,49,0,0,0,.28,8.56,56,56,0,0,1,9.36-.26,82.21,82.21,0,0,0-8.57,4.84A40.12,40.12,0,0,0,269.3,506Z" transform="translate(-57.89 -116.43)"/><path class="cls-7" d="M246.87,478.39a30.91,30.91,0,0,0,8.17,1.3,69.83,69.83,0,0,0,5.07-8.55,60.81,60.81,0,0,1-.73,9.07,80.76,80.76,0,0,0,8.54.22l-9.35,4.6a35.85,35.85,0,0,1-3.21,7.89c-.73-1.83-1.56-3.5-2.34-5.4-2.4.71-4.88,1.52-7.08,2.12a70.6,70.6,0,0,0,5.26-5.69A23.9,23.9,0,0,0,246.87,478.39Z" transform="translate(-57.89 -116.43)"/><path class="cls-7" d="M264.54,476.73l-.07-.72a17.76,17.76,0,0,0-.54-3,16.11,16.11,0,0,1-3,.6l-.67.07.53-.41a18.22,18.22,0,0,0,2.44-2.3c-.46-1.12-1.86-3.7-1.86-3.7s2.31,1.37,3.33,1.79a18,18,0,0,0,1.24-2.17l.29-.6.08.66a16.83,16.83,0,0,1,.1,2.7,16.51,16.51,0,0,0,2.47.5l.48.06-.39.29a16.82,16.82,0,0,1-2.86,1.69,17.24,17.24,0,0,1-1.27,3.9l-.3.66Zm-.34-4.22.05.19a18.11,18.11,0,0,1,.52,2.55,16.86,16.86,0,0,0,1-3.25l0-.1.09,0a16.39,16.39,0,0,0,2.49-1.41,16.91,16.91,0,0,1-2.19-.49l-.15,0v-.15a16.5,16.5,0,0,0,0-2.12,18.33,18.33,0,0,1-1.05,1.75l-.09.13-.14-.06a16.45,16.45,0,0,1-2.38-1.18,17.92,17.92,0,0,1,1.31,2.64l0,.11-.08.09a18.6,18.6,0,0,1-2,2,15.79,15.79,0,0,0,2.44-.56l.19-.06Z" transform="translate(-57.89 -116.43)"/><path class="cls-7" d="M311.08,481.06h3.07l-2.41,8.9h-3.07Zm2.65-3.38h3.62l-3.66,2.27h-2Z" transform="translate(-57.89 -116.43)"/><path class="cls-7" d="M305.09,478.46h3.09l-.7,2.65h2L309,483h-2l-1.05,3.9-.11.39a.59.59,0,0,0,0,.32.35.35,0,0,0,.19.22,1,1,0,0,0,.45.08l1.1,0-.55,2-.87.1q-.36,0-.78,0l-.81,0a3.49,3.49,0,0,1-.76-.11,2.69,2.69,0,0,1-.64-.26,1.14,1.14,0,0,1-.45-.48,1.36,1.36,0,0,1-.15-.88,9.92,9.92,0,0,1,.25-1.14l1.13-4.19h-1.51l.52-1.86h1.51Z" transform="translate(-57.89 -116.43)"/><path class="cls-7" d="M298.93,482a6.89,6.89,0,0,1,1.34-.65,5.78,5.78,0,0,1,1.92-.26l-.5,1.84a6,6,0,0,0-1.74.3,2.63,2.63,0,0,0-1.45,1,3.31,3.31,0,0,0-.27.68l-1.36,5h-3.07l2.41-8.9h3Z" transform="translate(-57.89 -116.43)"/><path class="cls-7" d="M285.37,483.57a5.32,5.32,0,0,1,.49-1,3.18,3.18,0,0,1,1.15-1,5.08,5.08,0,0,1,1.78-.64,11.87,11.87,0,0,1,1.84-.14,11.52,11.52,0,0,1,1.19.08,4.85,4.85,0,0,1,1.35.34,2.27,2.27,0,0,1,1,.77,1.58,1.58,0,0,1,.13,1.37l-1.41,5.19c-.07.24-.11.43-.15.58a1.65,1.65,0,0,0,0,.37,1,1,0,0,0,0,.24.87.87,0,0,0,.09.21h-3l.22-.82-.72.38a7.12,7.12,0,0,1-.79.34,5.9,5.9,0,0,1-.9.25,5.61,5.61,0,0,1-1.06.09,3.79,3.79,0,0,1-1.48-.25,2.13,2.13,0,0,1-.88-.64,1.82,1.82,0,0,1-.37-.88,2.36,2.36,0,0,1,.06-.95,2.66,2.66,0,0,1,.48-1,4.15,4.15,0,0,1,.75-.74,4.89,4.89,0,0,1,.86-.53,7.37,7.37,0,0,1,.8-.33,7.69,7.69,0,0,1,.88-.23l1.12-.21,1.21-.2,1.11-.18.13-.48c0-.1,0-.22,0-.34a.79.79,0,0,0,0-.36.55.55,0,0,0-.26-.28,1.32,1.32,0,0,0-.62-.11,2.55,2.55,0,0,0-.85.12,2.07,2.07,0,0,0-.54.28,1.41,1.41,0,0,0-.33.34,2,2,0,0,0-.17.3Zm3.16,2.68-.47.15a3,3,0,0,0-.49.21,1.76,1.76,0,0,0-.41.31,1,1,0,0,0-.25.44.67.67,0,0,0,.14.61.92.92,0,0,0,.77.29,2.2,2.2,0,0,0,.57-.08A3,3,0,0,0,289,488a2.72,2.72,0,0,0,1.18-1,3,3,0,0,0,.31-.61c.08-.22.15-.44.21-.67Z" transform="translate(-57.89 -116.43)"/><path class="cls-7" d="M285.61,477.9,282.34,490H279l2.54-8.59.37-1.21-.24.43-.22.42-.16.29-.14.26-.19.32L276.11,490h-3l-.45-7.75,0-2.15-.13.61c0,.17-.07.32-.1.48s-.07.32-.11.51l-.16.71-1.88,7.6h-3.41l3.26-12.05h5.14l.32,6.76,0,1.93.26-.5.17-.34.16-.29.19-.35,4.2-7.21Z" transform="translate(-57.89 -116.43)"/><path class="cls-7" d="M375.38,262.14c.74,0,2.17,0,2.17-1.65s-1.41-1.67-2.19-1.67h-1.48a22.17,22.17,0,0,0-.37,3.32Z" transform="translate(-57.89 -116.43)"/><path class="cls-7" d="M395.58,240.87a22.1,22.1,0,0,0-20.92,15h1.42a9.81,9.81,0,0,1,3.5.44,4.32,4.32,0,0,1,2.45,4.1,4,4,0,0,1-1.09,2.85,4.44,4.44,0,0,1-1.83,1.09l3.46,5.73h-5l-2.75-5h-1.24a22.09,22.09,0,1,0,22-24.19Zm-8.06,29.19H383V255.87H393v3h-5.46v3.13H393v3h-5.46Zm15,0-.62-2H397l-.62,2h-4.82L397,255.87h5.11l5.31,14.19Z" transform="translate(-57.89 -116.43)"/><polygon class="cls-7" points="339.99 148.63 343.14 148.63 341.6 143.49 339.99 148.63"/></g></svg>