<svg xmlns="http://www.w3.org/2000/svg" viewBox="0 0 485.28 485.28"><defs><style>.cls-1,.cls-10{fill:#538ebd;}.cls-2,.cls-8,.cls-9{fill:#4d4d4f;}.cls-3{fill:#a7a9ac;}.cls-4{fill:#808285;}.cls-5{fill:#92aecf;}.cls-6{fill:#d1d3d4;}.cls-7{fill:#fff;}.cls-8,.cls-9{font-size:13.6px;}.cls-8{font-family:Lato-Bold, Lato;font-weight:700;}.cls-9{font-family:Lato-Regular, Lato;}.cls-10{font-size:46.81px;font-family:Lato-Black, Lato;}</style></defs><title>OneTeam_elec-small</title><g id="Layer_1_copy" data-name="Layer 1 copy"><path class="cls-1" d="M270.59,260.36l206.94-67.24a242.8,242.8,0,0,0-270.42-58V315.29a103.65,103.65,0,0,1,63.48-54.93Z" transform="translate(-57.89 -116.43)"/><path class="cls-2" d="M57.89,359.06c0,6.46.27,13.06.8,19.66l171.42,55.7a103.21,103.21,0,0,1-32.71-75.35V139.38A242.6,242.6,0,0,0,57.89,359.06Z" transform="translate(-57.89 -116.43)"/><path class="cls-3" d="M484.62,201,313.18,256.72A103.61,103.61,0,0,1,384,298.45l.71,1L513.08,476.16A242.7,242.7,0,0,0,484.62,201Z" transform="translate(-57.89 -116.43)"/><path class="cls-4" d="M244.47,595.18l106-146a103,103,0,0,1-83.8,7.29L59.77,389.27A241.57,241.57,0,0,0,244.47,595.18Z" transform="translate(-57.89 -116.43)"/><path class="cls-5" d="M300.53,601.7c84.22,0,163.32-44.51,207.22-116.37L401.82,339.53a103.9,103.9,0,0,1,1.84,19.54,102.35,102.35,0,0,1-19.72,60.65L254.85,597.39A244.36,244.36,0,0,0,300.53,601.7Z" transform="translate(-57.89 -116.43)"/><circle class="cls-6" cx="242.91" cy="243.5" r="80.77"/><circle class="cls-7" cx="243.16" cy="244.41" r="59.45"/><text x="-57.89" y="-116.43"></text></g><g id="CEO_and_IBB_text" data-name="CEO and IBB text"><text class="cls-8" transform="translate(184.83 271.66) rotate(-113.14) scale(1.02 1)">I</text><text class="cls-8" transform="matrix(-0.3, -0.97, 0.95, -0.3, 183.03, 267.76)">B</text><text class="cls-8" transform="matrix(-0.17, -1, 0.99, -0.17, 180.36, 259.27)">B</text><text class="cls-8" transform="translate(178.92 250.48) rotate(-93.79) scale(1.02 1)">/</text><text class="cls-8" transform="matrix(0.04, -1.01, 1, 0.04, 178.5, 245.17)">T</text><text class="cls-8" transform="matrix(0.15, -1, 0.99, 0.15, 178.8, 237.05)">S</text><text class="cls-8" transform="matrix(0.24, -0.99, 0.97, 0.24, 179.98, 229.77)">I</text><text class="cls-9" transform="translate(181.05 225.49) rotate(-73.14) scale(1.02 1)"> </text><text class="cls-9" transform="matrix(0.33, -0.96, 0.94, 0.33, 181.84, 222.87)"> </text><text class="cls-9" transform="translate(182.57 220.31) rotate(-65.4) scale(1.02 1)">C</text><text class="cls-9" transform="matrix(0.54, -0.86, 0.85, 0.53, 186.51, 211.83)">o</text><text class="cls-9" transform="translate(190.6 205.4) rotate(-52.07) scale(1.02 1)">r</text><text class="cls-9" transform="matrix(0.7, -0.73, 0.72, 0.69, 193.95, 201.02)">p</text><text class="cls-9" transform="matrix(0.78, -0.65, 0.64, 0.77, 199.17, 195.55)">o</text><text class="cls-9" transform="matrix(0.84, -0.57, 0.56, 0.83, 205.08, 190.71)">r</text><text class="cls-9" transform="matrix(0.89, -0.49, 0.48, 0.88, 209.42, 187.73)">a</text><text class="cls-9" transform="matrix(0.93, -0.4, 0.39, 0.92, 215.57, 184.43)">t</text><text class="cls-9" transform="translate(220.25 182.37) rotate(-17.75) scale(1.02 1)">e</text><text class="cls-9" transform="translate(227.19 180.24) rotate(-13.38) scale(1.02 1)"> </text><text class="cls-9" transform="matrix(1, -0.16, 0.15, 0.99, 229.74, 179.53)">F</text><text class="cls-9" transform="translate(236.98 178.39) rotate(-2.52) scale(1.02 1)">u</text><text class="cls-9" transform="matrix(1.01, 0.07, -0.07, 1, 244.59, 178.05)">n</text><text class="cls-9" transform="translate(252.17 178.61) rotate(10.04) scale(1.02 1)">c</text><text class="cls-9" transform="matrix(0.98, 0.26, -0.26, 0.97, 258.51, 179.76)">t</text><text class="cls-9" transform="translate(263.53 181.14) rotate(18.77) scale(1.02 1)">i</text><text class="cls-9" transform="translate(266.9 182.19) rotate(23.56) scale(1.02 1)">o</text><text class="cls-9" transform="translate(273.87 185.23) rotate(30.08) scale(1.02 1)">n</text><text class="cls-9" transform="matrix(0.82, 0.59, -0.59, 0.81, 280.44, 189.08)">s</text><text class="cls-9" transform="translate(285.3 192.66) rotate(39.59) scale(1.02 1)"> </text><text class="cls-9" transform="matrix(0.72, 0.72, -0.7, 0.71, 287.44, 194.23)">&amp;</text><text class="cls-9" transform="matrix(0.65, 0.78, -0.76, 0.64, 294.19, 201.14)"> </text><text class="cls-9" transform="matrix(0.58, 0.84, -0.82, 0.57, 296.05, 203.06)">D</text><text class="cls-9" transform="translate(301.78 211.67) rotate(61.26) scale(1.02 1)">i</text><text class="cls-9" transform="translate(303.53 214.76) rotate(65.35) scale(1.02 1)">s</text><text class="cls-9" transform="translate(306.01 220.21) rotate(70.12) scale(1.02 1)">t</text><text class="cls-9" transform="translate(307.78 225.07) rotate(74.73) scale(1.02 1)">r</text><text class="cls-9" transform="translate(309.21 230.46) rotate(78.64) scale(1.02 1)">i</text><text class="cls-9" transform="matrix(0.12, 1.01, -0.99, 0.11, 309.99, 233.89)">b</text><text class="cls-9" transform="translate(310.87 241.5) rotate(89.99) scale(1.02 1)">u</text><text class="cls-9" transform="translate(310.81 249.14) rotate(95.47) scale(1.02 1)">t</text><text class="cls-9" transform="translate(310.29 254.29) rotate(99.25) scale(1.02 1)">i</text><text class="cls-9" transform="matrix(-0.25, 0.98, -0.97, -0.24, 309.81, 257.8)">o</text><text class="cls-9" transform="matrix(-0.36, 0.95, -0.94, -0.35, 307.97, 265.15)">n</text><text class="cls-10" transform="translate(195.36 259.48)">CEO</text></g><g id="network_logos" data-name="network logos"><path class="cls-7" d="M137.6,344.81c3.72-1.39,5.86-3.94,5.86-8.3,0-6.21-5-9.16-11.74-9.16H110L102.44,350l-7.55-22.6H80v36.11h9.73V339.38l8,24.08h9.46l8-24.08v24.08H131c6.47,0,14.07-1.81,14.07-10.45C145.07,348.68,142.27,345.84,137.6,344.81Zm-9.34,11.82h-3.48V334.18h2.75c3.21,0,6.31.31,6.31,3.62,0,3.05-3.26,3.83-6.42,3.83h-.66v6.52h1.6c3.31,0,7.09.36,7.09,4.29C135.45,356.11,131.78,356.63,128.26,356.63Z" transform="translate(-57.89 -116.43)"/><polygon class="cls-7" points="112.29 210.93 112.29 235.03 100.34 210.93 87.87 210.93 87.87 247.04 97.47 247.04 97.47 224.7 108.51 247.04 121.85 247.04 121.85 210.93 112.29 210.93"/><path class="cls-7" d="M345.93,205.93l-15.66-43.11h-16.2l-2.72,7.85a22.15,22.15,0,0,1-12.21,35.19l0,.07h16.41s6.94-26,7-26.1h0l7,26.1Z" transform="translate(-57.89 -116.43)"/><path class="cls-7" d="M288.45,162.87H272.73l-7,26.1h0c0-.06-7-26.1-7-26.1H242.33l15,43.11h16.2l2.94-8.08a22.15,22.15,0,0,1,12-35Z" transform="translate(-57.89 -116.43)"/><circle class="cls-7" cx="236.03" cy="67.87" r="8.67"/><g id="color"><path id="New_Symbol" data-name="New Symbol" class="cls-7" d="M435.65,487.5c-8.56,1-11,9.85-17.41,17.5-8.61,10.22-21.38,5-21.38,5,8.61-1.07,11.08-10,17.68-17.61C423.3,482.26,435.65,487.5,435.65,487.5Zm-31,15s10.71-8.48,6.09-21c-3.48-9.43-10.19-16.11-6.64-24,0,0-10.61,8.6-6.19,21C401.26,488,408.18,494.63,404.62,502.49Zm-.62-1.8s1-13.75-10.83-19c-9.25-4.07-19-3.7-22.31-11.66,0,0-1.32,13.67,11.26,19C391.44,492.93,400.67,492.73,404,500.69Zm-14.1,23.09H414l5.62-11.3H389.9Zm3.83,33.13h2l13.81-31.62H393.73Z" transform="translate(-57.89 -116.43)"/></g><path class="cls-7" d="M199.57,537A60.39,60.39,0,0,0,180,529.42a123.91,123.91,0,0,0-15.26,14c4.55-16,13.42-32.28,26.51-47a86.6,86.6,0,0,0,.49,15.13,99.08,99.08,0,0,1,16.56-.46,145.35,145.35,0,0,0-15.15,8.55A70.94,70.94,0,0,0,199.57,537Z" transform="translate(-57.89 -116.43)"/><path class="cls-7" d="M159.9,488.13a54.65,54.65,0,0,0,14.44,2.3,123.46,123.46,0,0,0,9-15.12,107.52,107.52,0,0,1-1.29,16,142.79,142.79,0,0,0,15.1.39l-16.52,8.13s-.9,4.52-5.68,13.94c-1.29-3.23-2.75-6.18-4.13-9.55-4.25,1.26-8.63,2.69-12.52,3.74a124.83,124.83,0,0,0,9.3-10.07A42.26,42.26,0,0,0,159.9,488.13Z" transform="translate(-57.89 -116.43)"/><path class="cls-7" d="M191.15,485.19l-.12-1.27a31.4,31.4,0,0,0-.95-5.32,28.48,28.48,0,0,1-5.29,1.06l-1.18.12.94-.73a32.21,32.21,0,0,0,4.32-4.07c-.81-2-3.29-6.53-3.29-6.53s4.08,2.42,5.89,3.16a31.87,31.87,0,0,0,2.19-3.84l.51-1.06.14,1.17a29.76,29.76,0,0,1,.17,4.77,29.19,29.19,0,0,0,4.36.89l.86.11-.7.51a29.74,29.74,0,0,1-5.06,3,30.48,30.48,0,0,1-2.24,6.9l-.54,1.16Zm-.59-7.46.1.34a32,32,0,0,1,.92,4.5,29.81,29.81,0,0,0,1.71-5.74l0-.17.16-.07a29,29,0,0,0,4.4-2.5,29.89,29.89,0,0,1-3.87-.87l-.26-.08v-.27a29.17,29.17,0,0,0,0-3.75,32.42,32.42,0,0,1-1.86,3.09l-.15.23-.26-.1a29.09,29.09,0,0,1-4.21-2.08,31.68,31.68,0,0,1,2.32,4.66l.08.19-.14.16a32.88,32.88,0,0,1-3.62,3.56,27.92,27.92,0,0,0,4.31-1l.34-.11Z" transform="translate(-57.89 -116.43)"/><path class="cls-7" d="M273.44,492.85h5.42l-4.26,15.73h-5.42Zm4.68-6h6.41l-6.47,4h-3.59Z" transform="translate(-57.89 -116.43)"/><path class="cls-7" d="M262.86,488.26h5.46l-1.25,4.68h3.56l-.92,3.29h-3.59l-1.86,6.89-.19.69a1,1,0,0,0,0,.56.62.62,0,0,0,.33.39,1.78,1.78,0,0,0,.79.14l2-.06-1,3.62-1.55.18q-.63.06-1.37.06l-1.43,0a6.16,6.16,0,0,1-1.34-.2,4.75,4.75,0,0,1-1.14-.47,2,2,0,0,1-.8-.85,2.4,2.4,0,0,1-.26-1.55,17.54,17.54,0,0,1,.44-2l2-7.4H258l.92-3.29h2.68Z" transform="translate(-57.89 -116.43)"/><path class="cls-7" d="M252,494.51a12.18,12.18,0,0,1,2.37-1.15,10.22,10.22,0,0,1,3.39-.46l-.89,3.25a10.67,10.67,0,0,0-3.08.52,4.66,4.66,0,0,0-2.57,1.82,5.85,5.85,0,0,0-.49,1.21l-2.4,8.88h-5.42l4.26-15.73h5.28Z" transform="translate(-57.89 -116.43)"/><path class="cls-7" d="M228,497.29a9.41,9.41,0,0,1,.86-1.74,5.62,5.62,0,0,1,2-1.77,9,9,0,0,1,3.14-1.13,21,21,0,0,1,3.26-.26,20.38,20.38,0,0,1,2.11.14,8.58,8.58,0,0,1,2.39.6,4,4,0,0,1,1.76,1.36,2.79,2.79,0,0,1,.22,2.43l-2.48,9.18c-.12.42-.2.77-.26,1a2.91,2.91,0,0,0-.09.65,1.76,1.76,0,0,0,0,.42,1.54,1.54,0,0,0,.16.38h-5.32l.39-1.45-1.27.66a12.59,12.59,0,0,1-1.4.61,10.44,10.44,0,0,1-1.6.44,9.91,9.91,0,0,1-1.88.17,6.71,6.71,0,0,1-2.61-.44,3.77,3.77,0,0,1-1.56-1.13,3.22,3.22,0,0,1-.65-1.55,4.16,4.16,0,0,1,.1-1.68,4.71,4.71,0,0,1,.85-1.69,7.35,7.35,0,0,1,1.32-1.31,8.65,8.65,0,0,1,1.52-.93,13,13,0,0,1,1.41-.59,13.6,13.6,0,0,1,1.55-.41q.93-.2,2-.38l2.14-.35,2-.32.23-.84c0-.18.05-.38.08-.6a1.39,1.39,0,0,0-.08-.63,1,1,0,0,0-.46-.5,2.33,2.33,0,0,0-1.09-.2,4.5,4.5,0,0,0-1.5.21,3.67,3.67,0,0,0-1,.5,2.5,2.5,0,0,0-.59.6,3.61,3.61,0,0,0-.3.53Zm5.58,4.74-.83.27a5.36,5.36,0,0,0-.86.38,3.11,3.11,0,0,0-.73.54,1.7,1.7,0,0,0-.44.77,1.18,1.18,0,0,0,.25,1.09,1.63,1.63,0,0,0,1.36.51,3.89,3.89,0,0,0,1-.14,5.32,5.32,0,0,0,1-.38,4.81,4.81,0,0,0,2.08-1.78,5.31,5.31,0,0,0,.54-1.09c.14-.38.26-.77.37-1.18Z" transform="translate(-57.89 -116.43)"/><path class="cls-7" d="M228.41,487.26l-5.77,21.31h-5.95l4.5-15.19.65-2.14-.42.76c-.15.3-.28.55-.39.74s-.2.36-.28.51l-.25.45-.33.56-8.56,14.31h-5.35l-.79-13.71-.06-3.8-.24,1.07c-.07.29-.13.57-.18.85s-.11.57-.19.91-.17.75-.29,1.25l-3.32,13.43h-6l5.77-21.31H210l.56,12,0,3.41c.19-.36.34-.66.45-.89s.21-.43.3-.6l.28-.51.34-.62,7.43-12.74Z" transform="translate(-57.89 -116.43)"/><path class="cls-7" d="M430.25,298.67c1.31,0,3.84-.07,3.84-2.91s-2.49-3-3.87-3h-2.61a39.21,39.21,0,0,0-.66,5.86Z" transform="translate(-57.89 -116.43)"/><path class="cls-7" d="M466,261.06a39.07,39.07,0,0,0-37,26.49h2.51a17.34,17.34,0,0,1,6.18.79c3.34,1.42,4.34,4.83,4.34,7.25a7,7,0,0,1-1.92,5,7.84,7.84,0,0,1-3.23,1.92L443,312.67h-8.81l-4.87-8.85h-2.2A39.06,39.06,0,1,0,466,261.06Zm-14.26,51.62h-7.93V287.59h17.59V293h-9.66v5.54h9.66v5.31h-9.66Zm26.57,0-1.1-3.48h-8.74l-1.1,3.48h-8.53l9.59-25.09h9l9.38,25.09Z" transform="translate(-57.89 -116.43)"/><polygon class="cls-7" points="412.16 187.4 417.72 187.4 414.99 178.3 412.16 187.4"/></g></svg>