<svg id="text" xmlns="http://www.w3.org/2000/svg" viewBox="0 0 768.83 777.57"><defs><style>.cls-1,.cls-16{fill:#998675;}.cls-2{fill:#fff;}.cls-3{fill:gray;}.cls-4{fill:#0071bc;}.cls-5{fill:#c1272d;}.cls-6{fill:#f7931e;}.cls-7{fill:#009245;}.cls-8{fill:#ed1c24;}.cls-10,.cls-11,.cls-12,.cls-14,.cls-15,.cls-9{fill:none;}.cls-9{stroke:#998675;stroke-width:5px;}.cls-10,.cls-9{stroke-miterlimit:10;}.cls-10{stroke:gray;stroke-dasharray:4 4;}.cls-10,.cls-11,.cls-12,.cls-14,.cls-15{stroke-width:4px;}.cls-11,.cls-12,.cls-14,.cls-15{stroke:#ccc;stroke-linejoin:round;}.cls-12{stroke-dasharray:3.84 11.52;}.cls-13{fill:#ccc;}.cls-14{stroke-dasharray:3.95 11.85;}.cls-15{stroke-dasharray:3.89 11.66;}.cls-16,.cls-17{font-size:20px;font-family:Lato-Bold, Lato;font-weight:700;}.cls-18{letter-spacing:-0.02em;}.cls-19{letter-spacing:-0.03em;}.cls-20{letter-spacing:-0.06em;}</style></defs><title>round-chart</title><circle class="cls-1" cx="385.42" cy="361.07" r="92.5"/><circle class="cls-2" cx="385.42" cy="125.07" r="92.5"/><path class="cls-3" d="M567.5,194H565l-1.54.05.17,4c1.27-.05,2.56-.08,3.83-.08v-4Zm-8,.34c-.81.07-1.61.15-2.41.24h0l-.14,0h-1.39l.51,4c1.26-.16,2.54-.3,3.81-.41l-.34-4Zm-7.93,1q-2,.34-3.93.77l.85,3.91c1.24-.27,2.5-.52,3.76-.74l-.68-3.94Zm-7.81,1.71-2,.55h-.15l-.08,0h-.06l-1.55.47,1.19,3.82c1.21-.38,2.45-.73,3.68-1.06l-1-3.87Zm-7.63,2.38-1.64.61h-.06l-.14.05h-.12l-.11,0h-.15l-.08,0h-.18l-.08,0h-.44l-.06,0h-.17l-.13.05h0l-.33.14,1.52,3.7c1.17-.48,2.38-.94,3.57-1.38l-1.36-3.76Zm-7.4,3q-1.75.81-3.45,1.68h-.14L527,207.8c1.13-.58,2.29-1.15,3.44-1.68l-1.68-3.63Zm-7.11,3.67-1.55.91H520l0,0h-.13l-1.43.88h-.1l0,0h0l0,0,2.14,3.38c1.07-.68,2.18-1.34,3.28-2l-2-3.47Zm-6.76,4.27-.68.48h0L514,211h0l0,0h0l0,0h0l0,0h0l0,0h0l0,0h0l-.11.08h0l0,0h0l0,0h0l0,0h0l-.17.12h0l0,0h0l0,0h0l-1,.7h0l0,0h-.12l-.12.09h0l-.6.45L514,216c1-.77,2.05-1.52,3.1-2.25l-2.28-3.29Zm-6.37,4.84q-1.06.88-2.09,1.79h0l0,0h0l-.19.16h0l0,0h0l0,0h0l-.14.12h0l0,0h0l0,0h0l-.37.33,2.68,3c.94-.85,1.92-1.7,2.89-2.51l-2.55-3.08Zm-5.93,5.37-.62.62h0l-.09.09h0l0,0h0l0,0h0l0,0h0l0,0h0l0,0,0,0,0,0,0,0,0,0,0,0,0,0,0,0h0l0,0h0l0,0h0c-.55.56-1.08,1.12-1.61,1.69l2.93,2.73c.87-.93,1.76-1.85,2.67-2.75l-2.81-2.85Zm-5.45,5.85q-.73.86-1.44,1.73h0l-.39.49h0L495,229h0l-.12.15h0l0,0h0l0,0h0l0,0h0l-.07.09h0l0,0h0l0,0h0l0,0h0l0,0h0l3.15,2.46c.78-1,1.6-2,2.42-3l-3-2.6Zm-4.93,6.3q-1,1.39-1.94,2.83h0v0h0v0h0v0h0l0,0h0l-.21.32,3.35,2.18c.69-1.06,1.42-2.13,2.16-3.16l-3.25-2.33Zm-4.36,6.7,0,0h0l0,0h0l0,0h0l0,0h0l0,0h0l-.05.09h0v0h0v0h0v0h0v0h0v0h0v0h0v0h0v0h0v0h0v0h0v0h0v0h0v0h0l0,0h0v0h0v0h0v0h0l-.06.1h0v0h0v0h0v0h0v0h0v0h0v0h0l0,.08h0v0h0v0h0v0h0v0h0v0h0v0h0l0,.08h0v0h0v0h0v0h0v0h0v0h0v0h0v0h0v0h0l0,0h0v0h0v0h0v0h0v0h0v0h0v0h0l-.06.11h0v0h0v0h0v0h0v0h0v0h0l-.1.19h0l-.6,1.1,3.53,1.88c.6-1.12,1.23-2.24,1.88-3.34l-3.44-2Zm-3.77,7.05-.13.28h0v0h0l0,.1h0v0h0v0h0v0h0v0h0q-.72,1.53-1.39,3.09l3.68,1.57c.5-1.17,1-2.34,1.58-3.48l-3.61-1.73Zm-3.14,7.35-.22.6h0v0h0v0h0v0h0v.05h0v0h0v0h0q-.36,1-.7,2h0v0h0v0h0v.07h0l-.28.83,3.8,1.25c.4-1.21.82-2.42,1.27-3.61l-3.74-1.41Zm-2.49,7.6q-.54,1.92-1,3.87l3.9.91c.29-1.24.61-2.48,1-3.7l-3.85-1.08Zm-1.82,7.79q-.37,2-.65,3.95l4,.57c.18-1.26.39-2.53.63-3.78l-3.93-.74Zm-1.14,7.92q-.15,1.53-.25,3.07h0v.14h0v0h0v0h0v0h0v0h0v0h0v.11h0v.15h0l0,.31,4,.23c.07-1.27.17-2.55.3-3.82l-4-.4Zm-.45,8q0,.29,0,.58h0v0h0v0h0v.27h0v.32h0v0h0v0h0v.23h0v0h0v0h0v0h0v0h0V287h0v0h0v0h0v.08h0v0h0v0h0v0h0v0h0v0h0q0,.88,0,1.76l4-.11c0-.85,0-1.72,0-2.57q0-.63,0-1.26l-4-.06Zm4.22,7.71-4,.28v.09h0v0h0v0h0v0h0v0h0v0h0v0h0c.09,1.23.21,2.44.35,3.65l4-.46c-.14-1.26-.26-2.54-.35-3.81Zm.87,7.6-4,.63c.08.49.16,1,.24,1.46h0v0h0v0h0v0h0v0h0v0h0v.07h0v0h0v0h0l0,.12h0v0h0v0h0q.1.54.2,1.07h0v0h0v0h0v0h0l0,.08h0v0h0v0h0v.07h0v.07h0v0h0v0h0l.08.41,3.92-.8c-.25-1.24-.48-2.51-.68-3.76Zm1.53,7.5-3.88,1c.32,1.3.67,2.58,1.05,3.86l3.84-1.14c-.36-1.22-.7-2.46-1-3.69Zm2.17,7.33-3.78,1.3.19.54h0v0h0v0h0v0h0v0h0v0h0v0h0v0h0v0h0v0h0v0h0l.06.17h0q.27.75.55,1.49h0v0h0v0h0v0h0v0h0v0h0l0,0h0v0h0v0h0v0h0v0h0l.33.85,3.72-1.47c-.47-1.18-.91-2.39-1.32-3.59Zm2.8,7.12-3.65,1.63.57,1.26h0v0h0v0h0l0,.06h0l0,.09h0v0h0v0h0v0h0v0h0v0h0l0,.09h0v0h0v0h0v0h0v0h0v0h0v0h0v0h0v0h0v0h0v0h0v0h0v0h0v0h0v0h0v0h0v0h0v0h0v0h0v0h0v0h0v0h0v0h0l0,0h0v0h0v0h0v0h0v0h0v0h0v0h0v0h0l0,.07h0v0h0v0h0v0h0v0h0v0h0l.07.14h0v0h0v0h0v0h0l.23.47,3.58-1.78c-.57-1.14-1.12-2.3-1.63-3.46Zm3.41,6.85-3.5,1.94.22.4h0l0,.06h0l0,0h0v0h0v0h0v0h0v0h0q.81,1.43,1.66,2.83l3.41-2.09c-.66-1.08-1.31-2.2-1.93-3.31Zm4,6.53-3.32,2.23q1.12,1.66,2.3,3.27l3.22-2.37c-.75-1-1.5-2.08-2.2-3.13Zm4.54,6.16-3.11,2.51q1.06,1.31,2.16,2.59h0l0,0h0l0,0h0l0,0h0l0,0h0l0,0h0l0,0,0,0,0,0,0,0h0l0,0h0l.06.07,3-2.64c-.84-1-1.67-1.94-2.46-2.93Zm5.05,5.75-2.89,2.77q.71.74,1.44,1.47h0l0,0h0l0,0h0l.08.08h0l0,0h0l0,0h0l0,0h0l0,0,0,0,0,0,0,0,0,0,0,0,0,0,0,0,0,0,0,0h0l0,0h0l0,0h0l.07.07h0l0,0h0l0,0h0l0,0h0l.12.12h0l0,0h0l0,0h0l.07.07h0l0,0h0l0,0h0l0,0h0l0,0,0,0h0l2.77-2.89c-.92-.88-1.83-1.79-2.71-2.71Zm5.53,5.29-2.64,3q1.13,1,2.29,1.94h0l.09.08h0l0,0h0l0,0h0l0,0h0l0,0,0,0,0,0,0,0,0,0,.4.33,2.51-3.12c-1-.8-2-1.62-2.93-2.46Zm6,4.8L512.72,361l.66.48h0l0,0h0l0,0h0l0,0h0l0,0h0l.07,0h.13l0,0h0l0,0h0q1.12.8,2.26,1.57l2.23-3.32c-1.05-.71-2.11-1.45-3.13-2.2Zm6.35,4.27-2.08,3.41q1.33.81,2.69,1.58h.11l.07,0h.19l.39.21,1.94-3.5c-1.11-.61-2.22-1.26-3.31-1.92Zm6.7,3.7-1.78,3.58q1.06.53,2.14,1h.14l.16.07h0l1.18.54,1.62-3.66c-1.16-.52-2.32-1.06-3.46-1.63Zm7,3.11-1.46,3.72q1.86.73,3.75,1.38l1.3-3.78c-1.2-.41-2.41-.86-3.59-1.32Zm7.23,2.49-1.13,3.84q1.87.55,3.78,1h.08l1-3.88c-1.23-.31-2.47-.64-3.69-1Zm7.42,1.85-.8,3.92h.08c1,.2,1.93.37,2.91.54h.24l.71.12.63-4c-1.25-.2-2.52-.43-3.76-.68Zm7.56,1.2-.45,4h.21l1.82.19h2l.28-4c-1.27-.09-2.55-.21-3.81-.35ZM565,375l-.11,4,.84,0h3.16l-.06-4H567.5c-.84,0-1.68,0-2.52,0Zm11.47-.41c-1.26.13-2.55.23-3.82.3l.23,4,2-.14h.91l1.08-.1-.4-4Zm7.57-1.09c-1.25.24-2.52.45-3.77.63l.57,4,1.84-.28h.3l1.81-.32-.74-3.93Zm7.45-1.75c-1.22.34-2.47.66-3.7,1l.91,3.89.4-.1h.37l.11,0h.13l.12,0h.1l.18,0h.06l.18,0h.06l.18,0h0l.21-.05h0l1.75-.47-1.08-3.85Zm7.27-2.39c-1.19.45-2.4.88-3.61,1.27l1.25,3.8.75-.25h.39l.11,0h.06l.06,0h0l1.24-.44h0l.14-.05h.15l.88-.33-1.41-3.74Zm7-3c-1.14.55-2.32,1.08-3.48,1.58l1.57,3.68,1.44-.63h0l.06,0h0l.13-.06h.37l1.64-.77-1.73-3.61Zm6.75-3.61c-1.09.65-2.21,1.28-3.33,1.88l1.89,3.53q1.09-.58,2.16-1.19h.16l1.17-.68-2-3.44Zm6.41-4.18c-1,.74-2.1,1.47-3.16,2.16L618,364l1.22-.81h.13l0,0h0l.11-.08h0l1.74-1.21h0l0,0h0l-2.33-3.25Zm6-4.72c-1,.83-2,1.64-3,2.42l2.47,3.15,1.34-1.07h0l0,0h0l0,0h0l.08-.06h0l0,0h0l0,0h0l0,0h0l0,0,0,0,0,0,0,0,0,0h0l0,0,0,0,0,0,0,0,0,0,0,0,0,0,0,0,0,0,0,0,0,0,0,0,0,0,0,0,0,0,0,0,0,0,0,0,0,0,0,0,0,0,0,0,0,0,0,0,0,0,0,0,0,0,0,0,0,0,0,0,0,0,0,0,0,0,0,0,0,0,0,0,0,0,0,0,0,0h0l0,0h0l0,0h0l0,0,0,0,0,0h0l0,0h0l0,0h0l0,0-2.6-3Zm5.6-5.22c-.89.91-1.81,1.8-2.74,2.67l2.73,2.93.25-.23h0l0,0h0l0,0h0l0,0,0,0,0,0,0,0,0,0,0,0,0,0,0,0h0l0,0h0l0,0h0l0,0h0l0,0h0l0,0h0l0,0h0l0,0h0l0,0h0l0,0h0l0,0h0l0,0h0l0,0h0l0,0h0l.08-.08h0l0,0h0l0,0h0l0,0h0l0,0h0l0,0h0l0,0h0l0,0h0l0,0h0l0,0,0,0,0,0h0l0,0,0,0,0,0,0,0,0,0,0,0,0,0,0,0,0,0,0,0,0,0,0,0,0,0,0,0h0l0,0h0l0,0h0l0,0h0l.72-.72-2.85-2.81Zm5.13-5.68c-.81,1-1.65,2-2.5,2.89l3,2.68.14-.16h0l0,0h0l0,0h0l0,0h0l0,0,0,0,0,0,0,0,0,0,0,0,0,0,0,0h0l0,0h0l0,0h0l0,0h0l0,0h0l0,0h0l0,0h0l0,0h0q1-1.08,1.87-2.19l-3.08-2.55Zm4.62-6.1c-.72,1-1.48,2.09-2.25,3.1l3.19,2.42q.9-1.18,1.75-2.39h0v0h0v0h0v0h0v0h0v0h0v0h0l0-.06h0v0h0v0h0v0h0v0h0v0h0v0h0v0h0v0l0,0h0v0h0v0h0v0h0l0-.07h0l0,0h0l0,0h0l0,0h0l0,0h0l-3.29-2.28Zm4.08-6.47c-.63,1.1-1.29,2.21-2,3.28l3.38,2.13q1.07-1.69,2.06-3.43l-3.47-2Zm3.5-6.8c-.53,1.15-1.1,2.31-1.68,3.44l3.56,1.83.36-.7h0v0h0v0h0v0h0v0h0l0-.09h0v0h0v0h0v0h0v0h0v0h0v0h0v-.08h0v0h0v0h0v0h0v0h0v0h0l0-.06h0v0h0v0h0v0h0v0h0v0h0v0h0l0-.09h0v0h0v0h0v0h0v0h0q.43-.87.83-1.76l-3.63-1.68Zm2.9-7.08c-.43,1.19-.89,2.4-1.37,3.57l3.7,1.52.35-.87h0v0h0v0h0v0h0q.54-1.36,1-2.75l-3.76-1.35Zm2.27-7.3c-.32,1.23-.68,2.46-1.06,3.68l3.82,1.19q.48-1.54.91-3.1h0v0h0v0h0v0h0v0h0v-.05h0v0h0v0h0v0h0l.12-.45-3.87-1Zm1.63-7.47c-.22,1.25-.46,2.52-.73,3.76l3.91.85q.14-.66.28-1.33h0v0h0l0-.1h0v0h0v0h0v-.07h0v-.08h0v0h0v0h0q.21-1.07.4-2.15l-3.94-.68Zm1-7.59c-.11,1.27-.24,2.55-.41,3.81l4,.51,0-.18h0v0h0v-.08h0v0h0v0h0v0h0c.08-.63.15-1.25.21-1.88h0v0h0V296h0v-.11h0v0h0q.07-.7.13-1.4l-4-.34Zm4.32-7.65h-4v.05c0,1.26,0,2.53-.08,3.78l4,.17,0-.46h0v0h0v-.13h0v0h0c0-.87,0-1.73.05-2.6h0v0h0v0h0V287h0v0h0v0h0v-.07h0v0h0v0h0v0h0v-.07h0v0h0v0h0v0h0v0h0v-.05Zm-.34-8-4,.34c.11,1.26.19,2.55.25,3.82l4-.17c0-.3,0-.6,0-.89h0v0h0v-.11h0v0h0v0h0v0h0v0h0v0h0v0h0v0h0v0h0q-.08-1.33-.19-2.64Zm-1-7.93-3.94.69c.22,1.25.41,2.52.57,3.78l4-.51h0v0h0l0-.14h0v0h0v0h0v0h0l0-.14h0v0h0v0h0v-.11h0v0h0v0h0v0h0v0h0v-.07h0v0h0v0h0v0h0v0h0v0h0v0h0v0h0v-.14h0v0h0v0h0v0h0v0h0v0h0V273h0v0h0v0h0v0h0v0h0v-.09h0v0h0v0h0v0h0v0h0l0-.11h0v0h0v0h0v0h0l0-.12h0v0h0v0h0v0h0v0h0v-.08h0v0h0v0h0v0h0v0h0v0h0v0h0v0h0v0h0q-.1-.62-.21-1.24Zm-1.71-7.81-3.87,1c.33,1.23.63,2.48.9,3.72l3.91-.86-.18-.79h0v0h0v0h0v-.05h0v0h0v0h0v0h0v0h0q-.23-1-.49-2h0v0h0v0h0v0h0v0h0l-.17-.66Zm-2.39-7.63-3.76,1.36c.43,1.19.84,2.41,1.22,3.63l3.82-1.19h0v0h0v0h0v0h0v0h0l0-.12h0q-.44-1.39-.92-2.75h0v0h0v0h0v-.07h0l0-.1h0l-.2-.55Zm-3-7.4-3.63,1.68c.53,1.15,1,2.33,1.53,3.51l3.7-1.52-.48-1.15h0l0-.11h0v0h0v0h0v0h0v0h0v0h0l-.05-.13h0v0h0v0h0l-.42-1h0v0h0v0h0v0h0v0h0l0-.06v0h0v0h0v0h0v0h0v0h0l-.34-.74Zm-3.67-7.11-3.47,2c.63,1.1,1.25,2.23,1.83,3.36l3.55-1.84q-.62-1.2-1.27-2.37h0l-.1-.19h0v0h0v0h0v0h0v0h0v0h0v0h0l0,0h0v0h0v0h0v0h0v0h0v0h0v0h0l-.07-.12h0l0,0h0v0h0v0h0l0,0h0l-.17-.3Zm-4.27-6.76-3.29,2.28c.72,1,1.44,2.12,2.11,3.19l3.38-2.14q-.67-1.06-1.36-2.09h0l-.14-.2h0l0,0h0l0,0h0l0,0h0l0,0h0v0h0l-.07-.1h0v0h0v0h0v0h0v0h0l0,0h0l-.46-.67Zm-4.84-6.37L635.62,230c.81,1,1.61,2,2.38,3l3.18-2.42-.09-.12h0l0,0v0l0,0,0,0v0l0,0h0l0,0h0l0,0h0l0,0h0l0,0h0q-1-1.34-2.11-2.63Zm-5.37-5.93-2.85,2.81c.89.9,1.78,1.84,2.63,2.78l3-2.69q-.71-.78-1.43-1.55h0l0,0h0l0,0v0l0,0,0,0,0,0,0,0h0l0,0h0l0,0h0l0,0h0l0,0h0l0,0h0l0,0h0l-.87-.9Zm-5.86-5.45-2.59,3c1,.82,1.93,1.68,2.86,2.55l2.72-2.93-.61-.57h0l0,0h0l0,0h0l0,0h0l-.08-.07h0l0,0h0l0,0h0l-.13-.11h0l0,0h0l0,0h0l0,0h0l-.08-.07h0l0,0h0l0,0h0l-.13-.11h0l0,0h0l0,0h0l0,0h0l-.07-.07h0l0,0h0l0,0h0l0,0h0l0,0,0,0,0,0,0,0,0,0,0,0,0,0,0,0,0,0,0,0h0l0,0h0l0,0h0l0,0h0l0,0h0l0,0h0l0,0h0l-.52-.45Zm-6.3-4.92-2.32,3.26c1,.74,2.07,1.51,3.07,2.29l2.46-3.15h0q-1.16-.91-2.35-1.78h0l0,0h-.1l0,0h0l-.68-.49Zm-6.7-4.36-2,3.44c1.09.65,2.19,1.32,3.25,2l2.18-3.35h-.07l0,0h0l-.15-.09h0l0,0h0q-1.54-1-3.12-1.93ZM607.41,203l-1.73,3.61c1.14.55,2.29,1.13,3.41,1.73l1.88-3.53-.81-.43h0l0,0H610l0,0h-.14l-.92-.47h-.17l-.06,0h-.1l-1.17-.57Zm-7.36-3.14-1.41,3.74c1.19.45,2.38.93,3.55,1.42l1.57-3.68-1-.44h-.4l-.17-.07h0l-1-.41h0l-.17-.07h-.15l-.07,0h-.18l-.13-.05h0l-.31-.12Zm-7.6-2.49-1.08,3.85c1.22.34,2.45.72,3.66,1.11l1.24-3.8-1.1-.35H595l-.11,0h-.09l-.92-.28h-.33l-1.12-.32Zm-7.79-1.82-.74,3.93c1.25.23,2.51.5,3.74.79l.91-3.9q-1.74-.41-3.5-.74h-.33l-.09,0Zm-7.92-1.13-.4,4c1.27.13,2.54.28,3.8.46l.57-4-1.62-.22h-.3l-1.64-.19h-.41Zm-8-.45-.05,4c1.27,0,2.56.06,3.83.13l.22-4-2.32-.1h-.65l-1,0Z" transform="translate(-182.08 -161.43)"/><path class="cls-4" d="M873,269.34v4h0a73.86,73.86,0,1,1-63.9,110.75A73.86,73.86,0,0,1,873,273.34v-4m0,0a77.85,77.85,0,1,0,67.5,39,77.51,77.51,0,0,0-67.5-39Z" transform="translate(-182.08 -161.43)"/><path class="cls-5" d="M873,620.74v4a73.86,73.86,0,1,1-64,36.89,73.81,73.81,0,0,1,64-36.89v-4m0,0a77.86,77.86,0,1,0,38.9,10.47A77.81,77.81,0,0,0,873,620.74Z" transform="translate(-182.08 -161.43)"/><path class="cls-6" d="M566.87,783.32v4h.05A73.84,73.84,0,0,1,566.85,935h-.08a73.84,73.84,0,0,1,.08-147.68l0-4m0,0A77.84,77.84,0,0,0,566.77,939h.08a77.84,77.84,0,0,0,.08-155.68Z" transform="translate(-182.08 -161.43)"/><path class="cls-7" d="M259.87,627.4v4h0a73.86,73.86,0,1,1-36.77,9.85,74.1,74.1,0,0,1,36.77-9.85v-4m0,0a77.85,77.85,0,1,0,67.54,39,77.51,77.51,0,0,0-67.54-39Z" transform="translate(-182.08 -161.43)"/><path class="cls-8" d="M263.3,269v4a73.81,73.81,0,1,1-36.4,9.55A73.8,73.8,0,0,1,263.3,273v-4m0,0a77.86,77.86,0,1,0,39,10.51,77.81,77.81,0,0,0-39-10.51Z" transform="translate(-182.08 -161.43)"/><line class="cls-9" x1="173.1" y1="238.3" x2="303.98" y2="316.73"/><polygon class="cls-1" points="176.8 264.36 181.61 262.97 174.74 239.29 198.86 234.17 197.82 229.28 168.44 235.52 176.8 264.36"/><line class="cls-10" x1="384.92" y1="258.23" x2="384.92" y2="221.57"/><polygon class="cls-3" points="401.28 244.97 398.35 242.25 384.92 256.69 371.49 242.25 368.56 244.97 384.92 262.57 401.28 244.97"/><line class="cls-2" x1="384.92" y1="262.57" x2="384.92" y2="221.57"/><line class="cls-9" x1="598.68" y1="241.18" x2="466.54" y2="317.47"/><polygon class="cls-1" points="574.11 231.76 572.98 236.64 597.01 242.14 589.77 265.71 594.55 267.17 603.37 238.47 574.11 231.76"/><line class="cls-9" x1="173.82" y1="484.5" x2="305.96" y2="408.21"/><polygon class="cls-1" points="198.39 493.92 199.52 489.05 175.49 483.54 182.73 459.98 177.95 458.51 169.13 487.21 198.39 493.92"/><line class="cls-9" x1="595.41" y1="486.01" x2="464.53" y2="407.58"/><polygon class="cls-1" points="591.71 459.95 586.9 461.34 593.76 485.02 569.64 490.14 570.68 495.03 600.06 488.79 591.71 459.95"/><line class="cls-9" x1="385.42" y1="606.14" x2="385.42" y2="453.57"/><polygon class="cls-1" points="405.87 589.58 402.21 586.16 385.43 604.22 368.64 586.16 364.98 589.58 385.43 611.57 405.87 589.58"/><path class="cls-11" d="M230.16,616.59l-.55-1.92" transform="translate(-182.08 -161.43)"/><path class="cls-12" d="M226.66,603.54a357.79,357.79,0,0,1-2.09-161.76" transform="translate(-182.08 -161.43)"/><path class="cls-11" d="M225.86,436.15l.47-1.94" transform="translate(-182.08 -161.43)"/><polygon class="cls-13" points="60.37 438 56.82 436.15 47.74 453.65 30.94 443.31 28.85 446.73 49.31 459.31 60.37 438"/><polygon class="cls-13" points="57.28 289.39 53.81 291.39 43.98 274.29 27.64 285.34 25.4 282.02 45.3 268.57 57.28 289.39"/><path class="cls-11" d="M316.25,271.39l1.39-1.43" transform="translate(-182.08 -161.43)"/><path class="cls-14" d="M326.07,261.64a354.75,354.75,0,0,1,494.27,4.12" transform="translate(-182.08 -161.43)"/><path class="cls-11" d="M824.52,270l1.39,1.43" transform="translate(-182.08 -161.43)"/><polygon class="cls-13" points="155.17 112.14 155.02 108.14 135.31 108.92 135.96 89.21 131.96 89.08 131.17 113.09 155.17 112.14"/><polygon class="cls-13" points="622.83 112.14 622.99 108.14 642.69 108.93 642.04 89.21 646.04 89.08 646.83 113.09 622.83 112.14"/><path class="cls-11" d="M912.56,434.16l.55,1.92" transform="translate(-182.08 -161.43)"/><path class="cls-12" d="M916,447.21A357.79,357.79,0,0,1,918.13,609" transform="translate(-182.08 -161.43)"/><path class="cls-11" d="M916.85,614.6l-.47,1.94" transform="translate(-182.08 -161.43)"/><polygon class="cls-13" points="718.18 289.88 721.73 291.73 730.81 274.23 747.61 284.57 749.71 281.15 729.25 268.57 718.18 289.88"/><polygon class="cls-13" points="721.28 438.49 724.75 436.49 734.57 453.59 750.91 442.54 753.15 445.86 733.25 459.31 721.28 438.49"/><path class="cls-11" d="M817.27,776.77,816,778.32" transform="translate(-182.08 -161.43)"/><path class="cls-15" d="M808.4,787.16a260.46,260.46,0,0,1-140.54,81.41" transform="translate(-182.08 -161.43)"/><path class="cls-11" d="M662.14,869.72l-2,.37" transform="translate(-182.08 -161.43)"/><polygon class="cls-13" points="614.07 614.98 614.57 618.95 634.13 616.46 635.19 636.15 639.19 635.93 637.89 611.95 614.07 614.98"/><polygon class="cls-13" points="487.91 689.94 491.15 692.28 479.58 708.25 496.36 718.63 494.25 722.03 473.82 709.39 487.91 689.94"/><path class="cls-11" d="M476.53,867.83l-2-.32" transform="translate(-182.08 -161.43)"/><path class="cls-15" d="M463.1,865.34a260.46,260.46,0,0,1-140.77-81" transform="translate(-182.08 -161.43)"/><path class="cls-11" d="M318.47,780l-1.3-1.52" transform="translate(-182.08 -161.43)"/><polygon class="cls-13" points="284.2 687.92 281.01 690.35 292.95 706.04 276.42 716.81 278.61 720.16 298.74 707.04 284.2 687.92"/><polygon class="cls-13" points="156.2 616.15 155.79 620.13 136.18 618.1 135.58 637.81 131.58 637.69 132.31 613.68 156.2 616.15"/><circle class="cls-2" cx="384.92" cy="329.57" r="33"/><text class="cls-16" transform="translate(364.3 334)">CEO<tspan class="cls-2"><tspan x="4.25" y="57">IBB</tspan></tspan></text><text class="cls-17" transform="translate(348.39 116)">Board of<tspan x="-8.83" y="24">G</tspan><tspan class="cls-18" x="5.63" y="24">ov</tspan><tspan x="27" y="24">ernors</tspan></text><text class="cls-17" transform="translate(652.05 513)">Office of <tspan x="15.42" y="24">Cuba </tspan><tspan x="-18.36" y="48">Broadcasting</tspan></text><text class="cls-17" transform="translate(29.2 173)">Middle East <tspan x="-6.44" y="24">Broadcasting </tspan><tspan x="14.55" y="48">Network</tspan></text><text class="cls-17" transform="translate(357.92 675)">Radio <tspan class="cls-19" x="-32.19" y="24">F</tspan><tspan x="-21.56" y="24">ree Europe/ </tspan><tspan x="0" y="48">Radio </tspan><tspan x="-4.4" y="72">Liberty</tspan></text><text class="cls-17" transform="translate(49.92 537)">Radio <tspan class="cls-19" x="-13.63" y="24">F</tspan><tspan x="-3" y="24">ree Asia</tspan></text><text class="cls-17" transform="translate(656.61 180)"><tspan class="cls-20">V</tspan><tspan x="12.97" y="0">oice of</tspan><tspan x="-1.55" y="24">America</tspan></text></svg>