<svg xmlns="http://www.w3.org/2000/svg" viewBox="0 0 885.24 639.41"><defs><style>.cls-1{font-size:31px;}.cls-1,.cls-4{font-family:Lato-Regular, Lato;}.cls-2,.cls-3{fill:none;}.cls-3{stroke:#000;stroke-miterlimit:10;stroke-width:0.75px;}.cls-4{font-size:30px;}.cls-5{font-size:93px;font-family:Lato-Bold, Lato;font-weight:700;}.cls-5,.cls-7{fill:#961d22;}.cls-6{fill:#b3c1c6;}</style></defs><title>weekly audience-small</title><g id="Layer_1" data-name="Layer 1"><text class="cls-1" transform="translate(37.37 606.53) scale(1.04 1)">0</text><text class="cls-1" transform="translate(18.68 506.69) scale(1.04 1)">50</text><text class="cls-1" transform="translate(0 406.86) scale(1.04 1)">100</text><text class="cls-1" transform="translate(0 307.03) scale(1.04 1)">150</text><text class="cls-1" transform="translate(0 207.19) scale(1.04 1)">200</text><text class="cls-1" transform="translate(1 106.36) scale(1.04 1)">250</text><path class="cls-2" d="M56.76,592.88" transform="translate(-1.74 4.6)"/><line class="cls-3" x1="77.02" y1="597.48" x2="881.76" y2="597.48"/><line class="cls-3" x1="77.02" y1="497.65" x2="885.24" y2="497.65"/><line class="cls-3" x1="77.02" y1="397.82" x2="885.24" y2="397.82"/><line class="cls-3" x1="77.02" y1="297.98" x2="885.24" y2="297.98"/><line class="cls-3" x1="77.02" y1="198.15" x2="885.24" y2="198.15"/><line class="cls-3" x1="77.02" y1="98.32" x2="885.24" y2="98.32"/><text class="cls-4" transform="translate(747.56 633.93)">FY 2016</text><text class="cls-4" transform="translate(580.23 633.93)">FY 2015</text><text class="cls-4" transform="translate(426.06 633.93)">FY 2014</text><text class="cls-4" transform="translate(259.9 633.93)">FY 2013</text><text class="cls-4" transform="translate(98.73 633.93)">FY 2012</text><text class="cls-5" transform="translate(229.97 80.12)">278 Million</text></g><g id="Layer_3" data-name="Layer 3"><polygon class="cls-6" points="93.84 248.07 221.68 245.07 221.68 597.48 93.84 597.48 93.84 248.07"/><rect class="cls-6" x="253.64" y="183.17" width="127.84" height="414.31"/><rect class="cls-6" x="413.44" y="165.2" width="127.84" height="432.28"/><rect class="cls-6" x="573.24" y="143.24" width="127.84" height="454.25"/><rect class="cls-7" x="732.84" y="39.41" width="127.84" height="558.07"/></g></svg>