<?xml version="1.0" encoding="utf-8"?>
<!-- Generator: Adobe Illustrator 21.0.2,  SVG Export Plug-In . SVG Version: 6.00 Build 0)  -->
<svg version="1.1" xmlns="http://www.w3.org/2000/svg" xmlns:xlink="http://www.w3.org/1999/xlink" x="0px" y="0px"
	 viewBox="0 0 501 501" style="enable-background:new 0 0 501 501;" xml:space="preserve">
<g id="Layer_1_copy">
	<path style="fill:#538EBD;" d="M221.6,151.4l206.9-67.2c-45.8-48.8-109.9-76.7-177-76.7c-32.4,0-63.8,6.3-93.4,18.7v180.2
		c3-6.4,6.7-12.5,11-18.2C182.2,170.7,200.9,157.6,221.6,151.4z"/>
	<path style="fill:#7E3536;" d="M8.9,250.1c0,6.5,0.3,13.1,0.8,19.7l171.4,55.7c-20.4-19.1-32.7-46.2-32.7-75.4V30.4
		C63.4,70.3,8.9,155.7,8.9,250.1z"/>
	<path style="fill:#2D655E;" d="M435.6,92l-171.4,55.7c28.1,3.5,53.9,18.5,70.8,41.7l0.7,1l128.4,176.7
		c19.7-35.7,30.1-76,30.1-117.1C494.2,192,473.4,136,435.6,92z"/>
	<path style="fill:#92AECF;" d="M195.5,486.2l106-146c-15.1,8.4-32.3,13-50,13c-11.6,0-23-1.9-33.8-5.7L10.8,280.3
		C23.2,380.9,96.5,462.8,195.5,486.2z"/>
	<path style="fill:#887639;" d="M251.5,492.7c84.2,0,163.3-44.5,207.2-116.4L352.8,230.5c1.2,6.4,1.8,12.9,1.8,19.5
		c0,22-6.8,42.9-19.7,60.7L205.9,488.4C220.9,491.3,236.2,492.7,251.5,492.7z"/>
	<circle style="fill:#D1D3D4;" cx="251.8" cy="250.9" r="80.8"/>
	<circle style="fill:#FFFFFF;" cx="252.1" cy="251.8" r="59.5"/>
</g>
<g id="CEO_and_IBB_text">
	<g>
		<path style="fill:#4D4D4F;" d="M203.8,293.8l1.4,1.6l-8.6,7.6l-1.4-1.6L203.8,293.8z"/>
		<path style="fill:#4D4D4F;" d="M202,291.9l-9.3,6.6l-2.3-3.3c-0.4-0.6-0.8-1.2-1-1.7c-0.2-0.5-0.3-1-0.3-1.4
			c0-0.4,0.1-0.8,0.3-1.2c0.2-0.3,0.5-0.7,0.9-0.9c0.2-0.2,0.5-0.3,0.7-0.3c0.2-0.1,0.5-0.1,0.8-0.1c0.3,0,0.6,0.1,0.8,0.2
			c0.3,0.1,0.6,0.3,0.9,0.5c-0.6-1.5-0.4-2.7,0.7-3.4c0.4-0.3,0.8-0.5,1.3-0.6c0.4-0.1,0.9-0.1,1.3,0.1c0.5,0.1,0.9,0.3,1.3,0.7
			c0.4,0.3,0.9,0.8,1.3,1.3L202,291.9z M195.5,293.9l-1-1.4c-0.4-0.6-0.9-1-1.3-1.1c-0.4-0.2-0.9-0.1-1.4,0.3
			c-0.5,0.3-0.7,0.7-0.7,1.2c0,0.4,0.2,0.9,0.6,1.5l1.1,1.5L195.5,293.9z M196.7,293.1l2.7-1.9l-1.3-1.8c-0.2-0.3-0.5-0.6-0.7-0.7
			c-0.2-0.2-0.5-0.3-0.7-0.3c-0.2,0-0.4,0-0.7,0c-0.2,0.1-0.4,0.2-0.6,0.3c-0.2,0.1-0.4,0.3-0.5,0.5c-0.1,0.2-0.2,0.4-0.2,0.6
			c0,0.2,0,0.5,0.1,0.7c0.1,0.3,0.3,0.5,0.5,0.9L196.7,293.1z"/>
		<path style="fill:#4D4D4F;" d="M196.2,283.4l-10.3,5.1l-1.8-3.6c-0.3-0.7-0.6-1.3-0.7-1.8c-0.1-0.5-0.1-1,0-1.5
			c0.1-0.4,0.3-0.8,0.5-1.1c0.3-0.3,0.6-0.6,1-0.8c0.2-0.1,0.5-0.2,0.7-0.2c0.3,0,0.5,0,0.8,0c0.3,0.1,0.5,0.2,0.8,0.3
			c0.3,0.2,0.5,0.4,0.8,0.6c-0.4-1.6,0-2.7,1.2-3.3c0.4-0.2,0.9-0.3,1.3-0.4c0.5,0,0.9,0.1,1.3,0.3c0.4,0.2,0.8,0.5,1.2,0.9
			c0.4,0.4,0.7,0.9,1,1.5L196.2,283.4z M189.4,284.4l-0.8-1.5c-0.3-0.7-0.7-1.1-1.1-1.3c-0.4-0.2-0.9-0.2-1.4,0.1
			c-0.5,0.3-0.8,0.6-0.9,1c-0.1,0.4,0.1,1,0.4,1.6l0.8,1.7L189.4,284.4z M190.7,283.7l3-1.5l-1-2c-0.2-0.4-0.4-0.6-0.6-0.8
			c-0.2-0.2-0.4-0.3-0.6-0.4c-0.2-0.1-0.4-0.1-0.7-0.1c-0.2,0-0.4,0.1-0.7,0.2c-0.2,0.1-0.4,0.2-0.5,0.4c-0.1,0.2-0.2,0.3-0.3,0.6
			c0,0.2,0,0.5,0,0.7c0.1,0.3,0.2,0.6,0.3,0.9L190.7,283.7z"/>
		<path style="fill:#4D4D4F;" d="M191.7,273.5c0.1,0,0.3,0,0.4,0.1c0.1,0,0.2,0.1,0.3,0.2c0.1,0.1,0.2,0.2,0.2,0.2
			c0.1,0.1,0.1,0.2,0.1,0.3l0.3,0.8l-12.7-0.5c-0.2,0-0.4-0.1-0.6-0.2c-0.2-0.1-0.3-0.3-0.4-0.5L179,273L191.7,273.5z"/>
		<path style="fill:#4D4D4F;" d="M176.8,262.7l1.7-0.4l0.8,3.4l9.5-2.1l0.5,2.1l-9.5,2.1l0.8,3.4l-1.7,0.4L176.8,262.7z"/>
		<path style="fill:#4D4D4F;" d="M178,253.6c0.1,0,0.2,0.1,0.3,0.2c0.1,0.1,0.1,0.2,0.1,0.3c0,0.1,0,0.2-0.1,0.4
			c-0.1,0.1-0.1,0.3-0.2,0.5c-0.1,0.2-0.2,0.4-0.2,0.7c-0.1,0.3-0.1,0.5,0,0.9c0,0.3,0.1,0.6,0.2,0.8c0.1,0.2,0.2,0.4,0.3,0.5
			c0.1,0.1,0.3,0.2,0.5,0.3c0.2,0.1,0.4,0.1,0.6,0.1c0.3,0,0.5-0.1,0.7-0.3c0.2-0.2,0.3-0.4,0.4-0.6c0.1-0.3,0.2-0.6,0.3-0.9
			c0.1-0.3,0.2-0.7,0.2-1c0.1-0.3,0.2-0.7,0.3-1c0.1-0.3,0.3-0.6,0.5-0.9c0.2-0.3,0.5-0.5,0.8-0.7c0.3-0.2,0.7-0.3,1.2-0.3
			c0.5,0,1,0,1.5,0.1c0.5,0.1,0.9,0.4,1.2,0.7c0.4,0.3,0.7,0.7,0.9,1.2c0.2,0.5,0.4,1,0.4,1.7c0,0.4,0,0.7,0,1.1
			c0,0.4-0.1,0.7-0.2,1.1c-0.1,0.3-0.2,0.7-0.4,1c-0.2,0.3-0.3,0.6-0.5,0.8l-1.1-0.5c-0.1-0.1-0.1-0.1-0.2-0.2
			c-0.1-0.1-0.1-0.2-0.1-0.3c0-0.1,0-0.3,0.1-0.4c0.1-0.2,0.2-0.4,0.3-0.6c0.1-0.2,0.2-0.5,0.3-0.8c0.1-0.3,0.1-0.6,0.1-1
			c-0.1-0.6-0.2-1.1-0.6-1.4c-0.3-0.3-0.7-0.4-1.3-0.4c-0.3,0-0.5,0.1-0.7,0.3c-0.2,0.2-0.3,0.4-0.4,0.6c-0.1,0.3-0.2,0.6-0.3,0.9
			c-0.1,0.3-0.1,0.7-0.2,1c-0.1,0.3-0.2,0.7-0.3,1c-0.1,0.3-0.3,0.6-0.5,0.9c-0.2,0.3-0.5,0.5-0.8,0.7c-0.3,0.2-0.8,0.3-1.3,0.3
			c-0.4,0-0.8,0-1.2-0.1c-0.4-0.1-0.8-0.4-1.1-0.6c-0.3-0.3-0.6-0.7-0.8-1.1c-0.2-0.5-0.4-1-0.4-1.6c-0.1-0.7,0-1.3,0.2-1.9
			c0.2-0.6,0.4-1.1,0.8-1.6L178,253.6z"/>
		<path style="fill:#4D4D4F;" d="M187.4,248l0,2.2l-11.5-0.2l0-2.2L187.4,248z"/>
		<path style="fill:#4D4D4F;" d="M187.8,230.4c0-0.1,0.1-0.2,0.2-0.2l0.8-0.4c0.4,0.6,0.7,1.2,0.8,2c0.1,0.7,0.1,1.5-0.1,2.5
			c-0.2,0.8-0.5,1.5-0.9,2.1c-0.4,0.6-1,1.1-1.6,1.4c-0.6,0.3-1.3,0.6-2,0.7c-0.8,0.1-1.5,0-2.4-0.2c-0.8-0.2-1.6-0.5-2.2-1
			c-0.6-0.4-1.1-1-1.5-1.6c-0.4-0.6-0.6-1.3-0.7-2.1c-0.1-0.8-0.1-1.6,0.1-2.4c0.2-0.8,0.5-1.5,0.9-2c0.4-0.5,0.9-1,1.4-1.3l0.6,0.7
			c0,0,0.1,0.1,0.1,0.2c0,0.1,0,0.1,0,0.2c0,0.1-0.1,0.1-0.1,0.2c-0.1,0.1-0.1,0.1-0.2,0.2c-0.1,0.1-0.2,0.2-0.3,0.3
			c-0.1,0.1-0.2,0.3-0.4,0.4c-0.1,0.2-0.2,0.4-0.3,0.6c-0.1,0.2-0.2,0.5-0.3,0.9c-0.1,0.6-0.2,1.2-0.1,1.7c0.1,0.5,0.3,1,0.6,1.5
			c0.3,0.4,0.7,0.8,1.2,1.2c0.5,0.3,1.1,0.6,1.7,0.7c0.7,0.2,1.3,0.2,1.9,0.1c0.6-0.1,1.1-0.2,1.6-0.5c0.5-0.3,0.8-0.6,1.1-1
			c0.3-0.4,0.5-0.9,0.7-1.5c0.1-0.3,0.1-0.6,0.2-0.9c0-0.3,0-0.5,0-0.8c0-0.2-0.1-0.5-0.2-0.7c-0.1-0.2-0.2-0.5-0.3-0.7
			C187.8,230.6,187.8,230.5,187.8,230.4z"/>
		<path style="fill:#4D4D4F;" d="M184.6,222.5c0.2-0.6,0.5-1,0.9-1.4c0.4-0.4,0.8-0.6,1.2-0.8c0.5-0.2,1-0.2,1.5-0.2
			c0.5,0,1.1,0.2,1.7,0.4c0.6,0.2,1.1,0.5,1.5,0.9c0.4,0.4,0.7,0.8,0.9,1.2c0.2,0.4,0.3,0.9,0.3,1.4c0,0.5-0.1,1.1-0.3,1.6
			c-0.2,0.6-0.5,1-0.9,1.4c-0.4,0.4-0.8,0.6-1.2,0.8c-0.5,0.2-1,0.3-1.5,0.2c-0.5,0-1.1-0.2-1.7-0.4c-0.6-0.2-1.1-0.5-1.5-0.9
			c-0.4-0.4-0.7-0.8-0.9-1.2c-0.2-0.4-0.3-0.9-0.3-1.5C184.3,223.6,184.4,223.1,184.6,222.5z M191.2,225.2c0.3-0.7,0.3-1.4-0.1-2
			c-0.3-0.6-1-1-1.8-1.4c-0.9-0.4-1.7-0.5-2.3-0.3c-0.6,0.2-1.1,0.6-1.4,1.4c-0.2,0.4-0.2,0.7-0.2,1.1c0,0.3,0.1,0.6,0.3,0.9
			c0.2,0.3,0.4,0.5,0.7,0.8c0.3,0.2,0.7,0.4,1.1,0.6c0.4,0.2,0.9,0.3,1.2,0.3c0.4,0,0.7,0,1-0.1c0.3-0.1,0.6-0.2,0.8-0.5
			C190.9,225.9,191.1,225.6,191.2,225.2z"/>
		<path style="fill:#4D4D4F;" d="M194.4,220.5l-7-3.9l0.4-0.7c0.1-0.1,0.2-0.2,0.2-0.2c0.1,0,0.2,0,0.3,0l1.1,0.5
			c-0.4-0.5-0.6-1-0.7-1.5c-0.1-0.5,0-1,0.3-1.5c0.1-0.2,0.2-0.4,0.4-0.5c0.1-0.1,0.3-0.2,0.4-0.3l0.8,0.7c0.1,0.1,0.1,0.2,0.1,0.3
			c0,0.1-0.1,0.2-0.2,0.3c-0.1,0.1-0.2,0.3-0.4,0.5c-0.2,0.4-0.3,0.9-0.2,1.3c0.1,0.4,0.3,0.9,0.7,1.3l4.5,2.5L194.4,220.5z"/>
		<path style="fill:#4D4D4F;" d="M199.8,216.5l-8.7-6.3l0.5-0.7c0.1-0.2,0.3-0.2,0.5-0.1l0.8,0.5c-0.1-0.5-0.2-1-0.1-1.6
			c0.1-0.5,0.3-1,0.6-1.5c0.3-0.4,0.6-0.7,1-0.9c0.4-0.2,0.8-0.3,1.2-0.3c0.4,0,0.9,0.1,1.4,0.2c0.5,0.2,1,0.5,1.6,0.9
			c0.5,0.3,0.9,0.7,1.2,1.2c0.3,0.4,0.5,0.9,0.7,1.3c0.1,0.5,0.2,0.9,0.1,1.4c-0.1,0.5-0.3,0.9-0.6,1.4c-0.3,0.4-0.6,0.7-1,0.9
			c-0.3,0.2-0.7,0.3-1.1,0.4l2.9,2.1L199.8,216.5z M194,207.9c-0.3,0.4-0.4,0.8-0.5,1.2c0,0.4,0,0.8,0.2,1.3l3.2,2.3
			c0.4,0,0.8-0.1,1.1-0.3c0.3-0.2,0.6-0.4,0.8-0.7c0.4-0.6,0.6-1.2,0.4-1.9c-0.2-0.6-0.7-1.3-1.5-1.8c-0.4-0.3-0.8-0.5-1.2-0.7
			c-0.4-0.1-0.7-0.2-1-0.2c-0.3,0-0.6,0.1-0.8,0.2C194.4,207.4,194.2,207.6,194,207.9z"/>
		<path style="fill:#4D4D4F;" d="M199.2,199.9c0.4-0.4,0.9-0.8,1.3-1c0.5-0.2,1-0.3,1.4-0.3c0.5,0,1,0.1,1.5,0.3
			c0.5,0.2,1,0.5,1.4,1c0.5,0.4,0.8,0.9,1.1,1.4c0.2,0.5,0.4,1,0.4,1.5c0,0.5-0.1,1-0.2,1.5c-0.2,0.5-0.5,0.9-0.9,1.4
			c-0.4,0.4-0.9,0.8-1.3,1c-0.5,0.2-1,0.3-1.4,0.3c-0.5,0-1-0.1-1.5-0.3c-0.5-0.2-1-0.5-1.4-1c-0.5-0.4-0.8-0.9-1.1-1.4
			c-0.2-0.5-0.4-1-0.4-1.5c0-0.5,0.1-1,0.2-1.5C198.4,200.8,198.7,200.4,199.2,199.9z M204.3,204.9c0.6-0.6,0.8-1.2,0.7-1.9
			c-0.1-0.7-0.5-1.3-1.2-2c-0.7-0.7-1.4-1-2-1.1c-0.7-0.1-1.3,0.2-1.8,0.8c-0.3,0.3-0.5,0.6-0.6,0.9c-0.1,0.3-0.1,0.6-0.1,1
			c0.1,0.3,0.2,0.7,0.4,1c0.2,0.3,0.5,0.7,0.8,1c0.3,0.3,0.7,0.6,1,0.8c0.3,0.2,0.7,0.3,1,0.3c0.3,0,0.6,0,0.9-0.1
			S204.1,205.2,204.3,204.9z"/>
		<path style="fill:#4D4D4F;" d="M209,201.7l-5.1-6.2l0.6-0.5c0.1-0.1,0.2-0.1,0.3-0.1c0.1,0,0.2,0.1,0.3,0.2l0.9,0.9
			c-0.1-0.6-0.2-1.2,0-1.7c0.1-0.5,0.4-0.9,0.8-1.3c0.2-0.1,0.3-0.3,0.5-0.3c0.2-0.1,0.3-0.1,0.5-0.2l0.5,0.9c0.1,0.1,0,0.2-0.1,0.3
			c-0.1,0-0.2,0.1-0.3,0.2c-0.2,0.1-0.3,0.2-0.5,0.4c-0.4,0.3-0.6,0.7-0.7,1.1c-0.1,0.4,0,0.9,0.1,1.5l3.3,3.9L209,201.7z"/>
		<path style="fill:#4D4D4F;" d="M218.7,194.5l-0.5,0.4c-0.1,0.1-0.2,0.1-0.3,0.1c-0.1,0-0.2,0-0.3-0.1l-0.5-0.5
			c-0.1,0.3-0.2,0.5-0.2,0.8c-0.1,0.2-0.2,0.5-0.3,0.7c-0.1,0.2-0.3,0.4-0.5,0.6c-0.2,0.2-0.4,0.4-0.7,0.5c-0.3,0.2-0.5,0.3-0.8,0.4
			c-0.3,0.1-0.6,0.1-0.8,0.1c-0.3,0-0.5-0.1-0.8-0.3c-0.2-0.2-0.5-0.4-0.7-0.7c-0.2-0.3-0.3-0.6-0.3-0.9c0-0.3,0.1-0.7,0.3-1.1
			c0.2-0.4,0.5-0.8,1-1.3s1.1-1,1.8-1.5l-0.3-0.5c-0.3-0.5-0.7-0.8-1.1-1c-0.4-0.1-0.8,0-1.3,0.3c-0.3,0.2-0.5,0.4-0.7,0.6
			c-0.2,0.2-0.3,0.4-0.4,0.6c-0.1,0.2-0.2,0.4-0.2,0.5c-0.1,0.1-0.1,0.2-0.2,0.3c-0.1,0.1-0.2,0.1-0.3,0.1c-0.1,0-0.2,0-0.2-0.1
			l-0.5-0.2c0.1-0.6,0.4-1.1,0.7-1.6c0.3-0.5,0.7-0.9,1.3-1.2c0.4-0.3,0.8-0.4,1.1-0.5c0.4-0.1,0.7-0.1,1.1,0c0.3,0.1,0.7,0.3,1,0.5
			c0.3,0.2,0.6,0.6,0.8,0.9L218.7,194.5z M215.2,195.8c0.2-0.1,0.4-0.3,0.5-0.4c0.1-0.2,0.3-0.3,0.4-0.5c0.1-0.2,0.2-0.4,0.3-0.6
			c0.1-0.2,0.1-0.4,0.2-0.7l-0.9-1.4c-0.5,0.4-1,0.7-1.3,1.1c-0.3,0.3-0.6,0.6-0.8,0.9c-0.2,0.3-0.3,0.5-0.3,0.7
			c0,0.2,0,0.4,0.2,0.6c0.1,0.2,0.2,0.3,0.4,0.4c0.1,0.1,0.3,0.1,0.4,0.2c0.2,0,0.3,0,0.5-0.1C214.9,196,215,196,215.2,195.8z"/>
		<path style="fill:#4D4D4F;" d="M222.9,192.5c-0.6,0.3-1.1,0.4-1.6,0.2c-0.5-0.2-0.9-0.5-1.2-1.1l-2.3-4.4l-0.9,0.5
			c-0.1,0-0.2,0.1-0.2,0c-0.1,0-0.1-0.1-0.2-0.2l-0.3-0.5l1.1-0.8l-0.8-2.4c0-0.1,0-0.1,0-0.2c0-0.1,0.1-0.1,0.2-0.2l0.6-0.3
			l1.3,2.5l2.1-1.1l0.5,0.9l-2.1,1.1l2.2,4.3c0.2,0.3,0.3,0.5,0.6,0.6c0.2,0.1,0.5,0,0.7-0.1c0.1-0.1,0.2-0.1,0.3-0.2
			c0.1-0.1,0.1-0.2,0.2-0.2c0.1-0.1,0.1-0.1,0.1-0.2c0-0.1,0.1-0.1,0.1-0.1c0.1,0,0.1,0,0.2,0l0.7,0.4c-0.1,0.3-0.3,0.6-0.5,0.9
			C223.5,192.1,223.2,192.3,222.9,192.5z"/>
		<path style="fill:#4D4D4F;" d="M226,182.1c0.5-0.2,0.9-0.3,1.4-0.3c0.4,0,0.9,0.1,1.2,0.3c0.4,0.2,0.7,0.4,1.1,0.8
			c0.3,0.4,0.6,0.8,0.8,1.3c0.1,0.2,0.1,0.4,0.1,0.4c0,0.1-0.1,0.2-0.2,0.2l-5.1,1.9c0.2,0.5,0.4,0.9,0.7,1.2
			c0.3,0.3,0.5,0.5,0.8,0.7c0.3,0.2,0.6,0.2,1,0.2c0.3,0,0.7-0.1,1-0.2c0.3-0.1,0.6-0.3,0.8-0.4c0.2-0.2,0.4-0.3,0.5-0.5
			c0.1-0.2,0.3-0.3,0.3-0.4c0.1-0.1,0.2-0.2,0.3-0.2c0.1,0,0.2,0,0.3,0l0.6,0.3c-0.1,0.3-0.2,0.5-0.4,0.7c-0.2,0.2-0.4,0.4-0.6,0.6
			c-0.2,0.2-0.5,0.4-0.7,0.5c-0.3,0.2-0.5,0.3-0.8,0.4c-0.5,0.2-1,0.3-1.6,0.3c-0.5,0-1-0.1-1.4-0.3c-0.5-0.2-0.9-0.5-1.2-1
			c-0.4-0.4-0.7-1-0.9-1.6c-0.2-0.5-0.3-1-0.3-1.6c0-0.5,0.1-1,0.3-1.5c0.2-0.5,0.5-0.9,0.8-1.2C225,182.6,225.4,182.3,226,182.1z
			 M226.4,183c-0.6,0.2-1.1,0.6-1.3,1.1c-0.2,0.5-0.3,1.1-0.1,1.8l4.1-1.6c-0.1-0.3-0.3-0.6-0.4-0.8c-0.2-0.2-0.4-0.4-0.6-0.5
			c-0.2-0.1-0.5-0.2-0.8-0.2C227,182.8,226.7,182.9,226.4,183z"/>
		<path style="fill:#4D4D4F;" d="M241.9,174.7l0.2,1.2l-5.4,1l0.7,3.9l4.7-0.9l0.2,1.2l-4.7,0.9l0.9,4.8l-1.5,0.3l-2.1-11.2
			L241.9,174.7z"/>
		<path style="fill:#4D4D4F;" d="M246,177.7l0.3,5.1c0,0.6,0.2,1.1,0.5,1.4c0.3,0.3,0.7,0.5,1.3,0.4c0.4,0,0.8-0.1,1.2-0.4
			c0.4-0.2,0.7-0.5,1-0.9l-0.3-5.9l1.4-0.1l0.4,8l-0.9,0c-0.2,0-0.3-0.1-0.4-0.3l-0.2-0.9c-0.3,0.4-0.7,0.7-1.1,1
			c-0.4,0.3-0.9,0.4-1.5,0.4c-0.4,0-0.8,0-1.2-0.2c-0.3-0.1-0.6-0.3-0.9-0.6c-0.2-0.3-0.4-0.6-0.6-0.9c-0.1-0.4-0.2-0.8-0.2-1.2
			l-0.3-5.1L246,177.7z"/>
		<path style="fill:#4D4D4F;" d="M254,185.4l0.6-8l0.8,0.1c0.2,0,0.3,0.1,0.4,0.3l0,0.9c0.4-0.4,0.8-0.6,1.3-0.8
			c0.5-0.2,1-0.3,1.5-0.2c0.4,0,0.8,0.1,1.2,0.3c0.3,0.2,0.6,0.4,0.8,0.7c0.2,0.3,0.4,0.6,0.4,1c0.1,0.4,0.1,0.8,0.1,1.3l-0.4,5.1
			l-1.4-0.1l0.4-5.1c0-0.6-0.1-1.1-0.3-1.4c-0.3-0.4-0.7-0.6-1.2-0.6c-0.4,0-0.8,0-1.2,0.2c-0.4,0.2-0.7,0.4-1.1,0.7l-0.5,5.9
			L254,185.4z"/>
		<path style="fill:#4D4D4F;" d="M269.5,181c-0.1,0-0.1,0.1-0.2,0.1c0,0-0.1,0-0.2,0c-0.1,0-0.2-0.1-0.2-0.2
			c-0.1-0.1-0.2-0.2-0.3-0.3c-0.1-0.1-0.3-0.2-0.5-0.3c-0.2-0.1-0.4-0.2-0.7-0.3c-0.4-0.1-0.7-0.1-1.1,0c-0.3,0.1-0.6,0.2-0.9,0.4
			c-0.3,0.2-0.5,0.5-0.7,0.8c-0.2,0.3-0.3,0.7-0.4,1.2c-0.1,0.5-0.1,0.9-0.1,1.3c0,0.4,0.1,0.7,0.3,1c0.1,0.3,0.4,0.5,0.6,0.7
			c0.3,0.2,0.6,0.3,0.9,0.4c0.3,0.1,0.6,0.1,0.9,0.1c0.2,0,0.4-0.1,0.6-0.2c0.2-0.1,0.3-0.1,0.4-0.2c0.1-0.1,0.2-0.1,0.3-0.1
			c0.1,0,0.2,0.1,0.2,0.2l0.3,0.6c-0.4,0.3-0.9,0.6-1.5,0.7c-0.6,0.1-1.1,0.1-1.7,0c-0.5-0.1-0.9-0.3-1.3-0.6c-0.4-0.3-0.7-0.6-1-1
			c-0.2-0.4-0.4-0.9-0.5-1.4c-0.1-0.5-0.1-1.1,0.1-1.8c0.1-0.6,0.3-1.1,0.6-1.6c0.3-0.5,0.6-0.8,1-1.1c0.4-0.3,0.8-0.5,1.4-0.6
			c0.5-0.1,1.1-0.1,1.7,0c0.6,0.1,1,0.3,1.4,0.6c0.4,0.3,0.7,0.6,1,1L269.5,181z"/>
		<path style="fill:#4D4D4F;" d="M272.3,188.8c-0.6-0.2-1-0.5-1.3-1c-0.2-0.4-0.2-1,0-1.6l1.5-4.7l-0.9-0.3c-0.1,0-0.1-0.1-0.2-0.1
			c0-0.1,0-0.1,0-0.2l0.2-0.5l1.3,0.2l1.1-2.3c0-0.1,0.1-0.1,0.2-0.2c0.1,0,0.2,0,0.2,0l0.7,0.2l-0.8,2.6l2.2,0.7l-0.3,1l-2.2-0.7
			l-1.4,4.6c-0.1,0.3-0.1,0.6,0,0.8c0.1,0.2,0.3,0.3,0.5,0.4c0.1,0,0.3,0.1,0.4,0.1c0.1,0,0.2,0,0.3,0c0.1,0,0.2,0,0.2-0.1
			c0.1,0,0.1,0,0.2,0c0.1,0,0.1,0.1,0.2,0.2l0.2,0.8c-0.3,0.1-0.6,0.2-1,0.2C273,189,272.7,189,272.3,188.8z"/>
		<path style="fill:#4D4D4F;" d="M280.2,183l-3,7.5l-1.3-0.5l3-7.5L280.2,183z M281.4,180.8c-0.1,0.1-0.1,0.2-0.2,0.3
			c-0.1,0.1-0.2,0.2-0.3,0.2c-0.1,0.1-0.2,0.1-0.4,0.1c-0.1,0-0.3,0-0.4-0.1c-0.1-0.1-0.2-0.1-0.3-0.2c-0.1-0.1-0.2-0.2-0.2-0.3
			c-0.1-0.1-0.1-0.2-0.1-0.4c0-0.1,0-0.3,0.1-0.4c0.1-0.1,0.1-0.2,0.2-0.3c0.1-0.1,0.2-0.2,0.3-0.2c0.1-0.1,0.2-0.1,0.4-0.1
			c0.1,0,0.3,0,0.4,0.1c0.1,0.1,0.2,0.1,0.3,0.2c0.1,0.1,0.2,0.2,0.2,0.3c0.1,0.1,0.1,0.2,0.1,0.4
			C281.5,180.6,281.5,180.7,281.4,180.8z"/>
		<path style="fill:#4D4D4F;" d="M286.2,185.7c0.5,0.3,1,0.6,1.3,1c0.3,0.4,0.6,0.8,0.7,1.3c0.1,0.5,0.2,1,0.1,1.5
			c-0.1,0.5-0.3,1.1-0.5,1.6c-0.3,0.6-0.6,1-1,1.4c-0.4,0.4-0.8,0.6-1.3,0.8c-0.5,0.2-1,0.2-1.5,0.2c-0.5-0.1-1-0.2-1.6-0.5
			s-1-0.6-1.3-1c-0.3-0.4-0.6-0.8-0.7-1.3c-0.1-0.5-0.2-1-0.1-1.5c0.1-0.5,0.3-1.1,0.5-1.6c0.3-0.6,0.6-1,1-1.4
			c0.4-0.4,0.8-0.6,1.3-0.8c0.5-0.2,1-0.2,1.5-0.2C285.1,185.3,285.7,185.4,286.2,185.7z M282.9,192.1c0.7,0.4,1.4,0.4,2,0.1
			c0.6-0.3,1.1-0.9,1.6-1.7c0.4-0.8,0.6-1.6,0.5-2.3c-0.1-0.7-0.5-1.2-1.2-1.5c-0.4-0.2-0.7-0.3-1-0.3c-0.3,0-0.6,0-0.9,0.2
			c-0.3,0.1-0.6,0.4-0.8,0.6s-0.5,0.6-0.7,1.1c-0.2,0.4-0.4,0.8-0.5,1.2c-0.1,0.4-0.1,0.7,0,1c0.1,0.3,0.2,0.6,0.4,0.9
			C282.3,191.6,282.5,191.9,282.9,192.1z"/>
		<path style="fill:#4D4D4F;" d="M287.3,195.6l4.6-6.6l0.7,0.5c0.2,0.1,0.2,0.3,0.1,0.5l-0.4,0.8c0.5-0.1,1-0.1,1.5-0.1
			c0.5,0.1,1,0.2,1.4,0.6c0.4,0.3,0.6,0.5,0.8,0.9c0.2,0.3,0.3,0.6,0.3,1c0,0.3,0,0.7-0.1,1.1c-0.1,0.4-0.3,0.7-0.6,1.1l-2.9,4.2
			l-1.2-0.8l2.9-4.2c0.3-0.5,0.5-1,0.5-1.4c0-0.4-0.3-0.8-0.8-1.2c-0.3-0.2-0.7-0.4-1.1-0.4c-0.4,0-0.9,0-1.3,0.1l-3.4,4.8
			L287.3,195.6z"/>
		<path style="fill:#4D4D4F;" d="M302.4,199c-0.1,0-0.2,0-0.3-0.1c-0.1-0.1-0.1-0.1-0.1-0.2c0-0.1-0.1-0.2-0.1-0.4
			c-0.1-0.2-0.2-0.3-0.3-0.5c-0.1-0.2-0.3-0.4-0.5-0.6c-0.2-0.2-0.4-0.3-0.5-0.4s-0.4-0.1-0.5-0.1c-0.2,0-0.3,0-0.5,0.1
			c-0.1,0.1-0.3,0.1-0.4,0.3c-0.1,0.2-0.2,0.3-0.2,0.5c0,0.2,0,0.4,0.1,0.6c0.1,0.2,0.2,0.4,0.3,0.6c0.1,0.2,0.3,0.5,0.4,0.7
			c0.1,0.2,0.3,0.5,0.4,0.7c0.1,0.2,0.2,0.5,0.2,0.7c0,0.3,0,0.5,0,0.8c-0.1,0.3-0.2,0.5-0.4,0.7c-0.2,0.3-0.5,0.5-0.8,0.6
			c-0.3,0.1-0.6,0.2-1,0.2c-0.3,0-0.7-0.1-1.1-0.2c-0.4-0.2-0.7-0.4-1.1-0.7c-0.4-0.4-0.7-0.8-1-1.2c-0.2-0.4-0.4-0.9-0.4-1.3
			l0.6-0.2c0.1,0,0.2,0,0.2,0c0.1,0,0.1,0.1,0.2,0.1c0.1,0.1,0.1,0.2,0.2,0.3c0,0.1,0.1,0.3,0.1,0.4c0.1,0.2,0.1,0.4,0.3,0.6
			c0.1,0.2,0.3,0.4,0.5,0.6c0.2,0.2,0.4,0.3,0.6,0.4c0.2,0.1,0.4,0.1,0.6,0.1c0.2,0,0.4,0,0.5-0.1c0.2-0.1,0.3-0.2,0.4-0.3
			c0.1-0.2,0.2-0.3,0.2-0.5c0-0.2,0-0.4-0.1-0.6c-0.1-0.2-0.2-0.4-0.3-0.7c-0.1-0.2-0.3-0.5-0.4-0.7c-0.1-0.2-0.3-0.5-0.4-0.7
			c-0.1-0.3-0.2-0.5-0.2-0.8c0-0.3,0-0.5,0-0.8c0.1-0.3,0.2-0.5,0.5-0.8c0.2-0.2,0.4-0.4,0.7-0.5c0.3-0.1,0.6-0.2,0.9-0.2
			c0.3,0,0.7,0.1,1,0.2c0.4,0.1,0.7,0.4,1,0.7c0.4,0.4,0.7,0.7,0.9,1.1c0.2,0.4,0.3,0.8,0.4,1.2L302.4,199z"/>
		<path style="fill:#4D4D4F;" d="M313.3,204c0.3,0.3,0.4,0.7,0.6,1c0.1,0.4,0.2,0.7,0.1,1c0,0.3-0.1,0.7-0.2,1
			c-0.1,0.3-0.3,0.6-0.6,0.8l-0.7-0.6c0,0,0,0-0.1-0.1c0-0.1-0.1-0.1-0.1-0.2c0-0.1,0-0.1,0.1-0.2c0.1-0.1,0.2-0.2,0.2-0.4
			c0.1-0.2,0.1-0.3,0.1-0.5c0-0.2,0-0.4-0.1-0.6c-0.1-0.2-0.2-0.4-0.3-0.6c-0.2-0.2-0.3-0.4-0.5-0.5c-0.2-0.1-0.4-0.2-0.6-0.2
			c-0.2,0-0.4,0-0.6,0c-0.2,0.1-0.4,0.2-0.6,0.3c-0.1,0.1-0.3,0.2-0.4,0.4c-0.1,0.1-0.2,0.3-0.3,0.5c-0.1,0.2-0.1,0.4-0.2,0.6
			c-0.1,0.2-0.1,0.5-0.1,0.8l-0.6,4.7c0.4-0.1,0.8-0.2,1.2-0.3s0.7-0.3,1.1-0.5c0.1-0.1,0.2-0.1,0.2-0.1c0.1,0,0.1,0,0.2,0.1
			l0.5,0.7c-0.5,0.4-1,0.7-1.6,0.9c-0.6,0.2-1.2,0.3-1.8,0.4l-0.4,3.4l-0.8-1.1c-0.1-0.1-0.2-0.2-0.2-0.3c0-0.1,0-0.2,0-0.4l0.2-1.6
			c-0.7-0.1-1.3-0.3-2-0.7s-1.2-0.8-1.7-1.5c-0.3-0.3-0.5-0.7-0.6-1.1c-0.1-0.4-0.2-0.8-0.2-1.3c0-0.4,0.1-0.8,0.3-1.2
			c0.2-0.4,0.5-0.7,0.9-1c0.3-0.2,0.6-0.4,0.9-0.5c0.3-0.1,0.7-0.2,1-0.1c0.4,0,0.7,0.1,1.1,0.2c0.4,0.1,0.7,0.3,1.1,0.4
			c0.1-0.5,0.3-0.9,0.5-1.3c0.2-0.4,0.5-0.7,0.8-0.9c0.3-0.2,0.6-0.4,1-0.5c0.4-0.1,0.7-0.1,1.1-0.1c0.4,0.1,0.7,0.2,1.1,0.4
			C312.7,203.3,313,203.6,313.3,204z M304.8,206.6c-0.3,0.2-0.5,0.4-0.6,0.7c-0.1,0.3-0.2,0.5-0.2,0.8c0,0.3,0,0.5,0.1,0.8
			c0.1,0.3,0.2,0.5,0.4,0.7c0.4,0.5,0.8,0.8,1.2,1.1c0.5,0.2,1,0.4,1.5,0.5l0.6-4.8c-0.6-0.3-1.1-0.4-1.6-0.3
			C305.6,206.1,305.2,206.3,304.8,206.6z"/>
		<path style="fill:#4D4D4F;" d="M319.5,226.2c-0.8,0.4-1.5,0.6-2.3,0.6c-0.7,0.1-1.5,0-2.1-0.3c-0.7-0.2-1.3-0.6-1.8-1.1
			c-0.5-0.5-1-1.2-1.4-1.9l-1.8-3.9l10.3-4.9l1.8,3.9c0.4,0.8,0.6,1.5,0.6,2.3c0.1,0.7,0,1.5-0.3,2.1c-0.2,0.7-0.6,1.3-1.1,1.8
			C320.9,225.3,320.3,225.8,319.5,226.2z M318.8,224.7c0.6-0.3,1.2-0.7,1.6-1.1c0.4-0.4,0.7-0.9,0.9-1.3c0.2-0.5,0.3-1,0.2-1.5
			c0-0.5-0.2-1.1-0.4-1.6l-1.2-2.5l-8,3.8l1.2,2.5c0.3,0.6,0.6,1,1,1.4c0.4,0.4,0.8,0.6,1.3,0.8c0.5,0.2,1,0.2,1.6,0.1
			C317.6,225.2,318.2,225,318.8,224.7z"/>
		<path style="fill:#4D4D4F;" d="M322.9,229.3l-7.6,2.5l-0.5-1.4l7.6-2.5L322.9,229.3z M325.4,228.8c-0.1,0-0.3,0.1-0.4,0
			c-0.1,0-0.3-0.1-0.4-0.1c-0.1-0.1-0.2-0.1-0.3-0.2c-0.1-0.1-0.2-0.2-0.2-0.3c0-0.1-0.1-0.3,0-0.4c0-0.1,0-0.3,0.1-0.4
			c0.1-0.1,0.1-0.2,0.2-0.3c0.1-0.1,0.2-0.2,0.3-0.2c0.1,0,0.3-0.1,0.4,0c0.1,0,0.3,0,0.4,0.1c0.1,0.1,0.2,0.1,0.3,0.2
			c0.1,0.1,0.2,0.2,0.2,0.3c0,0.1,0.1,0.3,0,0.4c0,0.1,0,0.3-0.1,0.4c-0.1,0.1-0.1,0.2-0.2,0.3C325.7,228.7,325.6,228.8,325.4,228.8
			z"/>
		<path style="fill:#4D4D4F;" d="M323.7,237.3c-0.1,0-0.2-0.1-0.2-0.2c0-0.1,0-0.2,0-0.3c0-0.1,0.1-0.2,0.1-0.4
			c0-0.2,0.1-0.3,0.1-0.6c0-0.2,0-0.5-0.1-0.7c-0.1-0.2-0.1-0.4-0.2-0.6c-0.1-0.2-0.2-0.3-0.4-0.4c-0.1-0.1-0.3-0.2-0.4-0.2
			c-0.2,0-0.3,0-0.5,0c-0.2,0-0.4,0.1-0.5,0.3c-0.1,0.2-0.2,0.3-0.2,0.5c-0.1,0.2-0.1,0.5-0.1,0.7c0,0.3,0,0.5-0.1,0.8
			c0,0.3-0.1,0.6-0.1,0.8c0,0.3-0.1,0.5-0.2,0.8c-0.1,0.2-0.3,0.4-0.5,0.6c-0.2,0.2-0.4,0.3-0.8,0.4c-0.4,0.1-0.7,0.1-1,0
			c-0.3-0.1-0.6-0.2-0.9-0.4c-0.3-0.2-0.5-0.5-0.8-0.8c-0.2-0.3-0.4-0.8-0.5-1.2c-0.1-0.6-0.2-1.1-0.1-1.6c0.1-0.5,0.2-0.9,0.4-1.3
			l0.6,0.2c0.1,0,0.1,0.1,0.2,0.1c0.1,0,0.1,0.1,0.1,0.2c0,0.1,0,0.2,0,0.3c0,0.1-0.1,0.3-0.1,0.4c-0.1,0.2-0.1,0.4-0.1,0.6
			c0,0.2,0,0.5,0.1,0.8c0.1,0.3,0.2,0.5,0.3,0.7c0.1,0.2,0.3,0.3,0.4,0.4c0.2,0.1,0.3,0.2,0.5,0.2c0.2,0,0.3,0,0.5,0
			c0.2-0.1,0.4-0.2,0.5-0.3c0.1-0.2,0.2-0.3,0.2-0.6c0.1-0.2,0.1-0.5,0.1-0.7c0-0.3,0-0.5,0.1-0.8c0-0.3,0.1-0.6,0.1-0.8
			c0-0.3,0.1-0.5,0.2-0.8c0.1-0.2,0.3-0.4,0.5-0.6c0.2-0.2,0.5-0.3,0.8-0.4c0.3-0.1,0.6-0.1,0.9,0c0.3,0.1,0.6,0.2,0.9,0.4
			c0.3,0.2,0.5,0.4,0.7,0.8c0.2,0.3,0.4,0.7,0.5,1.2c0.1,0.5,0.2,1,0.1,1.5c-0.1,0.5-0.2,0.9-0.4,1.2L323.7,237.3z"/>
		<path style="fill:#4D4D4F;" d="M317.8,243.5c-0.1-0.6,0-1.2,0.3-1.5c0.3-0.4,0.8-0.6,1.4-0.7l4.9-0.7l-0.1-1c0-0.1,0-0.2,0-0.2
			c0-0.1,0.1-0.1,0.2-0.1l0.6-0.1l0.4,1.3l2.5,0c0.1,0,0.1,0,0.2,0.1c0.1,0.1,0.1,0.1,0.1,0.2l0.1,0.7l-2.7,0.4l0.3,2.3l-1,0.1
			l-0.3-2.3l-4.8,0.7c-0.3,0-0.6,0.2-0.7,0.4c-0.1,0.2-0.2,0.4-0.2,0.7c0,0.1,0.1,0.3,0.1,0.4c0.1,0.1,0.1,0.2,0.2,0.3
			c0.1,0.1,0.1,0.1,0.2,0.2c0,0,0.1,0.1,0.1,0.1c0,0.1,0,0.1-0.1,0.2l-0.6,0.5c-0.3-0.2-0.5-0.5-0.7-0.8
			C318,244.2,317.8,243.9,317.8,243.5z"/>
		<path style="fill:#4D4D4F;" d="M318.3,247l8-0.4l0,0.8c0,0.2,0,0.3-0.1,0.3c-0.1,0.1-0.2,0.1-0.3,0.1l-1.2,0.2
			c0.6,0.3,1,0.6,1.4,1c0.3,0.4,0.5,0.9,0.5,1.4c0,0.2,0,0.4,0,0.6c0,0.2-0.1,0.4-0.2,0.5l-1.1-0.1c-0.1,0-0.2-0.1-0.2-0.2
			c0-0.1,0-0.2,0.1-0.3c0-0.2,0.1-0.4,0-0.7c0-0.5-0.2-0.9-0.5-1.2c-0.3-0.3-0.7-0.6-1.3-0.8l-5.1,0.2L318.3,247z"/>
		<path style="fill:#4D4D4F;" d="M326.4,255.3l-8-0.3l0-1.4l8,0.3L326.4,255.3z M328.9,255.7c-0.1,0-0.3,0-0.4-0.1
			c-0.1-0.1-0.2-0.1-0.3-0.2c-0.1-0.1-0.2-0.2-0.2-0.3c0-0.1-0.1-0.3-0.1-0.4c0-0.1,0-0.3,0.1-0.4c0.1-0.1,0.1-0.2,0.2-0.3
			c0.1-0.1,0.2-0.2,0.3-0.2c0.1,0,0.2-0.1,0.4-0.1c0.1,0,0.3,0,0.4,0.1c0.1,0.1,0.2,0.1,0.3,0.2c0.1,0.1,0.2,0.2,0.2,0.3
			c0,0.1,0.1,0.3,0.1,0.4c0,0.1,0,0.3-0.1,0.4c-0.1,0.1-0.1,0.2-0.2,0.3c-0.1,0.1-0.2,0.2-0.3,0.2
			C329.2,255.7,329.1,255.7,328.9,255.7z"/>
		<path style="fill:#4D4D4F;" d="M318.3,257.6l11.6,1.6l-0.2,1.4l-4.8-0.6c0.3,0.4,0.6,0.8,0.8,1.3c0.2,0.5,0.2,1,0.1,1.5
			c-0.1,0.5-0.2,0.9-0.4,1.2c-0.2,0.4-0.5,0.6-0.9,0.9c-0.4,0.2-0.8,0.4-1.4,0.4c-0.5,0.1-1.1,0.1-1.8,0c-0.6-0.1-1.1-0.2-1.6-0.5
			c-0.5-0.2-0.9-0.5-1.2-0.9c-0.3-0.4-0.6-0.8-0.7-1.2c-0.2-0.5-0.2-1-0.1-1.5c0.1-0.5,0.2-1,0.5-1.3c0.2-0.3,0.6-0.6,1-0.8
			l-0.7-0.2c-0.2-0.1-0.3-0.2-0.2-0.4L318.3,257.6z M324.8,262.2c0.1-0.5,0-0.9-0.2-1.3c-0.2-0.4-0.4-0.7-0.8-1.1l-3.8-0.5
			c-0.4,0.2-0.7,0.5-0.8,0.8c-0.2,0.3-0.3,0.6-0.4,1c-0.1,0.8,0.1,1.4,0.6,1.8c0.5,0.5,1.2,0.8,2.2,0.9c0.5,0.1,1,0.1,1.4,0
			c0.4,0,0.7-0.1,1-0.3c0.3-0.1,0.5-0.3,0.6-0.6S324.8,262.5,324.8,262.2z"/>
		<path style="fill:#4D4D4F;" d="M324.4,269.6l-4.9-1.4c-0.6-0.2-1.1-0.1-1.5,0c-0.4,0.2-0.7,0.6-0.8,1.1c-0.1,0.4-0.1,0.8,0,1.2
			s0.3,0.8,0.5,1.2l5.7,1.6l-0.4,1.4l-7.7-2.1l0.2-0.8c0.1-0.2,0.2-0.3,0.4-0.3l0.9,0.1c-0.3-0.4-0.5-0.9-0.6-1.4
			c-0.1-0.5-0.1-1,0.1-1.6c0.1-0.4,0.3-0.8,0.5-1.1c0.2-0.3,0.5-0.5,0.8-0.7c0.3-0.2,0.7-0.2,1.1-0.2c0.4,0,0.8,0,1.2,0.2l4.9,1.4
			L324.4,269.6z"/>
		<path style="fill:#4D4D4F;" d="M313.4,277c0.2-0.6,0.6-1,1-1.2c0.5-0.2,1-0.2,1.6,0.1l4.6,1.8l0.4-0.9c0-0.1,0.1-0.1,0.2-0.2
			c0.1,0,0.2,0,0.2,0l0.5,0.2l-0.3,1.3l2.2,1.2c0.1,0,0.1,0.1,0.1,0.2c0,0.1,0,0.2,0,0.2l-0.3,0.7l-2.6-1l-0.9,2.2l-0.9-0.4l0.9-2.2
			l-4.5-1.8c-0.3-0.1-0.6-0.1-0.8,0c-0.2,0.1-0.4,0.3-0.5,0.5c-0.1,0.1-0.1,0.3-0.1,0.4c0,0.1,0,0.2,0,0.3c0,0.1,0,0.2,0,0.2
			c0,0.1,0,0.1,0,0.2c0,0.1-0.1,0.1-0.2,0.1l-0.8,0.1c-0.1-0.3-0.2-0.7-0.2-1C313.2,277.7,313.3,277.4,313.4,277z"/>
		<path style="fill:#4D4D4F;" d="M318.6,285.3l-7.2-3.6l0.6-1.3l7.2,3.6L318.6,285.3z M320.7,286.7c-0.1-0.1-0.2-0.1-0.3-0.2
			c-0.1-0.1-0.1-0.2-0.2-0.3c0-0.1-0.1-0.3-0.1-0.4c0-0.1,0-0.3,0.1-0.4s0.1-0.2,0.2-0.3c0.1-0.1,0.2-0.1,0.3-0.2
			c0.1,0,0.3-0.1,0.4-0.1c0.1,0,0.3,0,0.4,0.1c0.1,0.1,0.2,0.1,0.3,0.2c0.1,0.1,0.2,0.2,0.2,0.3c0,0.1,0.1,0.3,0.1,0.4
			s0,0.3-0.1,0.4c-0.1,0.1-0.1,0.2-0.2,0.3c-0.1,0.1-0.2,0.2-0.3,0.2c-0.1,0-0.3,0.1-0.4,0.1C320.9,286.8,320.8,286.8,320.7,286.7z"
			/>
		<path style="fill:#4D4D4F;" d="M315.4,291.1c-0.3,0.5-0.7,0.9-1.1,1.2c-0.4,0.3-0.9,0.5-1.4,0.6c-0.5,0.1-1,0.1-1.5,0
			c-0.5-0.1-1.1-0.3-1.6-0.7c-0.5-0.3-1-0.7-1.3-1.1c-0.3-0.4-0.6-0.9-0.7-1.3c-0.1-0.5-0.1-1,0-1.5c0.1-0.5,0.3-1,0.6-1.5
			c0.3-0.5,0.7-0.9,1.1-1.2c0.4-0.3,0.9-0.5,1.4-0.6c0.5-0.1,1-0.1,1.5,0c0.5,0.1,1.1,0.3,1.6,0.7c0.5,0.3,1,0.7,1.3,1.1
			c0.3,0.4,0.6,0.9,0.7,1.4s0.1,1,0,1.5C315.9,290.1,315.7,290.6,315.4,291.1z M309.4,287.3c-0.4,0.7-0.5,1.3-0.3,2
			c0.2,0.6,0.8,1.2,1.6,1.7c0.8,0.5,1.5,0.7,2.2,0.7c0.7-0.1,1.2-0.4,1.6-1.1c0.2-0.3,0.3-0.7,0.4-1c0-0.3,0-0.6-0.1-1
			c-0.1-0.3-0.3-0.6-0.6-0.9c-0.3-0.3-0.6-0.6-1-0.8c-0.4-0.3-0.8-0.4-1.2-0.6c-0.4-0.1-0.7-0.2-1-0.1c-0.3,0-0.6,0.1-0.9,0.3
			C309.8,286.7,309.6,286.9,309.4,287.3z"/>
		<path style="fill:#4D4D4F;" d="M305.5,291.3l6.1,5.2l-0.6,0.7c-0.1,0.2-0.3,0.2-0.5,0.1l-0.7-0.5c0.1,0.5,0.1,1-0.1,1.5
			c-0.1,0.5-0.3,1-0.7,1.4c-0.3,0.3-0.6,0.6-0.9,0.8c-0.3,0.2-0.7,0.3-1,0.3c-0.4,0-0.7-0.1-1.1-0.2c-0.4-0.2-0.7-0.4-1.1-0.7
			l-3.9-3.3l0.9-1.1l3.9,3.3c0.5,0.4,0.9,0.6,1.4,0.6c0.4,0,0.8-0.2,1.2-0.7c0.3-0.3,0.5-0.7,0.5-1.1s0.1-0.8,0-1.3l-4.5-3.8
			L305.5,291.3z"/>
	</g>
	<text transform="matrix(1 0 0 1 204.2526 266.9037)" style="fill:#538EBD; font-family:'Lato-Black'; font-size:46.8062px;">CEO</text>
</g>
<g id="network_logos">
	<g>
		<path style="fill:#FFFFFF;" d="M88.6,235.8c3.7-1.4,5.9-3.9,5.9-8.3c0-6.2-5-9.2-11.7-9.2H61L53.4,241l-7.6-22.6H31v36.1h9.7
			v-24.1l8,24.1h9.5l8-24.1v24.1H82c6.5,0,14.1-1.8,14.1-10.5C96.1,239.7,93.3,236.8,88.6,235.8z M79.3,247.6h-3.5v-22.5h2.8
			c3.2,0,6.3,0.3,6.3,3.6c0,3.1-3.3,3.8-6.4,3.8h-0.7v6.5h1.6c3.3,0,7.1,0.4,7.1,4.3C86.5,247.1,82.8,247.6,79.3,247.6z"/>
		<polygon style="fill:#FFFFFF;" points="121.2,218.4 121.2,242.5 109.2,218.4 96.8,218.4 96.8,254.5 106.4,254.5 106.4,232.1 
			117.4,254.5 130.7,254.5 130.7,218.4 		"/>
	</g>
	<g>
		<path style="fill:#FFFFFF;" d="M296.9,96.9l-15.7-43.1h-16.2l-2.7,7.9c3,3.8,4.7,8.5,4.7,13.7c0,10.4-7.2,19.2-16.9,21.5l0,0.1
			h16.4c0,0,6.9-26,7-26.1c0,0,0,0,0,0l0,0l0,0c0.1,0.4,7,26.1,7,26.1H296.9z"/>
		<path style="fill:#FFFFFF;" d="M239.5,53.9h-15.7c0,0-6.9,25.7-7,26.1v0l0,0c0,0,0,0,0,0c0-0.1-7-26.1-7-26.1h-16.4l15,43.1h16.2
			l2.9-8.1c-2.9-3.7-4.6-8.5-4.6-13.6C222.8,65,229.9,56.3,239.5,53.9z"/>
		<circle style="fill:#FFFFFF;" cx="244.9" cy="75.3" r="8.7"/>
	</g>
	<g id="color_2_">
		<path id="New_Symbol_2_" style="fill:#FFFFFF;" d="M386.7,378.5c-8.6,1-11,9.9-17.4,17.5c-8.6,10.2-21.4,5-21.4,5
			c8.6-1.1,11.1-10,17.7-17.6C374.3,373.3,386.7,378.5,386.7,378.5z M355.6,393.5c0,0,10.7-8.5,6.1-21c-3.5-9.4-10.2-16.1-6.6-24
			c0,0-10.6,8.6-6.2,21C352.3,379,359.2,385.6,355.6,393.5z M355,391.7c0,0,1-13.8-10.8-19c-9.3-4.1-19-3.7-22.3-11.7
			c0,0-1.3,13.7,11.3,19C342.4,383.9,351.7,383.7,355,391.7z M340.9,414.8H365l5.6-11.3h-29.7V414.8z M344.7,447.9h2l13.8-31.6
			h-15.8V447.9z"/>
	</g>
	<g>
		<path style="fill:#FFFFFF;" d="M150.6,428c-6.2-3.6-12.8-6.4-19.6-7.6c-5.9,4.7-9.9,8.3-15.3,14c4.5-16,13.4-32.3,26.5-47
			c-0.3,5.2-0.1,10.2,0.5,15.1c5.6-0.6,11.1-0.8,16.6-0.5c-5.1,2.5-10.2,5.4-15.1,8.6C145.6,416.8,147.7,422.6,150.6,428z"/>
		<path style="fill:#FFFFFF;" d="M110.9,379.1c4.7,1.4,9.5,2.2,14.4,2.3c3.3-4.7,6.3-9.8,9-15.1c0,4.9-0.4,10.7-1.3,16
			c5.3,0.4,9.2,0.5,15.1,0.4l-16.5,8.1c0,0-0.9,4.5-5.7,13.9c-1.3-3.2-2.7-6.2-4.1-9.6c-4.2,1.3-8.6,2.7-12.5,3.7
			c3.2-3,6.4-6.6,9.3-10.1C116.4,384.9,114,382.3,110.9,379.1z"/>
		<path style="fill:#FFFFFF;" d="M142.2,376.2l-0.1-1.3c-0.2-1.8-0.5-3.6-0.9-5.3c-1.7,0.5-3.5,0.9-5.3,1.1l-1.2,0.1l0.9-0.7
			c1.6-1.2,3-2.6,4.3-4.1c-0.8-2-3.3-6.5-3.3-6.5s4.1,2.4,5.9,3.2c0.8-1.2,1.5-2.5,2.2-3.8l0.5-1.1l0.1,1.2c0.2,1.6,0.2,3.2,0.2,4.8
			c1.4,0.4,2.9,0.7,4.4,0.9l0.9,0.1l-0.7,0.5c-1.6,1.2-3.3,2.2-5.1,3c-0.5,2.4-1.2,4.7-2.2,6.9L142.2,376.2L142.2,376.2z
			 M141.6,368.7l0.1,0.3c0.4,1.5,0.7,3,0.9,4.5c0.8-1.9,1.3-3.8,1.7-5.7l0-0.2l0.2-0.1c1.5-0.7,3-1.5,4.4-2.5
			c-1.3-0.2-2.6-0.5-3.9-0.9l-0.3-0.1l0-0.3c0.1-1.3,0.1-2.5,0-3.8c-0.6,1.1-1.2,2.1-1.9,3.1l-0.2,0.2l-0.3-0.1
			c-1.5-0.6-2.9-1.3-4.2-2.1c0.9,1.5,1.7,3,2.3,4.7l0.1,0.2l-0.1,0.2c-1.1,1.3-2.3,2.5-3.6,3.6c1.5-0.2,2.9-0.5,4.3-1L141.6,368.7
			L141.6,368.7z"/>
		<path style="fill:#FFFFFF;" d="M224.4,383.8h5.4l-4.3,15.7h-5.4L224.4,383.8z M229.1,377.9h6.4l-6.5,4h-3.6L229.1,377.9z"/>
		<path style="fill:#FFFFFF;" d="M213.9,379.3h5.5l-1.2,4.7h3.6l-0.9,3.3h-3.6l-1.9,6.9c-0.1,0.2-0.1,0.5-0.2,0.7
			c-0.1,0.2-0.1,0.4,0,0.6c0,0.2,0.2,0.3,0.3,0.4c0.2,0.1,0.4,0.1,0.8,0.1l2-0.1l-1,3.6c-0.6,0.1-1.1,0.1-1.5,0.2
			c-0.4,0-0.9,0.1-1.4,0.1c-0.5,0-0.9,0-1.4,0c-0.5,0-0.9-0.1-1.3-0.2c-0.4-0.1-0.8-0.3-1.1-0.5c-0.3-0.2-0.6-0.5-0.8-0.8
			c-0.3-0.5-0.3-1-0.3-1.6c0.1-0.6,0.2-1.2,0.4-2l2-7.4H209l0.9-3.3h2.7L213.9,379.3z"/>
		<path style="fill:#FFFFFF;" d="M203,385.5c0.4-0.2,1.5-0.9,2.4-1.1c1-0.3,2.2-0.5,3.4-0.5l-0.9,3.3c0,0-1.4,0-3.1,0.5
			c-0.7,0.2-2.1,0.9-2.6,1.8c-0.2,0.3-0.3,0.7-0.5,1.2l-2.4,8.9h-5.4l4.3-15.7h5.3L203,385.5z"/>
		<path style="fill:#FFFFFF;" d="M179,388.3c0.2-0.5,0.5-1.1,0.9-1.7c0.4-0.6,1.1-1.2,2-1.8c1-0.6,2-1,3.1-1.1
			c1.1-0.2,2.2-0.3,3.3-0.3c0.6,0,1.3,0,2.1,0.1c0.8,0.1,1.6,0.3,2.4,0.6c0.7,0.3,1.3,0.8,1.8,1.4c0.4,0.6,0.5,1.4,0.2,2.4l-2.5,9.2
			c-0.1,0.4-0.2,0.8-0.3,1c-0.1,0.3-0.1,0.5-0.1,0.6s0,0.3,0,0.4c0,0.1,0.1,0.2,0.2,0.4h-5.3l0.4-1.4c-0.4,0.2-0.8,0.4-1.3,0.7
			c-0.4,0.2-0.9,0.4-1.4,0.6c-0.5,0.2-1,0.3-1.6,0.4c-0.6,0.1-1.2,0.2-1.9,0.2c-1.1,0-1.9-0.1-2.6-0.4c-0.7-0.3-1.2-0.7-1.6-1.1
			c-0.4-0.5-0.6-1-0.7-1.6c-0.1-0.6,0-1.1,0.1-1.7c0.2-0.6,0.5-1.2,0.8-1.7c0.4-0.5,0.8-0.9,1.3-1.3c0.5-0.4,1-0.7,1.5-0.9
			c0.5-0.3,1-0.4,1.4-0.6c0.4-0.1,0.9-0.3,1.6-0.4c0.6-0.1,1.3-0.3,2-0.4c0.7-0.1,1.4-0.2,2.1-0.3c0.7-0.1,1.4-0.2,2-0.3l0.2-0.8
			c0-0.2,0.1-0.4,0.1-0.6c0-0.2,0-0.4-0.1-0.6c-0.1-0.2-0.2-0.4-0.5-0.5c-0.2-0.1-0.6-0.2-1.1-0.2c-0.6,0-1.1,0.1-1.5,0.2
			c-0.4,0.1-0.7,0.3-1,0.5c-0.3,0.2-0.4,0.4-0.6,0.6c-0.1,0.2-0.2,0.4-0.3,0.5H179z M184.6,393c-0.3,0.1-0.5,0.2-0.8,0.3
			c-0.3,0.1-0.6,0.2-0.9,0.4c-0.3,0.2-0.5,0.3-0.7,0.5c-0.2,0.2-0.4,0.5-0.4,0.8c-0.1,0.4,0,0.7,0.3,1.1c0.3,0.3,0.7,0.5,1.4,0.5
			c0.3,0,0.7,0,1-0.1c0.3-0.1,0.7-0.2,1-0.4c0.5-0.2,0.9-0.5,1.3-0.8c0.3-0.3,0.6-0.6,0.8-1c0.2-0.3,0.4-0.7,0.5-1.1
			c0.1-0.4,0.3-0.8,0.4-1.2L184.6,393z"/>
		<path style="fill:#FFFFFF;" d="M179.4,378.3l-5.8,21.3h-5.9l4.5-15.2l0.7-2.1l-0.4,0.8c-0.2,0.3-0.3,0.5-0.4,0.7
			c-0.1,0.2-0.2,0.4-0.3,0.5c-0.1,0.2-0.2,0.3-0.2,0.5c-0.1,0.2-0.2,0.3-0.3,0.6l-8.6,14.3h-5.4l-0.8-13.7l-0.1-3.8
			c-0.1,0.4-0.2,0.8-0.2,1.1c-0.1,0.3-0.1,0.6-0.2,0.8c-0.1,0.3-0.1,0.6-0.2,0.9c-0.1,0.3-0.2,0.8-0.3,1.3l-3.3,13.4h-6l5.8-21.3
			h9.1l0.6,12l0,3.4c0.2-0.4,0.3-0.7,0.5-0.9c0.1-0.2,0.2-0.4,0.3-0.6c0.1-0.2,0.2-0.3,0.3-0.5c0.1-0.2,0.2-0.4,0.3-0.6l7.4-12.7
			H179.4z"/>
	</g>
	<g>
		<path style="fill:#FFFFFF;" d="M381.3,189.7c1.3,0,3.8-0.1,3.8-2.9c0-2.9-2.5-3-3.9-3h-2.6c-0.4,1.9-0.6,3.9-0.7,5.9H381.3z"/>
		<path style="fill:#FFFFFF;" d="M417,152.1c-17.2,0-31.8,11.1-37,26.5h2.5c2.4,0,4.7,0.1,6.2,0.8c3.3,1.4,4.3,4.8,4.3,7.2
			c0,1-0.1,3.2-1.9,5c-1,1.1-2.1,1.5-3.2,1.9l6.1,10.1h-8.8l-4.9-8.9h-2.2c1.9,19.8,18.6,35.3,38.9,35.3c21.6,0,39.1-17.5,39.1-39.1
			C456,169.5,438.6,152.1,417,152.1z M402.7,203.7h-7.9v-25.1h17.6v5.4h-9.7v5.5h9.7v5.3h-9.7V203.7z M429.3,203.7l-1.1-3.5h-8.7
			l-1.1,3.5h-8.5l9.6-25.1h9l9.4,25.1H429.3z"/>
		<polygon style="fill:#FFFFFF;" points="421.1,194.8 426.6,194.8 423.9,185.7 		"/>
	</g>
</g>
</svg>
