<?xml version="1.0" encoding="utf-8"?>
<!-- Generator: Adobe Illustrator 21.0.2, SVG Export Plug-In . SVG Version: 6.00 Build 0)  -->
<svg version="1.1" xmlns="http://www.w3.org/2000/svg" xmlns:xlink="http://www.w3.org/1999/xlink" x="0px" y="0px"
	 viewBox="0 0 505.7 507.8" style="enable-background:new 0 0 505.7 507.8;" xml:space="preserve">
<g id="Layer_1_copy">
	<path id="circlepath_voa" style="fill:#538EBD;" d="M222.5,154.3L429.5,87c-45.8-48.8-109.9-76.7-177-76.7c-32.4,0-63.8,6.3-93.4,18.7v180.2
		c3-6.4,6.7-12.5,11-18.2C183.2,173.6,201.8,160.6,222.5,154.3z"/>
	<path id="circlepath_mbn" style="fill:#7E3536;" d="M9.8,253c0,6.5,0.3,13.1,0.8,19.7l171.4,55.7c-20.4-19.1-32.7-46.2-32.7-75.4V33.3
		C64.3,73.2,9.8,158.7,9.8,253z"/>
	<path id="circlepath_rfa" style="fill:#2D655E;" d="M436.6,94.9l-171.4,55.7c28.1,3.5,53.9,18.5,70.8,41.7l0.7,1L465,370.1
		c19.7-35.7,30.1-76,30.1-117.1C495.1,194.9,474.3,138.9,436.6,94.9z"/>
	<path id="circlepath_ocb" style="fill:#92AECF;" d="M196.4,489.1l106-146c-15.1,8.4-32.3,13-50,13c-11.6,0-23-1.9-33.8-5.7L11.7,283.2
		C24.2,383.8,97.4,465.7,196.4,489.1z"/>
	<path id="circlepath_rfe" style="fill:#887639;" d="M252.5,495.6c84.2,0,163.3-44.5,207.2-116.4L353.8,233.5c1.2,6.4,1.8,12.9,1.8,19.5
		c0,22-6.8,42.9-19.7,60.7L206.8,491.3C221.8,494.2,237.1,495.6,252.5,495.6z"/>
	<circle style="fill:#D1D3D4;" cx="252.7" cy="253.8" r="80.8"/>
	<circle style="fill:#FFFFFF;" cx="253" cy="254.8" r="59.5"/>
</g>
<g id="CEO_and_IBB_text">
	<g>
		<path style="fill:#4D4D4F;" d="M199.3,290.7l1.1,1.7l-8.9,6l-1.1-1.7L199.3,290.7z"/>
		<path style="fill:#4D4D4F;" d="M197.9,288.7l-9.5,5l-1.8-3.3c-0.3-0.6-0.6-1.2-0.7-1.7c-0.1-0.5-0.1-1-0.1-1.4
			c0.1-0.4,0.2-0.8,0.5-1.1c0.2-0.3,0.6-0.6,0.9-0.8c0.2-0.1,0.5-0.2,0.7-0.2c0.2,0,0.5,0,0.7,0c0.3,0,0.5,0.1,0.8,0.3
			c0.3,0.1,0.5,0.3,0.8,0.6c-0.4-1.5-0.1-2.5,1.1-3.1c0.4-0.2,0.8-0.3,1.2-0.4c0.4,0,0.8,0,1.2,0.2c0.4,0.2,0.8,0.4,1.2,0.8
			c0.4,0.4,0.7,0.8,1,1.4L197.9,288.7z M191.6,289.8l-0.8-1.4c-0.3-0.6-0.7-1-1.1-1.2c-0.4-0.2-0.8-0.2-1.3,0.1
			c-0.5,0.3-0.8,0.6-0.8,1c-0.1,0.4,0.1,0.9,0.4,1.5l0.8,1.5L191.6,289.8z M192.8,289.1l2.8-1.5l-1-1.8c-0.2-0.3-0.4-0.6-0.6-0.8
			c-0.2-0.2-0.4-0.3-0.6-0.4c-0.2-0.1-0.4-0.1-0.6,0s-0.4,0.1-0.6,0.2c-0.2,0.1-0.4,0.2-0.5,0.4c-0.1,0.2-0.2,0.3-0.3,0.5
			c0,0.2,0,0.4,0,0.7c0.1,0.3,0.2,0.5,0.3,0.9L192.8,289.1z"/>
		<path style="fill:#4D4D4F;" d="M193.5,280.1l-10.1,3.6l-1.3-3.5c-0.2-0.7-0.4-1.3-0.4-1.8c0-0.5,0-1,0.1-1.4s0.3-0.7,0.6-1
			s0.6-0.5,1-0.6c0.2-0.1,0.5-0.1,0.7-0.1c0.2,0,0.5,0,0.7,0.1c0.2,0.1,0.5,0.2,0.7,0.4c0.2,0.2,0.5,0.4,0.7,0.7
			c-0.2-1.5,0.3-2.5,1.5-2.9c0.4-0.2,0.9-0.2,1.3-0.2c0.4,0,0.8,0.2,1.2,0.4s0.7,0.5,1,0.9c0.3,0.4,0.6,0.9,0.8,1.5L193.5,280.1z
			 M187.1,280.2l-0.5-1.5c-0.2-0.6-0.5-1.1-0.9-1.4c-0.4-0.3-0.8-0.3-1.3-0.1c-0.5,0.2-0.8,0.5-1,0.9s-0.1,0.9,0.2,1.5l0.6,1.6
			L187.1,280.2z M188.4,279.8l3-1.1l-0.7-1.9c-0.1-0.4-0.3-0.6-0.4-0.8c-0.2-0.2-0.3-0.4-0.5-0.5c-0.2-0.1-0.4-0.1-0.6-0.1
			c-0.2,0-0.4,0-0.6,0.1c-0.2,0.1-0.4,0.2-0.6,0.3c-0.2,0.1-0.3,0.3-0.3,0.5c-0.1,0.2-0.1,0.4-0.1,0.7c0,0.3,0.1,0.6,0.2,0.9
			L188.4,279.8z"/>
		<path style="fill:#4D4D4F;" d="M190.3,270.3c0.1,0,0.2,0.1,0.3,0.1c0.1,0,0.2,0.1,0.3,0.2c0.1,0.1,0.1,0.2,0.2,0.2
			c0.1,0.1,0.1,0.2,0.1,0.3l0.2,0.8l-11.8-1.8c-0.2,0-0.4-0.1-0.6-0.3c-0.1-0.1-0.2-0.3-0.3-0.5l-0.2-0.8L190.3,270.3z"/>
		<path style="fill:#4D4D4F;" d="M177.6,258.8l1.6-0.2l0.4,3.3l9-1.1l0.2,2l-9,1.1l0.4,3.3l-1.6,0.2L177.6,258.8z"/>
		<path style="fill:#4D4D4F;" d="M179.6,250.5c0.1,0.1,0.2,0.1,0.2,0.2c0,0.1,0.1,0.2,0.1,0.3c0,0.1,0,0.2-0.1,0.3
			c-0.1,0.1-0.2,0.3-0.3,0.4c-0.1,0.2-0.2,0.4-0.3,0.6c-0.1,0.2-0.1,0.5-0.1,0.8c0,0.3,0,0.5,0.1,0.7c0.1,0.2,0.2,0.4,0.3,0.5
			c0.1,0.1,0.3,0.3,0.4,0.3c0.2,0.1,0.3,0.1,0.5,0.1c0.3,0,0.5-0.1,0.6-0.2c0.2-0.1,0.3-0.3,0.4-0.6c0.1-0.2,0.2-0.5,0.3-0.8
			c0.1-0.3,0.2-0.6,0.3-0.9c0.1-0.3,0.2-0.6,0.4-0.9c0.1-0.3,0.3-0.6,0.5-0.8c0.2-0.2,0.5-0.4,0.8-0.6c0.3-0.1,0.7-0.2,1.1-0.2
			c0.5,0,0.9,0.1,1.4,0.3c0.4,0.2,0.8,0.4,1.1,0.8c0.3,0.3,0.6,0.7,0.7,1.2c0.2,0.5,0.3,1,0.3,1.6c0,0.3,0,0.7-0.1,1
			c-0.1,0.3-0.2,0.7-0.3,1c-0.1,0.3-0.3,0.6-0.5,0.9c-0.2,0.3-0.4,0.5-0.6,0.7l-1-0.6c-0.1-0.1-0.1-0.1-0.2-0.2
			c0-0.1-0.1-0.2-0.1-0.3c0-0.1,0.1-0.3,0.2-0.4c0.1-0.1,0.2-0.3,0.3-0.5c0.1-0.2,0.2-0.4,0.3-0.7c0.1-0.3,0.2-0.6,0.2-1
			c0-0.6-0.1-1-0.4-1.3c-0.3-0.3-0.7-0.5-1.2-0.5c-0.3,0-0.5,0.1-0.7,0.2c-0.2,0.1-0.3,0.3-0.5,0.6c-0.1,0.2-0.2,0.5-0.3,0.8
			c-0.1,0.3-0.2,0.6-0.3,0.9c-0.1,0.3-0.2,0.6-0.4,0.9c-0.1,0.3-0.3,0.6-0.6,0.8c-0.2,0.2-0.5,0.4-0.8,0.6c-0.3,0.1-0.7,0.2-1.2,0.2
			c-0.4,0-0.8-0.1-1.1-0.3c-0.4-0.2-0.7-0.4-1-0.7c-0.3-0.3-0.5-0.7-0.7-1.1c-0.2-0.4-0.2-0.9-0.2-1.5c0-0.6,0.1-1.2,0.3-1.8
			c0.2-0.5,0.5-1,0.8-1.4L179.6,250.5z"/>
		<path style="fill:#4D4D4F;" d="M188.8,246.1l-0.2,2l-10.7-1.2l0.2-2L188.8,246.1z"/>
		<path style="fill:#4D4D4F;" d="M190.6,229.7c0-0.1,0.1-0.1,0.2-0.2l0.8-0.4c0.3,0.6,0.6,1.2,0.6,1.9c0.1,0.7,0,1.5-0.3,2.3
			c-0.2,0.7-0.6,1.4-1,1.9c-0.4,0.5-1,0.9-1.6,1.2c-0.6,0.3-1.2,0.4-2,0.5c-0.7,0-1.4-0.1-2.2-0.3c-0.8-0.2-1.4-0.6-2-1.1
			c-0.6-0.5-1-1-1.3-1.6c-0.3-0.6-0.5-1.3-0.5-2c0-0.7,0.1-1.5,0.3-2.2c0.2-0.8,0.6-1.4,1-1.8c0.4-0.5,0.9-0.9,1.4-1.2l0.5,0.7
			c0,0,0.1,0.1,0.1,0.2c0,0.1,0,0.1,0,0.2c0,0.1-0.1,0.1-0.1,0.2c-0.1,0.1-0.1,0.1-0.2,0.2c-0.1,0.1-0.2,0.2-0.3,0.3
			c-0.1,0.1-0.2,0.2-0.4,0.4s-0.2,0.3-0.4,0.6c-0.1,0.2-0.2,0.5-0.3,0.8c-0.2,0.6-0.2,1.1-0.2,1.6c0,0.5,0.2,1,0.4,1.4
			c0.2,0.4,0.6,0.8,1,1.2c0.4,0.3,1,0.6,1.6,0.8c0.6,0.2,1.2,0.3,1.8,0.3c0.6,0,1.1-0.1,1.5-0.3c0.4-0.2,0.8-0.5,1.1-0.9
			c0.3-0.4,0.6-0.8,0.7-1.3c0.1-0.3,0.2-0.6,0.2-0.8c0-0.3,0.1-0.5,0.1-0.7c0-0.2,0-0.5-0.1-0.7c-0.1-0.2-0.1-0.4-0.2-0.7
			C190.6,229.9,190.6,229.8,190.6,229.7z"/>
		<path style="fill:#4D4D4F;" d="M188.1,222.1c0.2-0.5,0.6-0.9,0.9-1.2c0.4-0.3,0.8-0.6,1.2-0.7c0.4-0.1,0.9-0.2,1.4-0.1
			c0.5,0.1,1,0.2,1.5,0.5c0.5,0.3,1,0.6,1.3,0.9c0.4,0.4,0.6,0.8,0.8,1.2c0.2,0.4,0.2,0.9,0.2,1.4c0,0.5-0.2,1-0.4,1.5
			c-0.2,0.5-0.5,0.9-0.9,1.2s-0.8,0.6-1.2,0.7c-0.4,0.1-0.9,0.2-1.4,0.1c-0.5-0.1-1-0.2-1.6-0.5c-0.5-0.3-1-0.6-1.3-0.9
			c-0.4-0.4-0.6-0.8-0.8-1.2c-0.2-0.4-0.2-0.9-0.2-1.4C187.7,223.1,187.9,222.6,188.1,222.1z M194.1,225.1c0.3-0.7,0.4-1.3,0.1-1.8
			c-0.3-0.6-0.8-1-1.6-1.4c-0.8-0.4-1.5-0.5-2.1-0.4c-0.6,0.1-1.1,0.5-1.4,1.2c-0.2,0.3-0.3,0.7-0.3,1c0,0.3,0.1,0.6,0.2,0.9
			c0.1,0.3,0.3,0.5,0.6,0.8c0.3,0.2,0.6,0.5,1,0.7c0.4,0.2,0.8,0.3,1.1,0.4c0.4,0.1,0.7,0.1,1,0c0.3-0.1,0.6-0.2,0.8-0.4
			C193.8,225.7,194,225.4,194.1,225.1z"/>
		<path style="fill:#4D4D4F;" d="M197.4,220.9l-6.3-4.1l0.4-0.6c0.1-0.1,0.2-0.2,0.2-0.2c0.1,0,0.2,0,0.3,0.1l1,0.6
			c-0.3-0.5-0.5-1-0.5-1.5c0-0.5,0.1-0.9,0.4-1.4c0.1-0.2,0.2-0.3,0.4-0.4c0.1-0.1,0.3-0.2,0.4-0.3l0.7,0.7c0.1,0.1,0.1,0.2,0,0.3
			c0,0.1-0.1,0.1-0.2,0.2c-0.1,0.1-0.2,0.3-0.4,0.5c-0.3,0.4-0.3,0.8-0.3,1.2c0.1,0.4,0.2,0.8,0.6,1.3l4,2.6L197.4,220.9z"/>
		<path style="fill:#4D4D4F;" d="M202.7,217.4l-7.8-6.3l0.5-0.6c0.1-0.1,0.3-0.2,0.4-0.1l0.8,0.5c-0.1-0.5-0.1-1,0-1.5
			c0.1-0.5,0.3-0.9,0.6-1.4c0.3-0.3,0.6-0.6,0.9-0.8c0.4-0.2,0.7-0.3,1.1-0.2c0.4,0,0.8,0.1,1.3,0.3c0.5,0.2,0.9,0.5,1.4,0.9
			c0.4,0.3,0.8,0.7,1.1,1.1c0.3,0.4,0.5,0.8,0.6,1.3c0.1,0.4,0.1,0.9,0,1.3c-0.1,0.4-0.3,0.9-0.6,1.3c-0.3,0.4-0.6,0.6-0.9,0.8
			c-0.3,0.2-0.7,0.3-1.1,0.3l2.6,2.1L202.7,217.4z M197.7,209.1c-0.3,0.3-0.4,0.7-0.5,1.1c-0.1,0.4,0,0.8,0.1,1.2l2.8,2.3
			c0.4,0,0.8-0.1,1-0.2c0.3-0.1,0.5-0.4,0.8-0.6c0.4-0.5,0.6-1.1,0.4-1.7c-0.1-0.6-0.6-1.2-1.3-1.8c-0.4-0.3-0.7-0.5-1.1-0.7
			c-0.3-0.2-0.6-0.2-0.9-0.2c-0.3,0-0.5,0-0.8,0.2C198.1,208.6,197.9,208.8,197.7,209.1z"/>
		<path style="fill:#4D4D4F;" d="M202.9,201.9c0.4-0.4,0.8-0.7,1.3-0.8c0.5-0.2,0.9-0.3,1.4-0.2c0.5,0,0.9,0.2,1.4,0.4
			c0.5,0.2,0.9,0.6,1.3,1c0.4,0.4,0.7,0.9,0.9,1.3c0.2,0.5,0.3,0.9,0.3,1.4c0,0.5-0.1,0.9-0.3,1.4c-0.2,0.4-0.5,0.9-0.9,1.2
			c-0.4,0.4-0.8,0.7-1.3,0.8c-0.4,0.2-0.9,0.3-1.4,0.2c-0.5,0-0.9-0.1-1.4-0.4c-0.5-0.2-0.9-0.6-1.3-1c-0.4-0.4-0.7-0.9-0.9-1.3
			c-0.2-0.5-0.3-0.9-0.3-1.4c0-0.5,0.1-0.9,0.3-1.4C202.2,202.7,202.5,202.3,202.9,201.9z M207.6,206.7c0.5-0.5,0.8-1.1,0.7-1.7
			c-0.1-0.6-0.4-1.2-1-1.9c-0.6-0.6-1.2-1-1.8-1.1c-0.6-0.1-1.2,0.1-1.7,0.6c-0.3,0.3-0.5,0.5-0.6,0.8c-0.1,0.3-0.2,0.6-0.1,0.9
			c0,0.3,0.1,0.6,0.3,0.9c0.2,0.3,0.4,0.6,0.7,1c0.3,0.3,0.6,0.6,0.9,0.8c0.3,0.2,0.6,0.3,0.9,0.4c0.3,0,0.6,0,0.9-0.1
			C207,207.2,207.3,207,207.6,206.7z"/>
		<path style="fill:#4D4D4F;" d="M212.1,203.9l-4.6-6l0.6-0.5c0.1-0.1,0.2-0.1,0.3-0.1c0.1,0,0.2,0.1,0.3,0.2l0.8,0.9
			c-0.1-0.6-0.1-1.1,0-1.6c0.1-0.5,0.4-0.9,0.8-1.2c0.2-0.1,0.3-0.2,0.5-0.3c0.2-0.1,0.3-0.1,0.5-0.1l0.5,0.9c0,0.1,0,0.2-0.1,0.3
			c-0.1,0-0.2,0.1-0.3,0.1c-0.1,0.1-0.3,0.2-0.5,0.3c-0.4,0.3-0.6,0.6-0.7,1c-0.1,0.4-0.1,0.9,0.1,1.4l2.9,3.8L212.1,203.9z"/>
		<path style="fill:#4D4D4F;" d="M221.5,197.6l-0.5,0.3c-0.1,0.1-0.2,0.1-0.3,0.1c-0.1,0-0.2,0-0.3-0.1l-0.5-0.5
			c-0.1,0.3-0.2,0.5-0.3,0.7c-0.1,0.2-0.2,0.4-0.3,0.6c-0.1,0.2-0.3,0.4-0.5,0.5c-0.2,0.2-0.4,0.3-0.6,0.5c-0.3,0.2-0.5,0.3-0.8,0.3
			c-0.3,0.1-0.5,0.1-0.8,0c-0.2,0-0.5-0.1-0.7-0.3s-0.4-0.4-0.6-0.7c-0.2-0.3-0.2-0.5-0.2-0.9c0-0.3,0.1-0.7,0.3-1
			c0.2-0.4,0.5-0.8,1-1.2c0.4-0.4,1-0.9,1.7-1.3l-0.3-0.5c-0.3-0.5-0.6-0.8-1-0.9c-0.4-0.1-0.8-0.1-1.2,0.2
			c-0.3,0.2-0.5,0.3-0.6,0.5c-0.1,0.2-0.3,0.4-0.4,0.5c-0.1,0.2-0.2,0.3-0.2,0.5c-0.1,0.1-0.1,0.2-0.2,0.3c-0.1,0-0.2,0.1-0.2,0.1
			c-0.1,0-0.2,0-0.2-0.1l-0.4-0.2c0.2-0.6,0.4-1.1,0.7-1.5c0.3-0.4,0.7-0.8,1.2-1.1c0.4-0.2,0.7-0.4,1.1-0.4c0.4-0.1,0.7,0,1,0.1
			c0.3,0.1,0.6,0.3,0.9,0.5c0.3,0.2,0.5,0.5,0.8,0.9L221.5,197.6z M218.1,198.7c0.2-0.1,0.4-0.3,0.5-0.4c0.1-0.1,0.3-0.3,0.4-0.5
			c0.1-0.2,0.2-0.3,0.3-0.5c0.1-0.2,0.1-0.4,0.2-0.6l-0.8-1.3c-0.5,0.3-0.9,0.7-1.3,0.9c-0.3,0.3-0.6,0.6-0.7,0.8
			c-0.2,0.2-0.3,0.5-0.3,0.7c0,0.2,0,0.4,0.1,0.6c0.1,0.2,0.2,0.3,0.4,0.4c0.1,0.1,0.3,0.1,0.4,0.2c0.1,0,0.3,0,0.4,0
			C217.8,198.9,218,198.8,218.1,198.7z"/>
		<path style="fill:#4D4D4F;" d="M225.4,195.8c-0.5,0.3-1,0.3-1.5,0.2c-0.4-0.2-0.8-0.5-1.1-1.1l-2-4.1l-0.8,0.4c-0.1,0-0.1,0-0.2,0
			c-0.1,0-0.1-0.1-0.2-0.2l-0.2-0.5l1.1-0.7l-0.7-2.2c0-0.1,0-0.1,0-0.2c0-0.1,0.1-0.1,0.2-0.2l0.6-0.3l1.1,2.3l2-0.9l0.4,0.9
			l-2,0.9l2,4.1c0.1,0.3,0.3,0.5,0.5,0.5c0.2,0.1,0.4,0.1,0.6-0.1c0.1-0.1,0.2-0.1,0.3-0.2c0.1-0.1,0.1-0.2,0.2-0.2
			c0-0.1,0.1-0.1,0.1-0.2c0-0.1,0.1-0.1,0.1-0.1c0.1,0,0.1,0,0.2,0l0.6,0.4c-0.1,0.3-0.3,0.6-0.5,0.8
			C226,195.4,225.7,195.6,225.4,195.8z"/>
		<path style="fill:#4D4D4F;" d="M228.6,186.1c0.4-0.2,0.9-0.2,1.3-0.2c0.4,0,0.8,0.1,1.2,0.3c0.4,0.2,0.7,0.4,1,0.8
			c0.3,0.3,0.5,0.8,0.7,1.3c0.1,0.2,0.1,0.3,0.1,0.4c0,0.1-0.1,0.1-0.2,0.2l-4.8,1.7c0.2,0.4,0.4,0.8,0.6,1.1
			c0.2,0.3,0.5,0.5,0.8,0.7c0.3,0.2,0.6,0.2,0.9,0.2c0.3,0,0.6,0,1-0.2c0.3-0.1,0.6-0.2,0.8-0.4c0.2-0.2,0.4-0.3,0.5-0.4
			c0.1-0.1,0.2-0.3,0.3-0.4c0.1-0.1,0.2-0.2,0.2-0.2c0.1,0,0.2,0,0.3,0l0.5,0.3c-0.1,0.2-0.2,0.5-0.4,0.7c-0.2,0.2-0.4,0.4-0.6,0.6
			c-0.2,0.2-0.5,0.3-0.7,0.5c-0.2,0.1-0.5,0.3-0.8,0.3c-0.5,0.2-1,0.3-1.5,0.2c-0.5,0-0.9-0.1-1.3-0.3c-0.4-0.2-0.8-0.5-1.1-0.9
			c-0.3-0.4-0.6-0.9-0.8-1.5c-0.2-0.5-0.3-1-0.3-1.5c0-0.5,0.1-0.9,0.3-1.4c0.2-0.4,0.4-0.8,0.8-1.1
			C227.6,186.5,228,186.3,228.6,186.1z M228.9,187c-0.6,0.2-1,0.6-1.3,1s-0.3,1-0.1,1.7l3.9-1.4c-0.1-0.3-0.2-0.5-0.4-0.8
			c-0.2-0.2-0.4-0.4-0.6-0.5c-0.2-0.1-0.5-0.2-0.7-0.2S229.2,186.9,228.9,187z"/>
		<path style="fill:#4D4D4F;" d="M243.5,179.4l0.2,1.2l-5.1,0.9l0.6,3.7l4.4-0.8l0.2,1.2l-4.4,0.8l0.8,4.5l-1.4,0.2l-1.8-10.5
			L243.5,179.4z"/>
		<path style="fill:#4D4D4F;" d="M247.3,182.3l0.2,4.8c0,0.6,0.2,1,0.5,1.3c0.3,0.3,0.7,0.4,1.2,0.4c0.4,0,0.8-0.1,1.1-0.3
			c0.3-0.2,0.6-0.5,0.9-0.8l-0.3-5.5l1.3-0.1l0.4,7.5l-0.8,0c-0.2,0-0.3-0.1-0.4-0.3l-0.1-0.8c-0.3,0.4-0.7,0.7-1.1,0.9
			c-0.4,0.2-0.9,0.4-1.4,0.4c-0.4,0-0.8,0-1.1-0.1c-0.3-0.1-0.6-0.3-0.8-0.5c-0.2-0.2-0.4-0.5-0.5-0.9c-0.1-0.3-0.2-0.7-0.2-1.2
			l-0.2-4.8L247.3,182.3z"/>
		<path style="fill:#4D4D4F;" d="M254.8,189.6l0.6-7.5l0.8,0.1c0.2,0,0.3,0.1,0.3,0.3l0,0.8c0.4-0.3,0.7-0.6,1.2-0.8
			c0.4-0.2,0.9-0.3,1.4-0.2c0.4,0,0.8,0.1,1.1,0.3c0.3,0.2,0.6,0.4,0.8,0.6c0.2,0.3,0.3,0.6,0.4,0.9c0.1,0.4,0.1,0.8,0.1,1.2
			l-0.4,4.8l-1.3-0.1l0.4-4.8c0-0.6-0.1-1-0.3-1.4c-0.2-0.3-0.6-0.5-1.2-0.6c-0.4,0-0.8,0-1.1,0.2c-0.4,0.2-0.7,0.4-1,0.7l-0.4,5.5
			L254.8,189.6z"/>
		<path style="fill:#4D4D4F;" d="M269.3,185.3c-0.1,0-0.1,0.1-0.1,0.1c0,0-0.1,0-0.2,0c-0.1,0-0.1-0.1-0.2-0.1
			c-0.1-0.1-0.2-0.2-0.3-0.3c-0.1-0.1-0.3-0.2-0.4-0.3c-0.2-0.1-0.4-0.2-0.7-0.2c-0.4-0.1-0.7-0.1-1,0c-0.3,0.1-0.6,0.2-0.8,0.4
			c-0.2,0.2-0.4,0.5-0.6,0.8c-0.2,0.3-0.3,0.7-0.4,1.1c-0.1,0.4-0.1,0.9-0.1,1.2c0,0.4,0.1,0.7,0.3,1c0.1,0.3,0.3,0.5,0.6,0.7
			c0.2,0.2,0.5,0.3,0.9,0.4c0.3,0.1,0.6,0.1,0.8,0c0.2,0,0.4-0.1,0.6-0.2c0.2-0.1,0.3-0.1,0.4-0.2c0.1-0.1,0.2-0.1,0.3-0.1
			c0.1,0,0.2,0.1,0.2,0.2l0.3,0.5c-0.4,0.3-0.9,0.5-1.4,0.6c-0.5,0.1-1.1,0.1-1.6,0c-0.5-0.1-0.9-0.3-1.3-0.5
			c-0.4-0.2-0.7-0.6-0.9-0.9c-0.2-0.4-0.4-0.8-0.5-1.3c-0.1-0.5-0.1-1.1,0.1-1.7c0.1-0.5,0.3-1,0.5-1.5c0.2-0.4,0.6-0.8,0.9-1.1
			c0.4-0.3,0.8-0.5,1.3-0.6c0.5-0.1,1-0.1,1.6,0c0.5,0.1,1,0.3,1.3,0.5c0.4,0.2,0.7,0.6,0.9,0.9L269.3,185.3z"/>
		<path style="fill:#4D4D4F;" d="M272.1,192.6c-0.6-0.2-1-0.5-1.2-0.9c-0.2-0.4-0.2-0.9-0.1-1.5l1.3-4.4l-0.9-0.3
			c-0.1,0-0.1-0.1-0.2-0.1c0-0.1,0-0.1,0-0.2l0.1-0.5l1.2,0.2l1-2.1c0-0.1,0.1-0.1,0.1-0.1c0.1,0,0.1,0,0.2,0l0.7,0.2l-0.7,2.5
			l2.1,0.6l-0.3,0.9l-2.1-0.6l-1.3,4.3c-0.1,0.3-0.1,0.6,0,0.7c0.1,0.2,0.3,0.3,0.5,0.4c0.1,0,0.3,0.1,0.4,0.1c0.1,0,0.2,0,0.3,0
			c0.1,0,0.2,0,0.2-0.1c0.1,0,0.1,0,0.2,0c0.1,0,0.1,0.1,0.1,0.2l0.2,0.7c-0.3,0.1-0.6,0.2-0.9,0.2
			C272.7,192.7,272.4,192.7,272.1,192.6z"/>
		<path style="fill:#4D4D4F;" d="M279.3,187l-2.6,7l-1.3-0.5l2.6-7L279.3,187z M280.4,184.9c0,0.1-0.1,0.2-0.2,0.3
			c-0.1,0.1-0.2,0.2-0.3,0.2c-0.1,0-0.2,0.1-0.4,0.1c-0.1,0-0.3,0-0.4-0.1c-0.1,0-0.2-0.1-0.3-0.2c-0.1-0.1-0.2-0.2-0.2-0.3
			c-0.1-0.1-0.1-0.2-0.1-0.4c0-0.1,0-0.2,0.1-0.4c0-0.1,0.1-0.2,0.2-0.3c0.1-0.1,0.2-0.2,0.3-0.2c0.1,0,0.2-0.1,0.4-0.1
			c0.1,0,0.2,0,0.4,0.1c0.1,0,0.2,0.1,0.3,0.2c0.1,0.1,0.2,0.2,0.2,0.3c0.1,0.1,0.1,0.2,0.1,0.4
			C280.5,184.7,280.5,184.8,280.4,184.9z"/>
		<path style="fill:#4D4D4F;" d="M285,189.4c0.5,0.2,0.9,0.5,1.2,0.9c0.3,0.4,0.6,0.8,0.7,1.2c0.1,0.4,0.2,0.9,0.1,1.4
			c-0.1,0.5-0.2,1-0.5,1.5c-0.3,0.5-0.6,1-0.9,1.3c-0.4,0.4-0.8,0.6-1.2,0.8c-0.4,0.2-0.9,0.2-1.4,0.2c-0.5,0-1-0.2-1.5-0.4
			c-0.5-0.2-0.9-0.5-1.2-0.9c-0.3-0.4-0.6-0.8-0.7-1.2c-0.1-0.4-0.2-0.9-0.1-1.4c0.1-0.5,0.2-1,0.5-1.6c0.3-0.5,0.6-1,0.9-1.3
			c0.4-0.4,0.8-0.6,1.2-0.8c0.4-0.2,0.9-0.2,1.4-0.2C284,189,284.5,189.1,285,189.4z M282,195.4c0.7,0.3,1.3,0.4,1.8,0.1
			c0.6-0.3,1-0.8,1.4-1.6c0.4-0.8,0.5-1.5,0.4-2.1c-0.1-0.6-0.5-1.1-1.2-1.4c-0.3-0.2-0.7-0.3-1-0.3c-0.3,0-0.6,0.1-0.9,0.2
			c-0.3,0.1-0.5,0.3-0.8,0.6c-0.2,0.3-0.5,0.6-0.6,1c-0.2,0.4-0.3,0.8-0.4,1.1c-0.1,0.4-0.1,0.7,0,1c0.1,0.3,0.2,0.6,0.4,0.8
			C281.4,195,281.7,195.2,282,195.4z"/>
		<path style="fill:#4D4D4F;" d="M286.2,198.6l4.1-6.3l0.7,0.4c0.2,0.1,0.2,0.2,0.2,0.4l-0.4,0.7c0.5-0.1,0.9-0.2,1.4-0.1
			c0.5,0,0.9,0.2,1.4,0.5c0.4,0.2,0.6,0.5,0.8,0.8c0.2,0.3,0.3,0.6,0.4,0.9c0,0.3,0,0.7-0.1,1c-0.1,0.4-0.3,0.7-0.5,1.1l-2.6,4
			l-1.1-0.7l2.6-4c0.3-0.5,0.4-0.9,0.4-1.3c0-0.4-0.3-0.8-0.8-1.1c-0.3-0.2-0.7-0.3-1.1-0.4c-0.4,0-0.8,0-1.2,0.1l-3,4.6
			L286.2,198.6z"/>
		<path style="fill:#4D4D4F;" d="M300.5,201.2c-0.1,0-0.2,0-0.3-0.1c-0.1,0-0.1-0.1-0.1-0.2c0-0.1-0.1-0.2-0.2-0.4
			c-0.1-0.1-0.2-0.3-0.3-0.5c-0.1-0.2-0.3-0.3-0.5-0.5c-0.2-0.1-0.4-0.3-0.5-0.3c-0.2-0.1-0.3-0.1-0.5-0.1c-0.2,0-0.3,0-0.4,0.1
			c-0.1,0.1-0.3,0.1-0.3,0.3c-0.1,0.1-0.2,0.3-0.2,0.5c0,0.2,0.1,0.4,0.1,0.5c0.1,0.2,0.2,0.4,0.3,0.6c0.1,0.2,0.3,0.4,0.4,0.6
			c0.1,0.2,0.3,0.4,0.4,0.7c0.1,0.2,0.2,0.5,0.3,0.7c0,0.2,0.1,0.5,0,0.7c-0.1,0.2-0.2,0.5-0.4,0.7c-0.2,0.3-0.5,0.5-0.8,0.6
			c-0.3,0.1-0.6,0.2-0.9,0.2c-0.3,0-0.7,0-1-0.2c-0.4-0.1-0.7-0.3-1.1-0.6c-0.4-0.3-0.7-0.7-1-1.1c-0.2-0.4-0.4-0.8-0.4-1.2l0.6-0.2
			c0.1,0,0.1,0,0.2,0c0.1,0,0.1,0,0.2,0.1c0.1,0.1,0.1,0.1,0.2,0.3c0,0.1,0.1,0.3,0.1,0.4c0.1,0.2,0.1,0.3,0.3,0.5
			c0.1,0.2,0.3,0.4,0.5,0.6c0.2,0.2,0.4,0.3,0.6,0.4c0.2,0.1,0.4,0.1,0.6,0.1c0.2,0,0.3,0,0.5-0.1c0.1-0.1,0.3-0.2,0.4-0.3
			c0.1-0.2,0.2-0.3,0.2-0.5c0-0.2,0-0.4-0.1-0.6c-0.1-0.2-0.2-0.4-0.3-0.6c-0.1-0.2-0.3-0.4-0.4-0.6c-0.1-0.2-0.3-0.4-0.4-0.7
			c-0.1-0.2-0.2-0.5-0.2-0.7c0-0.2,0-0.5,0-0.7c0.1-0.2,0.2-0.5,0.4-0.7c0.2-0.2,0.4-0.4,0.7-0.5c0.3-0.1,0.5-0.2,0.8-0.2
			c0.3,0,0.6,0,1,0.2c0.3,0.1,0.7,0.3,1,0.6c0.4,0.3,0.7,0.7,0.9,1c0.2,0.4,0.3,0.8,0.4,1.2L300.5,201.2z"/>
		<path style="fill:#4D4D4F;" d="M310.9,205.4c0.3,0.3,0.4,0.6,0.6,0.9c0.1,0.3,0.2,0.7,0.2,1c0,0.3-0.1,0.6-0.2,0.9
			c-0.1,0.3-0.3,0.5-0.5,0.7l-0.7-0.5c0,0,0,0-0.1,0c0,0-0.1-0.1-0.1-0.2c0-0.1,0-0.1,0.1-0.2c0.1-0.1,0.1-0.2,0.2-0.4
			c0.1-0.1,0.1-0.3,0.1-0.5c0-0.2,0-0.3-0.1-0.5c-0.1-0.2-0.2-0.4-0.3-0.5c-0.2-0.2-0.3-0.3-0.5-0.4c-0.2-0.1-0.4-0.2-0.6-0.2
			c-0.2,0-0.4,0-0.6,0.1c-0.2,0.1-0.4,0.2-0.5,0.3c-0.1,0.1-0.2,0.2-0.3,0.4c-0.1,0.1-0.2,0.3-0.2,0.5c-0.1,0.2-0.1,0.4-0.2,0.6
			c0,0.2-0.1,0.5-0.1,0.7l-0.3,4.4c0.4-0.1,0.7-0.2,1.1-0.3c0.3-0.2,0.7-0.3,1-0.5c0.1-0.1,0.2-0.1,0.2-0.1c0.1,0,0.1,0,0.2,0.1
			l0.5,0.6c-0.4,0.4-0.9,0.7-1.5,0.9c-0.5,0.2-1.1,0.4-1.7,0.4l-0.2,3.2l-0.8-1c-0.1-0.1-0.2-0.2-0.2-0.3c0-0.1,0-0.2,0-0.4l0.1-1.5
			c-0.6-0.1-1.3-0.2-1.9-0.5c-0.6-0.3-1.1-0.7-1.6-1.3c-0.3-0.3-0.5-0.6-0.6-1c-0.2-0.4-0.2-0.8-0.2-1.2c0-0.4,0.1-0.8,0.2-1.2
			c0.2-0.4,0.4-0.7,0.8-1c0.3-0.2,0.5-0.4,0.9-0.5c0.3-0.1,0.6-0.2,1-0.2c0.3,0,0.7,0,1,0.1c0.3,0.1,0.7,0.2,1,0.4
			c0.1-0.5,0.2-0.9,0.4-1.2c0.2-0.3,0.4-0.6,0.7-0.9c0.3-0.2,0.6-0.4,0.9-0.5c0.3-0.1,0.7-0.1,1-0.1c0.3,0,0.7,0.1,1,0.3
			C310.3,204.8,310.6,205,310.9,205.4z M303,208.2c-0.2,0.2-0.4,0.4-0.5,0.7c-0.1,0.3-0.2,0.5-0.2,0.8c0,0.3,0.1,0.5,0.1,0.8
			c0.1,0.2,0.2,0.5,0.4,0.7c0.4,0.4,0.8,0.7,1.2,0.9c0.4,0.2,0.9,0.3,1.4,0.4l0.3-4.5c-0.6-0.2-1.1-0.3-1.6-0.2
			C303.8,207.7,303.4,207.9,303,208.2z"/>
		<path style="fill:#4D4D4F;" d="M318,225.7c-0.7,0.4-1.4,0.6-2.1,0.7c-0.7,0.1-1.4,0.1-2-0.1c-0.6-0.2-1.2-0.5-1.8-0.9
			c-0.5-0.4-1-1-1.4-1.7l-2-3.5l9.3-5.2l2,3.5c0.4,0.7,0.6,1.4,0.7,2.1c0.1,0.7,0.1,1.4-0.1,2c-0.2,0.6-0.5,1.2-0.9,1.8
			S318.7,225.3,318,225.7z M317.2,224.4c0.6-0.3,1-0.7,1.4-1.1c0.4-0.4,0.6-0.8,0.8-1.3c0.2-0.5,0.2-0.9,0.1-1.5
			c-0.1-0.5-0.2-1-0.5-1.5l-1.3-2.2l-7.3,4l1.3,2.2c0.3,0.5,0.6,0.9,1,1.2c0.4,0.3,0.8,0.5,1.3,0.7c0.5,0.1,1,0.1,1.5,0
			S316.7,224.7,317.2,224.4z"/>
		<path style="fill:#4D4D4F;" d="M321.4,228.4l-6.9,2.9l-0.5-1.2l6.9-2.9L321.4,228.4z M323.7,227.7c-0.1,0-0.2,0.1-0.4,0.1
			c-0.1,0-0.2,0-0.4-0.1c-0.1,0-0.2-0.1-0.3-0.2c-0.1-0.1-0.2-0.2-0.2-0.3c0-0.1-0.1-0.2-0.1-0.4c0-0.1,0-0.2,0.1-0.4
			c0-0.1,0.1-0.2,0.2-0.3c0.1-0.1,0.2-0.2,0.3-0.2c0.1,0,0.2-0.1,0.4-0.1c0.1,0,0.2,0,0.4,0.1c0.1,0,0.2,0.1,0.3,0.2
			c0.1,0.1,0.2,0.2,0.2,0.3c0,0.1,0.1,0.2,0.1,0.4c0,0.1,0,0.2-0.1,0.4c0,0.1-0.1,0.2-0.2,0.3C323.9,227.6,323.8,227.7,323.7,227.7z
			"/>
		<path style="fill:#4D4D4F;" d="M322.6,235.7c-0.1,0-0.2-0.1-0.2-0.2c0-0.1,0-0.2,0-0.3c0-0.1,0-0.2,0.1-0.4c0-0.2,0-0.3,0-0.5
			c0-0.2,0-0.4-0.1-0.7c-0.1-0.2-0.2-0.4-0.3-0.6c-0.1-0.2-0.2-0.3-0.4-0.4c-0.1-0.1-0.3-0.1-0.4-0.2c-0.1,0-0.3,0-0.4,0
			c-0.2,0.1-0.3,0.2-0.4,0.3c-0.1,0.1-0.1,0.3-0.2,0.5c0,0.2,0,0.4,0,0.7c0,0.2,0,0.5,0,0.8c0,0.3,0,0.5,0,0.8
			c0,0.3-0.1,0.5-0.2,0.7c-0.1,0.2-0.2,0.4-0.4,0.6c-0.2,0.2-0.4,0.3-0.7,0.4c-0.3,0.1-0.7,0.1-1,0.1c-0.3,0-0.6-0.1-0.9-0.3
			c-0.3-0.2-0.5-0.4-0.8-0.7c-0.2-0.3-0.4-0.7-0.6-1.1c-0.2-0.5-0.2-1-0.2-1.5c0-0.5,0.1-0.9,0.3-1.3l0.6,0.1c0.1,0,0.1,0,0.2,0.1
			c0.1,0,0.1,0.1,0.1,0.2c0,0.1,0,0.2,0,0.3c0,0.1-0.1,0.3-0.1,0.4c0,0.2-0.1,0.4-0.1,0.6c0,0.2,0,0.5,0.1,0.8
			c0.1,0.2,0.2,0.5,0.3,0.6c0.1,0.2,0.3,0.3,0.4,0.4c0.1,0.1,0.3,0.1,0.5,0.2c0.2,0,0.3,0,0.5-0.1c0.2-0.1,0.3-0.2,0.4-0.3
			c0.1-0.1,0.2-0.3,0.2-0.5c0-0.2,0-0.4,0-0.7c0-0.2,0-0.5,0-0.8c0-0.3,0-0.5,0-0.8c0-0.3,0.1-0.5,0.2-0.7c0.1-0.2,0.2-0.4,0.4-0.6
			c0.2-0.2,0.4-0.3,0.7-0.4c0.3-0.1,0.6-0.1,0.8-0.1c0.3,0,0.6,0.1,0.8,0.3c0.3,0.2,0.5,0.4,0.7,0.7c0.2,0.3,0.4,0.6,0.5,1
			c0.2,0.5,0.2,0.9,0.2,1.4c0,0.4-0.1,0.8-0.3,1.2L322.6,235.7z"/>
		<path style="fill:#4D4D4F;" d="M317.6,242c-0.1-0.6-0.1-1.1,0.2-1.5c0.3-0.4,0.7-0.7,1.3-0.8l4.5-1l-0.2-0.9c0-0.1,0-0.2,0-0.2
			c0-0.1,0.1-0.1,0.2-0.1l0.5-0.1l0.4,1.2l2.3-0.2c0.1,0,0.1,0,0.2,0.1c0.1,0,0.1,0.1,0.1,0.2l0.2,0.7l-2.5,0.6l0.5,2.1l-0.9,0.2
			l-0.5-2.1l-4.4,1c-0.3,0.1-0.5,0.2-0.6,0.4c-0.1,0.2-0.1,0.4-0.1,0.6c0,0.1,0.1,0.3,0.1,0.3c0.1,0.1,0.1,0.2,0.2,0.2
			c0.1,0.1,0.1,0.1,0.2,0.2c0,0,0.1,0.1,0.1,0.1c0,0.1,0,0.1-0.1,0.2l-0.5,0.5c-0.3-0.2-0.5-0.4-0.7-0.7
			C317.8,242.6,317.7,242.3,317.6,242z"/>
		<path style="fill:#4D4D4F;" d="M318.4,245.2l7.5-1l0.1,0.8c0,0.1,0,0.2,0,0.3s-0.1,0.1-0.3,0.2l-1.1,0.3c0.6,0.2,1,0.4,1.3,0.8
			c0.3,0.3,0.6,0.8,0.6,1.3c0,0.2,0,0.4,0,0.6c0,0.2-0.1,0.3-0.1,0.5l-1,0c-0.1,0-0.2-0.1-0.2-0.2c0-0.1,0-0.2,0-0.3
			c0-0.2,0-0.4,0-0.6c-0.1-0.5-0.2-0.8-0.6-1.1c-0.3-0.3-0.7-0.5-1.3-0.6l-4.7,0.7L318.4,245.2z"/>
		<path style="fill:#4D4D4F;" d="M326.7,252.3l-7.5,0.5l-0.1-1.3l7.5-0.5L326.7,252.3z M329.1,252.4c-0.1,0-0.2,0-0.4-0.1
			c-0.1,0-0.2-0.1-0.3-0.2c-0.1-0.1-0.2-0.2-0.2-0.3c-0.1-0.1-0.1-0.2-0.1-0.4c0-0.1,0-0.3,0.1-0.4c0-0.1,0.1-0.2,0.2-0.3
			c0.1-0.1,0.2-0.2,0.3-0.2c0.1-0.1,0.2-0.1,0.4-0.1c0.1,0,0.3,0,0.4,0.1c0.1,0,0.2,0.1,0.3,0.2c0.1,0.1,0.2,0.2,0.2,0.3
			c0.1,0.1,0.1,0.2,0.1,0.4c0,0.1,0,0.3-0.1,0.4c0,0.1-0.1,0.2-0.2,0.3c-0.1,0.1-0.2,0.2-0.3,0.2
			C329.3,252.4,329.2,252.4,329.1,252.4z"/>
		<path style="fill:#4D4D4F;" d="M319.3,255.1l10.9,0.3l0,1.3l-4.5-0.1c0.4,0.3,0.6,0.7,0.8,1.1c0.2,0.4,0.3,0.9,0.3,1.4
			c0,0.4-0.1,0.8-0.3,1.2c-0.2,0.4-0.4,0.6-0.8,0.9c-0.3,0.2-0.7,0.4-1.2,0.5c-0.5,0.1-1,0.2-1.7,0.2c-0.6,0-1.1-0.1-1.5-0.3
			c-0.5-0.2-0.9-0.4-1.2-0.7c-0.3-0.3-0.6-0.7-0.8-1.1c-0.2-0.4-0.3-0.9-0.3-1.4c0-0.5,0.1-0.9,0.3-1.2c0.2-0.3,0.5-0.6,0.8-0.9
			l-0.7-0.1c-0.2,0-0.3-0.2-0.3-0.4L319.3,255.1z M325.8,258.7c0-0.4-0.1-0.8-0.3-1.2c-0.2-0.3-0.5-0.6-0.8-0.9l-3.6-0.1
			c-0.3,0.2-0.6,0.5-0.7,0.8c-0.1,0.3-0.2,0.6-0.2,1c0,0.7,0.2,1.3,0.7,1.7c0.5,0.4,1.2,0.6,2.1,0.6c0.5,0,0.9,0,1.3-0.1
			c0.4-0.1,0.6-0.2,0.9-0.4c0.2-0.2,0.4-0.4,0.5-0.6C325.7,259.3,325.8,259.1,325.8,258.7z"/>
		<path style="fill:#4D4D4F;" d="M326.2,265.7l-4.7-0.8c-0.6-0.1-1,0-1.4,0.2c-0.3,0.2-0.6,0.6-0.6,1.1c-0.1,0.4,0,0.8,0.1,1.1
			c0.1,0.4,0.3,0.7,0.6,1.1l5.5,0.9l-0.2,1.3l-7.4-1.2l0.1-0.8c0-0.2,0.1-0.3,0.3-0.3l0.8,0c-0.3-0.4-0.5-0.8-0.7-1.2
			c-0.2-0.4-0.2-0.9-0.1-1.5c0.1-0.4,0.2-0.8,0.4-1.1c0.2-0.3,0.4-0.5,0.7-0.7c0.3-0.2,0.6-0.3,1-0.3c0.4-0.1,0.8,0,1.2,0l4.7,0.8
			L326.2,265.7z"/>
		<path style="fill:#4D4D4F;" d="M316.7,273.8c0.2-0.6,0.4-1,0.8-1.2c0.4-0.2,0.9-0.3,1.5-0.1l4.4,1.2l0.2-0.9
			c0-0.1,0.1-0.1,0.1-0.2c0.1,0,0.1,0,0.2,0l0.5,0.1l-0.2,1.2l2.2,0.9c0.1,0,0.1,0.1,0.2,0.1c0,0.1,0,0.1,0,0.2l-0.2,0.7l-2.5-0.7
			l-0.6,2.1l-0.9-0.2l0.6-2.1l-4.4-1.2c-0.3-0.1-0.6-0.1-0.7,0c-0.2,0.1-0.3,0.3-0.4,0.5c0,0.1,0,0.3,0,0.4c0,0.1,0,0.2,0,0.3
			c0,0.1,0,0.2,0.1,0.2c0,0.1,0,0.1,0,0.1c0,0.1-0.1,0.1-0.2,0.1l-0.7,0.2c-0.1-0.3-0.2-0.6-0.3-0.9
			C316.6,274.5,316.6,274.1,316.7,273.8z"/>
		<path style="fill:#4D4D4F;" d="M322.5,280.9l-7.1-2.5l0.4-1.3l7.1,2.5L322.5,280.9z M324.6,281.9c-0.1,0-0.2-0.1-0.3-0.2
			c-0.1-0.1-0.2-0.2-0.2-0.3c-0.1-0.1-0.1-0.2-0.1-0.4c0-0.1,0-0.3,0.1-0.4c0-0.1,0.1-0.2,0.2-0.3c0.1-0.1,0.2-0.2,0.3-0.2
			c0.1-0.1,0.2-0.1,0.3-0.1c0.1,0,0.2,0,0.4,0c0.1,0,0.2,0.1,0.3,0.2c0.1,0.1,0.2,0.2,0.2,0.3c0.1,0.1,0.1,0.2,0.1,0.4
			c0,0.1,0,0.2-0.1,0.4c0,0.1-0.1,0.2-0.2,0.3c-0.1,0.1-0.2,0.2-0.3,0.2c-0.1,0.1-0.2,0.1-0.4,0.1C324.9,282,324.7,282,324.6,281.9z
			"/>
		<path style="fill:#4D4D4F;" d="M320.2,286.6c-0.2,0.5-0.5,0.9-0.9,1.3c-0.4,0.3-0.8,0.6-1.2,0.7c-0.4,0.1-0.9,0.2-1.4,0.1
			c-0.5,0-1-0.2-1.6-0.4c-0.5-0.2-1-0.5-1.4-0.9c-0.4-0.4-0.6-0.7-0.8-1.2c-0.2-0.4-0.2-0.9-0.2-1.4s0.2-1,0.4-1.5
			c0.2-0.5,0.5-0.9,0.9-1.3c0.4-0.3,0.7-0.6,1.2-0.7c0.4-0.1,0.9-0.2,1.4-0.2c0.5,0,1,0.2,1.6,0.4c0.5,0.2,1,0.5,1.3,0.9
			c0.4,0.4,0.6,0.7,0.8,1.2c0.2,0.4,0.2,0.9,0.2,1.4C320.6,285.6,320.5,286.1,320.2,286.6z M314.2,283.8c-0.3,0.7-0.3,1.3,0,1.8
			c0.3,0.5,0.8,1,1.7,1.4c0.8,0.4,1.5,0.5,2.1,0.4c0.6-0.1,1.1-0.5,1.4-1.2c0.2-0.3,0.2-0.7,0.2-1c0-0.3-0.1-0.6-0.2-0.9
			c-0.1-0.3-0.4-0.5-0.6-0.8c-0.3-0.2-0.6-0.4-1-0.6c-0.4-0.2-0.8-0.3-1.1-0.4c-0.4-0.1-0.7-0.1-1,0c-0.3,0.1-0.6,0.2-0.8,0.4
			C314.5,283.2,314.3,283.4,314.2,283.8z"/>
		<path style="fill:#4D4D4F;" d="M311,288l6.4,4l-0.4,0.7c-0.1,0.2-0.2,0.2-0.4,0.2l-0.7-0.3c0.1,0.5,0.2,0.9,0.1,1.4
			c0,0.5-0.2,0.9-0.5,1.4c-0.2,0.4-0.5,0.6-0.8,0.8c-0.3,0.2-0.6,0.3-0.9,0.4c-0.3,0-0.7,0-1-0.1s-0.7-0.3-1.1-0.5l-4.1-2.5l0.7-1.1
			l4.1,2.5c0.5,0.3,0.9,0.4,1.3,0.4c0.4-0.1,0.8-0.3,1-0.8c0.2-0.3,0.3-0.7,0.4-1.1c0-0.4,0-0.8-0.1-1.2l-4.7-2.9L311,288z"/>
	</g>
	<text transform="matrix(1 0 0 1 205.1887 269.8257)" style="fill:#538EBD; font-family:'Lato-Black'; font-size:46.8062px;">CEO</text>
</g>
<g id="network_text">
	<rect x="69.7" y="326.4" style="fill:none;" width="145" height="87.5"/>
	<text transform="matrix(1 0 0 1 69.6681 333.1196)"><tspan x="0" y="0" style="fill:#FFFFFF; font-family:'Lato-Black'; font-size:9px;">Office of Cuba  </tspan><tspan x="0" y="10.5" style="fill:#FFFFFF; font-family:'Lato-Black'; font-size:9px;">Broadcasting  </tspan><tspan x="0" y="21" style="fill:#FFFFFF; font-family:'Lato-Black'; font-size:9px;">(Radio and TV Martí)</tspan><tspan x="0" y="31.5" style="fill:#FFFFFF; font-family:'Lato-Regular'; font-size:9px;">Promotes freedom and  </tspan><tspan x="0" y="42" style="fill:#FFFFFF; font-family:'Lato-Regular'; font-size:9px;">democracy by providing the  </tspan><tspan x="0" y="52.5" style="fill:#FFFFFF; font-family:'Lato-Regular'; font-size:9px;">people of Cuba with objective  </tspan><tspan x="0" y="63" style="fill:#FFFFFF; font-family:'Lato-Regular'; font-size:9px;">news and information  </tspan><tspan x="0" y="73.5" style="fill:#FFFFFF; font-family:'Lato-Regular'; font-size:9px;">programming.</tspan></text>
	<rect x="303.4" y="363.5" style="fill:none;" width="149.1" height="89"/>
	<text transform="matrix(1 0 0 1 303.3942 370.2499)"><tspan x="0" y="0" style="fill:#FFFFFF; font-family:'Lato-Black'; font-size:9px;">Radio Free Europe/Radio Liberty</tspan><tspan x="0" y="10.5" style="fill:#FFFFFF; font-family:'Lato-Regular'; font-size:9px;">Promotes democratic values and </tspan><tspan x="0" y="21" style="fill:#FFFFFF; font-family:'Lato-Regular'; font-size:9px;">institutions by reporting the news in </tspan><tspan x="0" y="31.5" style="fill:#FFFFFF; font-family:'Lato-Regular'; font-size:9px;">countries where a free press is  </tspan><tspan x="0" y="42" style="fill:#FFFFFF; font-family:'Lato-Regular'; font-size:9px;">banned by the government or  </tspan><tspan x="0" y="52.5" style="fill:#FFFFFF; font-family:'Lato-Regular'; font-size:9px;">not fully established.</tspan></text>
	<rect x="43.5" y="137.9" style="fill:none;" width="101.4" height="120.1"/>
	<text transform="matrix(1 0 0 1 43.5396 144.6491)"><tspan x="0" y="0" style="fill:#FFFFFF; font-family:'Lato-Black'; font-size:9px;">Middle East  </tspan><tspan x="0" y="10.5" style="fill:#FFFFFF; font-family:'Lato-Black'; font-size:9px;">Broadcasting Networks  </tspan><tspan x="0" y="21" style="fill:#FFFFFF; font-family:'Lato-Black'; font-size:9px;">(Alhurra TV and  </tspan><tspan x="0" y="31.5" style="fill:#FFFFFF; font-family:'Lato-Black'; font-size:9px;">Radio Sawa)</tspan><tspan x="0" y="42" style="fill:#FFFFFF; font-family:'Lato-Regular'; font-size:9px;">Provides objective,  </tspan><tspan x="0" y="52.5" style="fill:#FFFFFF; font-family:'Lato-Regular'; font-size:9px;">accurate, and relevant  </tspan><tspan x="0" y="63" style="fill:#FFFFFF; font-family:'Lato-Regular'; font-size:9px;">news and information  </tspan><tspan x="0" y="73.5" style="fill:#FFFFFF; font-family:'Lato-Regular'; font-size:9px;">to the people of the  </tspan><tspan x="0" y="84" style="fill:#FFFFFF; font-family:'Lato-Regular'; font-size:9px;">Middle East about the  </tspan><tspan x="0" y="94.5" style="fill:#FFFFFF; font-family:'Lato-Regular'; font-size:9px;">region, the world,  </tspan><tspan x="0" y="105" style="fill:#FFFFFF; font-family:'Lato-Regular'; font-size:9px;">and the United States.</tspan></text>
	<rect x="193.9" y="31.4" style="fill:none;" width="157.2" height="81.9"/>
	<text transform="matrix(1 0 0 1 193.8557 38.1578)"><tspan x="0" y="0" style="fill:#FFFFFF; font-family:'Lato-Black'; font-size:9px;">Voice of America</tspan><tspan x="0" y="10.5" style="fill:#FFFFFF; font-family:'Lato-Regular'; font-size:9px;">Provides a consistently reliable and </tspan><tspan x="0" y="21" style="fill:#FFFFFF; font-family:'Lato-Regular'; font-size:9px;">authoritative source of news, tells </tspan><tspan x="0" y="31.5" style="fill:#FFFFFF; font-family:'Lato-Regular'; font-size:9px;">America’s story, and presents a </tspan><tspan x="0" y="42" style="fill:#FFFFFF; font-family:'Lato-Regular'; font-size:9px;">balanced and comprehensive projection </tspan><tspan x="0" y="52.5" style="fill:#FFFFFF; font-family:'Lato-Regular'; font-size:9px;">of significant American thought and </tspan><tspan x="0" y="63" style="fill:#FFFFFF; font-family:'Lato-Regular'; font-size:9px;">institutions.</tspan></text>
	<rect x="368.5" y="173.5" style="fill:none;" width="161.1" height="88"/>
	<text transform="matrix(1 0 0 1 368.5052 180.2662)"><tspan x="0" y="0" style="fill:#FFFFFF; font-family:'Lato-Black'; font-size:9px;">Radio Free Asia</tspan><tspan x="0" y="10.5" style="fill:#FFFFFF; font-family:'Lato-Regular'; font-size:9px;">Provides reliable, unbiased  </tspan><tspan x="0" y="21" style="fill:#FFFFFF; font-family:'Lato-Regular'; font-size:9px;">news and information to </tspan><tspan x="0" y="31.5" style="fill:#FFFFFF; font-family:'Lato-Regular'; font-size:9px;"> six Asian countries that  </tspan><tspan x="0" y="42" style="fill:#FFFFFF; font-family:'Lato-Regular'; font-size:9px;">restrict free speech and  </tspan><tspan x="0" y="52.5" style="fill:#FFFFFF; font-family:'Lato-Regular'; font-size:9px;">prohibit access to a free press.</tspan></text>
</g>
<g id="network_logos">
	<g>
		<path style="fill:#FFFFFF;" d="M118,276.4c2.1-0.8,3.3-2.2,3.3-4.7c0-3.5-2.8-5.2-6.6-5.2h-12.3l-4.3,12.8l-4.3-12.8h-8.4V287h5.5
			v-13.6l4.5,13.6h5.3l4.5-13.6V287h9c3.7,0,8-1,8-5.9C122.2,278.6,120.6,277,118,276.4z M112.7,283.1h-2v-12.7h1.6
			c1.8,0,3.6,0.2,3.6,2c0,1.7-1.8,2.2-3.6,2.2h-0.4v3.7h0.9c1.9,0,4,0.2,4,2.4C116.8,282.8,114.7,283.1,112.7,283.1z"/>
		<polygon style="fill:#FFFFFF;" points="136.4,266.5 136.4,280.2 129.7,266.5 122.6,266.5 122.6,287 128,287 128,274.3 134.3,287 
			141.8,287 141.8,266.5 		"/>
	</g>
	<g>
		<path style="fill:#FFFFFF;" d="M225.4,144.1l-8.9-24.4h-9.2l-1.5,4.4c1.7,2.1,2.7,4.8,2.7,7.7c0,5.9-4.1,10.8-9.6,12.2l0,0h9.3
			c0,0,3.9-14.7,3.9-14.8c0,0,0,0,0,0l0,0l0,0c0.1,0.2,4,14.8,4,14.8H225.4z"/>
		<path style="fill:#FFFFFF;" d="M192.9,119.8H184c0,0-3.9,14.5-4,14.8v0l0,0c0,0,0,0,0,0c0,0-3.9-14.8-3.9-14.8h-9.3l8.5,24.4h9.2
			l1.7-4.6c-1.6-2.1-2.6-4.8-2.6-7.7C183.5,126.1,187.5,121.1,192.9,119.8z"/>
		<circle style="fill:#FFFFFF;" cx="196" cy="131.9" r="4.9"/>
	</g>
	<g id="color_2_">
		<path id="New_Symbol_2_" style="fill:#FFFFFF;" d="M389.7,306.2c-4.8,0.6-6.2,5.6-9.8,9.9c-4.9,5.8-12.1,2.8-12.1,2.8
			c4.9-0.6,6.3-5.7,10-10C382.7,303.2,389.7,306.2,389.7,306.2z M372.1,314.6c0,0,6.1-4.8,3.4-11.9c-2-5.3-5.8-9.1-3.8-13.6
			c0,0-6,4.9-3.5,11.9C370.2,306.4,374.1,310.2,372.1,314.6z M371.7,313.6c0,0,0.6-7.8-6.1-10.7c-5.2-2.3-10.7-2.1-12.6-6.6
			c0,0-0.7,7.7,6.4,10.7C364.6,309.2,369.9,309.1,371.7,313.6z M363.8,326.7h13.6l3.2-6.4h-16.8V326.7z M365.9,345.4h1.1l7.8-17.9
			h-9V345.4z"/>
	</g>
	<g>
		<path style="fill:#FFFFFF;" d="M221.2,400c-3.5-2-7.2-3.6-11.1-4.3c-3.4,2.6-5.6,4.7-8.6,7.9c2.6-9.1,7.6-18.3,15-26.6
			c-0.2,2.9-0.1,5.8,0.3,8.6c3.2-0.3,6.3-0.4,9.4-0.3c-2.9,1.4-5.8,3-8.6,4.8C218.4,393.6,219.6,396.9,221.2,400z"/>
		<path style="fill:#FFFFFF;" d="M198.8,372.3c2.6,0.8,5.4,1.2,8.2,1.3c1.9-2.7,3.6-5.5,5.1-8.5c0,2.8-0.2,6.1-0.7,9.1
			c3,0.2,5.2,0.3,8.5,0.2l-9.3,4.6c0,0-0.5,2.6-3.2,7.9c-0.7-1.8-1.6-3.5-2.3-5.4c-2.4,0.7-4.9,1.5-7.1,2.1c1.8-1.7,3.6-3.7,5.3-5.7
			C201.9,375.6,200.5,374.1,198.8,372.3z"/>
		<path style="fill:#FFFFFF;" d="M216.5,370.6l-0.1-0.7c-0.1-1-0.3-2-0.5-3c-1,0.3-2,0.5-3,0.6l-0.7,0.1l0.5-0.4
			c0.9-0.7,1.7-1.5,2.4-2.3c-0.5-1.1-1.9-3.7-1.9-3.7s2.3,1.4,3.3,1.8c0.5-0.7,0.9-1.4,1.2-2.2l0.3-0.6l0.1,0.7
			c0.1,0.9,0.1,1.8,0.1,2.7c0.8,0.2,1.6,0.4,2.5,0.5l0.5,0.1l-0.4,0.3c-0.9,0.7-1.9,1.2-2.9,1.7c-0.3,1.3-0.7,2.7-1.3,3.9
			L216.5,370.6L216.5,370.6z M216.1,366.4l0.1,0.2c0.2,0.8,0.4,1.7,0.5,2.5c0.4-1,0.8-2.1,1-3.2l0-0.1l0.1,0
			c0.9-0.4,1.7-0.9,2.5-1.4c-0.7-0.1-1.5-0.3-2.2-0.5l-0.1,0l0-0.2c0-0.7,0-1.4,0-2.1c-0.3,0.6-0.7,1.2-1.1,1.7l-0.1,0.1l-0.1-0.1
			c-0.8-0.3-1.6-0.7-2.4-1.2c0.5,0.8,1,1.7,1.3,2.6l0,0.1l-0.1,0.1c-0.6,0.7-1.3,1.4-2,2c0.8-0.1,1.6-0.3,2.4-0.6L216.1,366.4
			L216.1,366.4z"/>
		<path style="fill:#FFFFFF;" d="M263,375h3.1l-2.4,8.9h-3.1L263,375z M265.7,371.6h3.6l-3.7,2.3h-2L265.7,371.6z"/>
		<path style="fill:#FFFFFF;" d="M257,372.4h3.1l-0.7,2.6h2l-0.5,1.9h-2l-1.1,3.9c0,0.1-0.1,0.3-0.1,0.4c0,0.1,0,0.2,0,0.3
			c0,0.1,0.1,0.2,0.2,0.2c0.1,0.1,0.2,0.1,0.4,0.1l1.1,0l-0.6,2c-0.3,0-0.6,0.1-0.9,0.1c-0.2,0-0.5,0-0.8,0c-0.3,0-0.5,0-0.8,0
			c-0.3,0-0.5,0-0.8-0.1c-0.2-0.1-0.4-0.2-0.6-0.3c-0.2-0.1-0.3-0.3-0.5-0.5c-0.1-0.3-0.2-0.6-0.1-0.9c0-0.3,0.1-0.7,0.2-1.1
			l1.1-4.2h-1.5l0.5-1.9h1.5L257,372.4z"/>
		<path style="fill:#FFFFFF;" d="M250.9,375.9c0.2-0.1,0.9-0.5,1.3-0.6c0.5-0.2,1.2-0.3,1.9-0.3l-0.5,1.8c0,0-0.8,0-1.7,0.3
			c-0.4,0.1-1.2,0.5-1.5,1c-0.1,0.2-0.2,0.4-0.3,0.7l-1.4,5h-3.1l2.4-8.9h3L250.9,375.9z"/>
		<path style="fill:#FFFFFF;" d="M237.3,377.5c0.1-0.3,0.3-0.6,0.5-1c0.2-0.3,0.6-0.7,1.1-1c0.6-0.3,1.2-0.5,1.8-0.6
			c0.6-0.1,1.2-0.1,1.8-0.1c0.3,0,0.7,0,1.2,0.1c0.5,0.1,0.9,0.2,1.4,0.3c0.4,0.2,0.8,0.4,1,0.8c0.2,0.3,0.3,0.8,0.1,1.4l-1.4,5.2
			c-0.1,0.2-0.1,0.4-0.1,0.6c0,0.1-0.1,0.3,0,0.4c0,0.1,0,0.2,0,0.2c0,0.1,0,0.1,0.1,0.2h-3l0.2-0.8c-0.2,0.1-0.5,0.3-0.7,0.4
			c-0.2,0.1-0.5,0.2-0.8,0.3c-0.3,0.1-0.6,0.2-0.9,0.2c-0.3,0.1-0.7,0.1-1.1,0.1c-0.6,0-1.1-0.1-1.5-0.2c-0.4-0.2-0.7-0.4-0.9-0.6
			c-0.2-0.3-0.3-0.6-0.4-0.9c0-0.3,0-0.6,0.1-0.9c0.1-0.4,0.3-0.7,0.5-1c0.2-0.3,0.5-0.5,0.7-0.7c0.3-0.2,0.6-0.4,0.9-0.5
			c0.3-0.1,0.6-0.3,0.8-0.3c0.2-0.1,0.5-0.2,0.9-0.2c0.4-0.1,0.7-0.1,1.1-0.2c0.4-0.1,0.8-0.1,1.2-0.2c0.4-0.1,0.8-0.1,1.1-0.2
			l0.1-0.5c0-0.1,0-0.2,0-0.3c0-0.1,0-0.2,0-0.4c0-0.1-0.1-0.2-0.3-0.3c-0.1-0.1-0.3-0.1-0.6-0.1c-0.3,0-0.6,0-0.8,0.1
			c-0.2,0.1-0.4,0.2-0.5,0.3c-0.1,0.1-0.3,0.2-0.3,0.3c-0.1,0.1-0.1,0.2-0.2,0.3H237.3z M240.5,380.2c-0.1,0-0.3,0.1-0.5,0.2
			c-0.2,0.1-0.3,0.1-0.5,0.2c-0.2,0.1-0.3,0.2-0.4,0.3c-0.1,0.1-0.2,0.3-0.2,0.4c-0.1,0.2,0,0.4,0.1,0.6c0.2,0.2,0.4,0.3,0.8,0.3
			c0.2,0,0.4,0,0.6-0.1c0.2-0.1,0.4-0.1,0.6-0.2c0.3-0.1,0.5-0.3,0.7-0.5c0.2-0.2,0.3-0.4,0.5-0.5c0.1-0.2,0.2-0.4,0.3-0.6
			c0.1-0.2,0.1-0.4,0.2-0.7L240.5,380.2z"/>
		<path style="fill:#FFFFFF;" d="M237.5,371.8l-3.3,12.1h-3.4l2.5-8.6l0.4-1.2l-0.2,0.4c-0.1,0.2-0.2,0.3-0.2,0.4
			c-0.1,0.1-0.1,0.2-0.2,0.3c0,0.1-0.1,0.2-0.1,0.3c0,0.1-0.1,0.2-0.2,0.3l-4.8,8.1h-3l-0.4-7.8l0-2.2c-0.1,0.2-0.1,0.4-0.1,0.6
			c0,0.2-0.1,0.3-0.1,0.5c0,0.2-0.1,0.3-0.1,0.5c0,0.2-0.1,0.4-0.2,0.7l-1.9,7.6h-3.4l3.3-12.1h5.1l0.3,6.8l0,1.9
			c0.1-0.2,0.2-0.4,0.3-0.5c0.1-0.1,0.1-0.2,0.2-0.3c0.1-0.1,0.1-0.2,0.2-0.3c0.1-0.1,0.1-0.2,0.2-0.3l4.2-7.2H237.5z"/>
	</g>
	<g>
		<path style="fill:#FFFFFF;" d="M327.3,156.1c0.7,0,2.2,0,2.2-1.6c0-1.6-1.4-1.7-2.2-1.7h-1.5c-0.2,1.1-0.3,2.2-0.4,3.3H327.3z"/>
		<path style="fill:#FFFFFF;" d="M347.5,134.8c-9.7,0-18,6.3-20.9,15h1.4c1.3,0,2.6,0.1,3.5,0.4c1.9,0.8,2.5,2.7,2.5,4.1
			c0,0.5-0.1,1.8-1.1,2.9c-0.6,0.6-1.2,0.8-1.8,1.1l3.5,5.7h-5l-2.8-5h-1.2c1.1,11.2,10.5,20,22,20c12.2,0,22.1-9.9,22.1-22.1
			C369.6,144.7,359.7,134.8,347.5,134.8z M339.5,164H335v-14.2h9.9v3h-5.5v3.1h5.5v3h-5.5V164z M354.5,164l-0.6-2h-4.9l-0.6,2h-4.8
			l5.4-14.2h5.1l5.3,14.2H354.5z"/>
		<polygon style="fill:#FFFFFF;" points="349.8,159 353,159 351.4,153.8 		"/>
	</g>
</g>
</svg>
