<?xml version="1.0" encoding="utf-8"?>
<!-- Generator: Adobe Illustrator 21.0.2, SVG Export Plug-In . SVG Version: 6.00 Build 0)  -->
<svg version="1.1" xmlns="http://www.w3.org/2000/svg" xmlns:xlink="http://www.w3.org/1999/xlink" x="0px" y="0px"
	 viewBox="0 0 890 638" style="enable-background:new 0 0 890 638;" xml:space="preserve">
<style type="text/css">
	.st0{fill:#A0AFB5;}
	.st1{fill:#FFFFFF;}
	.st2{fill:#0071BC;}
	.st3{fill:#961D22;}
	.st4{stroke:#FFFFFF;stroke-miterlimit:10;}
</style>
<g id="work_2">
	<circle class="st0" cx="164.3" cy="467.6" r="156.4"/>
	<circle class="st1" cx="164.3" cy="496.9" r="127.1"/>
	<g>
		<path d="M133.3,471c1.1,0,2.1,0.2,3.1,0.5c0.9,0.3,1.8,0.8,2.5,1.4s1.2,1.4,1.6,2.3s0.6,1.9,0.6,3c0,1-0.1,1.8-0.4,2.7
			c-0.3,0.8-0.7,1.6-1.2,2.3c-0.5,0.8-1.1,1.5-1.7,2.2s-1.3,1.4-2,2.2l-6.8,6.9c0.5-0.1,1-0.2,1.5-0.3s1-0.1,1.4-0.1h8.6
			c0.3,0,0.6,0.1,0.8,0.3c0.2,0.2,0.3,0.5,0.3,0.8v1.9h-17.2V496c0-0.2,0-0.5,0.1-0.7c0.1-0.2,0.2-0.5,0.4-0.7l8.3-8.3
			c0.7-0.7,1.3-1.4,1.9-2c0.6-0.6,1-1.3,1.4-1.9c0.4-0.6,0.7-1.3,0.9-2s0.3-1.4,0.3-2.1c0-0.8-0.1-1.4-0.4-2s-0.6-1-1-1.4
			c-0.4-0.4-0.9-0.7-1.5-0.8c-0.6-0.2-1.2-0.3-1.8-0.3s-1.2,0.1-1.8,0.3c-0.6,0.2-1,0.5-1.5,0.8c-0.4,0.3-0.8,0.7-1.1,1.2
			c-0.3,0.5-0.5,1-0.6,1.5c-0.1,0.3-0.2,0.6-0.4,0.8s-0.4,0.2-0.8,0.2c-0.1,0-0.1,0-0.2,0s-0.1,0-0.2,0l-1.7-0.3
			c0.2-1.2,0.5-2.2,1-3.1c0.5-0.9,1.1-1.7,1.8-2.3c0.7-0.6,1.6-1.1,2.5-1.4C131.2,471.1,132.2,471,133.3,471z"/>
		<path d="M163.2,484.2c0,2.3-0.2,4.2-0.7,5.9c-0.5,1.7-1.1,3-2,4.1c-0.8,1.1-1.8,1.9-3,2.4c-1.1,0.5-2.4,0.8-3.7,0.8
			c-1.3,0-2.5-0.3-3.7-0.8c-1.1-0.5-2.1-1.3-3-2.4s-1.5-2.4-2-4.1c-0.5-1.6-0.7-3.6-0.7-5.9s0.2-4.2,0.7-5.9s1.1-3,2-4.1
			s1.8-1.9,3-2.4c1.1-0.5,2.4-0.8,3.7-0.8c1.3,0,2.5,0.3,3.7,0.8s2.1,1.3,3,2.4c0.8,1.1,1.5,2.5,2,4.1
			C162.9,480,163.2,481.9,163.2,484.2z M159.9,484.2c0-2-0.2-3.6-0.5-5c-0.3-1.3-0.8-2.4-1.3-3.2c-0.6-0.8-1.2-1.4-1.9-1.8
			c-0.7-0.4-1.5-0.5-2.3-0.5s-1.6,0.2-2.3,0.5c-0.7,0.4-1.4,0.9-1.9,1.8c-0.6,0.8-1,1.9-1.3,3.2c-0.3,1.3-0.5,3-0.5,5
			s0.2,3.6,0.5,4.9c0.3,1.3,0.8,2.4,1.3,3.2c0.6,0.8,1.2,1.4,1.9,1.8c0.7,0.4,1.5,0.5,2.3,0.5s1.6-0.2,2.3-0.5
			c0.7-0.4,1.4-0.9,1.9-1.8s1-1.9,1.3-3.2C159.7,487.8,159.9,486.1,159.9,484.2z"/>
		<path d="M169.4,494.6h5.5V477c0-0.5,0-1.1,0.1-1.6l-4.6,3.9c-0.1,0.1-0.2,0.2-0.4,0.2c-0.1,0-0.2,0.1-0.3,0.1
			c-0.2,0-0.3,0-0.5-0.1c-0.1-0.1-0.3-0.2-0.3-0.3l-1-1.4l7.7-6.6h2.6v23.4h5.1v2.4h-13.8V494.6z"/>
		<path d="M202.8,472.7c0,0.5-0.1,0.8-0.4,1.1s-0.8,0.4-1.5,0.4h-8.1l-1.2,6.8c1.3-0.3,2.6-0.4,3.7-0.4c1.3,0,2.5,0.2,3.6,0.6
			c1,0.4,1.9,0.9,2.6,1.6c0.7,0.7,1.2,1.5,1.6,2.5c0.4,0.9,0.5,2,0.5,3.1c0,1.4-0.2,2.6-0.7,3.7c-0.5,1.1-1.1,2-2,2.8
			c-0.8,0.8-1.8,1.4-2.9,1.8c-1.1,0.4-2.3,0.6-3.7,0.6c-0.8,0-1.5-0.1-2.2-0.2c-0.7-0.2-1.3-0.4-1.9-0.6s-1.2-0.5-1.7-0.9
			c-0.5-0.3-1-0.7-1.4-1l1-1.4c0.2-0.3,0.5-0.5,0.9-0.5c0.2,0,0.5,0.1,0.8,0.3c0.3,0.2,0.7,0.4,1.1,0.6c0.4,0.2,0.9,0.4,1.5,0.6
			c0.6,0.2,1.3,0.3,2.1,0.3c0.9,0,1.7-0.1,2.4-0.4c0.7-0.3,1.3-0.7,1.8-1.2c0.5-0.5,0.9-1.2,1.2-1.9c0.3-0.7,0.4-1.6,0.4-2.5
			c0-0.8-0.1-1.5-0.4-2.2c-0.2-0.6-0.6-1.2-1.1-1.7c-0.5-0.5-1.1-0.8-1.8-1.1c-0.7-0.3-1.5-0.4-2.5-0.4c-0.6,0-1.3,0.1-2,0.2
			c-0.7,0.1-1.4,0.3-2.2,0.5l-2-0.6l2.1-12.1h12.2V472.7z"/>
	</g>
	<g>
		<path class="st1" d="M126.5,326.3c1.3,0,2.6,0.2,3.7,0.6s2.2,1,3,1.7c0.8,0.8,1.5,1.7,2,2.8c0.5,1.1,0.7,2.3,0.7,3.7
			c0,1.2-0.2,2.3-0.5,3.3s-0.8,2-1.4,2.9c-0.6,0.9-1.3,1.8-2.1,2.7c-0.8,0.9-1.6,1.7-2.5,2.6l-8.3,8.5c0.6-0.2,1.2-0.3,1.8-0.4
			c0.6-0.1,1.2-0.1,1.7-0.1h10.6c0.4,0,0.8,0.1,1,0.4s0.4,0.6,0.4,1v2.4h-21v-1.3c0-0.3,0.1-0.6,0.2-0.9c0.1-0.3,0.3-0.6,0.5-0.8
			l10.1-10.1c0.8-0.9,1.6-1.7,2.3-2.5c0.7-0.8,1.3-1.6,1.8-2.4c0.5-0.8,0.9-1.6,1.1-2.4c0.3-0.8,0.4-1.7,0.4-2.6s-0.1-1.7-0.4-2.4
			s-0.7-1.3-1.2-1.7c-0.5-0.5-1.1-0.8-1.8-1c-0.7-0.2-1.4-0.3-2.2-0.3s-1.5,0.1-2.2,0.4c-0.7,0.2-1.3,0.6-1.8,1s-1,0.9-1.3,1.5
			c-0.4,0.6-0.6,1.2-0.8,1.9c-0.1,0.4-0.3,0.7-0.5,0.9c-0.2,0.2-0.5,0.3-0.9,0.3c-0.1,0-0.2,0-0.2,0c-0.1,0-0.2,0-0.3,0l-2-0.4
			c0.2-1.4,0.6-2.7,1.2-3.8s1.3-2,2.2-2.8c0.9-0.7,1.9-1.3,3.1-1.7S125.1,326.3,126.5,326.3z"/>
		<path class="st1" d="M163,342.4c0,2.8-0.3,5.1-0.9,7.2c-0.6,2-1.4,3.7-2.4,5c-1,1.3-2.2,2.3-3.6,2.9c-1.4,0.6-2.9,1-4.5,1
			c-1.6,0-3.1-0.3-4.5-1c-1.4-0.6-2.6-1.6-3.6-2.9c-1-1.3-1.8-3-2.4-5c-0.6-2-0.9-4.4-0.9-7.2c0-2.8,0.3-5.1,0.9-7.2
			c0.6-2,1.4-3.7,2.4-5c1-1.3,2.2-2.3,3.6-3c1.4-0.6,2.9-1,4.5-1c1.6,0,3.1,0.3,4.5,1c1.4,0.6,2.6,1.6,3.6,3c1,1.3,1.8,3,2.4,5
			C162.7,337.3,163,339.7,163,342.4z M158.9,342.4c0-2.4-0.2-4.4-0.6-6.1c-0.4-1.6-0.9-3-1.6-3.9s-1.5-1.7-2.4-2.1
			c-0.9-0.4-1.8-0.6-2.8-0.6c-1,0-1.9,0.2-2.8,0.6s-1.7,1.1-2.4,2.1s-1.2,2.3-1.6,3.9c-0.4,1.6-0.6,3.7-0.6,6.1s0.2,4.4,0.6,6
			c0.4,1.6,0.9,2.9,1.6,3.9s1.5,1.7,2.4,2.1s1.8,0.6,2.8,0.6c1,0,1.9-0.2,2.8-0.6c0.9-0.4,1.7-1.1,2.4-2.1s1.2-2.3,1.6-3.9
			S158.9,344.8,158.9,342.4z"/>
		<path class="st1" d="M170.6,355.2h6.8v-21.5c0-0.6,0-1.3,0.1-2l-5.6,4.8c-0.1,0.1-0.3,0.2-0.4,0.3c-0.1,0.1-0.3,0.1-0.4,0.1
			c-0.2,0-0.4,0-0.6-0.1c-0.2-0.1-0.3-0.2-0.4-0.3l-1.2-1.7l9.4-8.1h3.2v28.6h6.2v3h-16.9V355.2z"/>
		<path class="st1" d="M204.1,338.9c1.3,0,2.5,0.2,3.6,0.6c1.1,0.4,2.1,1,3,1.8c0.9,0.8,1.5,1.8,2,2.9s0.7,2.5,0.7,4
			c0,1.5-0.3,2.8-0.8,4c-0.5,1.2-1.3,2.3-2.2,3.3s-2.1,1.7-3.4,2.2c-1.3,0.5-2.8,0.8-4.4,0.8c-1.6,0-3-0.3-4.3-0.8
			c-1.3-0.5-2.4-1.2-3.3-2.2c-0.9-0.9-1.6-2.1-2.1-3.4c-0.5-1.3-0.7-2.8-0.7-4.5c0-1.4,0.3-2.8,0.9-4.4c0.6-1.6,1.6-3.2,2.9-5
			l8-10.8c0.2-0.3,0.5-0.5,0.9-0.7c0.4-0.2,0.8-0.3,1.3-0.3h3.5l-10.9,13.8c0.7-0.5,1.6-0.9,2.5-1.2
			C202.1,339,203,338.9,204.1,338.9z M195.9,348.5c0,1,0.1,1.9,0.4,2.8c0.3,0.8,0.7,1.6,1.3,2.2c0.6,0.6,1.3,1.1,2.1,1.4
			c0.8,0.3,1.7,0.5,2.8,0.5c1.1,0,2-0.2,2.9-0.5c0.9-0.3,1.6-0.8,2.2-1.4c0.6-0.6,1.1-1.3,1.4-2.1c0.3-0.8,0.5-1.7,0.5-2.7
			c0-1-0.2-2-0.5-2.8c-0.3-0.8-0.8-1.5-1.4-2.1c-0.6-0.6-1.3-1-2.1-1.3c-0.8-0.3-1.7-0.5-2.7-0.5c-1.1,0-2,0.2-2.9,0.5
			c-0.9,0.4-1.6,0.8-2.2,1.5c-0.6,0.6-1,1.3-1.4,2.1C196.1,346.8,195.9,347.6,195.9,348.5z"/>
	</g>
	<path class="st2" d="M592.9,463.9c0,89.2-72.3,161.5-161.5,161.5S270,553,270,463.9s71.3-161.5,160.5-161.5
		S592.9,374.7,592.9,463.9z"/>
	<path class="st1" d="M558.6,498.2c0,70.2-56.9,127.1-127.1,127.1s-127.1-56.9-127.1-127.1s55.9-127.1,126.1-127.1
		S558.6,428,558.6,498.2z"/>
	<g>
		<path d="M400.5,471.3c1.1,0,2.1,0.2,3.1,0.5c0.9,0.3,1.8,0.8,2.5,1.4s1.2,1.4,1.6,2.3c0.4,0.9,0.6,1.9,0.6,3c0,1-0.1,1.8-0.4,2.7
			c-0.3,0.8-0.7,1.6-1.2,2.3s-1.1,1.5-1.7,2.2s-1.3,1.4-2,2.2l-6.8,6.9c0.5-0.1,1-0.2,1.5-0.3s1-0.1,1.4-0.1h8.6
			c0.3,0,0.6,0.1,0.8,0.3c0.2,0.2,0.3,0.5,0.3,0.8v1.9h-17.2v-1.1c0-0.2,0-0.5,0.1-0.7c0.1-0.2,0.2-0.5,0.4-0.7l8.3-8.3
			c0.7-0.7,1.3-1.4,1.9-2c0.6-0.6,1-1.3,1.4-1.9c0.4-0.6,0.7-1.3,0.9-2s0.3-1.4,0.3-2.1c0-0.8-0.1-1.4-0.4-2s-0.6-1-1-1.4
			c-0.4-0.4-0.9-0.7-1.5-0.8c-0.6-0.2-1.2-0.3-1.8-0.3s-1.2,0.1-1.8,0.3c-0.6,0.2-1,0.5-1.5,0.8c-0.4,0.3-0.8,0.7-1.1,1.2
			c-0.3,0.5-0.5,1-0.6,1.5c-0.1,0.3-0.2,0.6-0.4,0.8s-0.4,0.2-0.8,0.2c-0.1,0-0.1,0-0.2,0s-0.1,0-0.2,0l-1.7-0.3
			c0.2-1.2,0.5-2.2,1-3.1c0.5-0.9,1.1-1.7,1.8-2.3c0.7-0.6,1.6-1.1,2.5-1.4C398.4,471.4,399.4,471.3,400.5,471.3z"/>
		<path d="M430.3,484.5c0,2.3-0.2,4.2-0.7,5.9c-0.5,1.7-1.1,3-2,4.1s-1.8,1.9-3,2.4c-1.1,0.5-2.4,0.8-3.7,0.8
			c-1.3,0-2.5-0.3-3.7-0.8c-1.1-0.5-2.1-1.3-3-2.4c-0.8-1.1-1.5-2.4-2-4.1c-0.5-1.6-0.7-3.6-0.7-5.9s0.2-4.2,0.7-5.9
			c0.5-1.7,1.1-3,2-4.1c0.8-1.1,1.8-1.9,3-2.4s2.4-0.8,3.7-0.8c1.3,0,2.5,0.3,3.7,0.8c1.1,0.5,2.1,1.3,3,2.4s1.5,2.5,2,4.1
			C430.1,480.3,430.3,482.2,430.3,484.5z M427,484.5c0-2-0.2-3.6-0.5-5s-0.8-2.4-1.3-3.2c-0.6-0.8-1.2-1.4-1.9-1.8
			c-0.7-0.4-1.5-0.5-2.3-0.5s-1.6,0.2-2.3,0.5c-0.7,0.4-1.4,0.9-1.9,1.8c-0.6,0.8-1,1.9-1.3,3.2s-0.5,3-0.5,5s0.2,3.6,0.5,4.9
			c0.3,1.3,0.8,2.4,1.3,3.2s1.2,1.4,1.9,1.8c0.7,0.4,1.5,0.5,2.3,0.5s1.6-0.2,2.3-0.5c0.7-0.4,1.4-0.9,1.9-1.8
			c0.6-0.8,1-1.9,1.3-3.2C426.8,488.1,427,486.5,427,484.5z"/>
		<path d="M436.6,494.9h5.5v-17.6c0-0.5,0-1.1,0.1-1.6l-4.6,3.9c-0.1,0.1-0.2,0.2-0.4,0.2c-0.1,0-0.2,0.1-0.3,0.1
			c-0.2,0-0.3,0-0.5-0.1c-0.1-0.1-0.3-0.2-0.3-0.3l-1-1.4l7.7-6.6h2.6v23.4h5.1v2.4h-13.8V494.9z"/>
		<path d="M469.9,473c0,0.5-0.1,0.8-0.4,1.1s-0.8,0.4-1.5,0.4h-8.1l-1.2,6.8c1.3-0.3,2.6-0.4,3.7-0.4c1.3,0,2.5,0.2,3.6,0.6
			c1,0.4,1.9,0.9,2.6,1.6c0.7,0.7,1.2,1.5,1.6,2.5c0.4,0.9,0.5,2,0.5,3.1c0,1.4-0.2,2.6-0.7,3.7c-0.5,1.1-1.1,2-2,2.8
			c-0.8,0.8-1.8,1.4-2.9,1.8s-2.3,0.6-3.7,0.6c-0.8,0-1.5-0.1-2.2-0.2c-0.7-0.2-1.3-0.4-1.9-0.6c-0.6-0.3-1.2-0.5-1.7-0.9
			c-0.5-0.3-1-0.7-1.4-1l1-1.4c0.2-0.3,0.5-0.5,0.9-0.5c0.2,0,0.5,0.1,0.8,0.3c0.3,0.2,0.7,0.4,1.1,0.6c0.4,0.2,0.9,0.4,1.5,0.6
			c0.6,0.2,1.3,0.3,2.1,0.3c0.9,0,1.7-0.1,2.4-0.4c0.7-0.3,1.3-0.7,1.8-1.2c0.5-0.5,0.9-1.2,1.2-1.9c0.3-0.7,0.4-1.6,0.4-2.5
			c0-0.8-0.1-1.5-0.4-2.2c-0.2-0.6-0.6-1.2-1.1-1.7c-0.5-0.5-1.1-0.8-1.8-1.1s-1.5-0.4-2.5-0.4c-0.6,0-1.3,0.1-2,0.2
			c-0.7,0.1-1.4,0.3-2.2,0.5l-2-0.6l2.1-12.1h12.2V473z"/>
	</g>
	<g>
		<path class="st1" d="M392.6,327.5c1.3,0,2.6,0.2,3.7,0.6s2.2,1,3,1.7s1.5,1.7,2,2.8c0.5,1.1,0.7,2.3,0.7,3.7
			c0,1.2-0.2,2.3-0.5,3.3s-0.8,2-1.4,2.9c-0.6,0.9-1.3,1.8-2.1,2.7c-0.8,0.9-1.6,1.7-2.5,2.6l-8.3,8.5c0.6-0.2,1.2-0.3,1.8-0.4
			c0.6-0.1,1.2-0.1,1.7-0.1h10.6c0.4,0,0.8,0.1,1,0.4c0.2,0.2,0.4,0.6,0.4,1v2.4h-21V358c0-0.3,0.1-0.6,0.2-0.9
			c0.1-0.3,0.3-0.6,0.5-0.8l10.1-10.1c0.8-0.9,1.6-1.7,2.3-2.5c0.7-0.8,1.3-1.6,1.8-2.4c0.5-0.8,0.9-1.6,1.1-2.4
			c0.3-0.8,0.4-1.7,0.4-2.6s-0.1-1.7-0.4-2.4s-0.7-1.3-1.2-1.7c-0.5-0.5-1.1-0.8-1.8-1c-0.7-0.2-1.4-0.3-2.2-0.3s-1.5,0.1-2.2,0.4
			c-0.7,0.2-1.3,0.6-1.8,1s-1,0.9-1.3,1.5c-0.4,0.6-0.6,1.2-0.8,1.9c-0.1,0.4-0.3,0.7-0.5,0.9c-0.2,0.2-0.5,0.3-0.9,0.3
			c-0.1,0-0.2,0-0.2,0c-0.1,0-0.2,0-0.3,0l-2-0.4c0.2-1.4,0.6-2.7,1.2-3.8s1.3-2,2.2-2.8c0.9-0.7,1.9-1.3,3.1-1.7
			S391.3,327.5,392.6,327.5z"/>
		<path class="st1" d="M429.1,343.6c0,2.8-0.3,5.1-0.9,7.2c-0.6,2-1.4,3.7-2.4,5s-2.2,2.3-3.6,2.9c-1.4,0.6-2.9,1-4.5,1
			c-1.6,0-3.1-0.3-4.5-1c-1.4-0.6-2.6-1.6-3.6-2.9c-1-1.3-1.8-3-2.4-5c-0.6-2-0.9-4.4-0.9-7.2c0-2.8,0.3-5.1,0.9-7.2
			c0.6-2,1.4-3.7,2.4-5c1-1.3,2.2-2.3,3.6-3c1.4-0.6,2.9-1,4.5-1c1.6,0,3.1,0.3,4.5,1c1.4,0.6,2.6,1.6,3.6,3c1,1.3,1.8,3,2.4,5
			C428.8,338.4,429.1,340.8,429.1,343.6z M425,343.6c0-2.4-0.2-4.4-0.6-6.1c-0.4-1.6-0.9-3-1.6-3.9c-0.7-1-1.5-1.7-2.4-2.1
			s-1.8-0.6-2.8-0.6c-1,0-1.9,0.2-2.8,0.6c-0.9,0.4-1.7,1.1-2.4,2.1s-1.2,2.3-1.6,3.9c-0.4,1.6-0.6,3.7-0.6,6.1s0.2,4.4,0.6,6
			s0.9,2.9,1.6,3.9s1.5,1.7,2.4,2.1c0.9,0.4,1.8,0.6,2.8,0.6c1,0,1.9-0.2,2.8-0.6s1.7-1.1,2.4-2.1c0.7-1,1.2-2.3,1.6-3.9
			C424.8,348,425,346,425,343.6z"/>
		<path class="st1" d="M436.7,356.3h6.8v-21.5c0-0.6,0-1.3,0.1-2l-5.6,4.8c-0.1,0.1-0.3,0.2-0.4,0.3c-0.1,0.1-0.3,0.1-0.4,0.1
			c-0.2,0-0.4,0-0.6-0.1c-0.2-0.1-0.3-0.2-0.4-0.3l-1.2-1.7l9.4-8.1h3.2v28.6h6.2v3h-16.9V356.3z"/>
		<path class="st1" d="M470.2,340c1.3,0,2.5,0.2,3.6,0.6c1.1,0.4,2.1,1,3,1.8c0.8,0.8,1.5,1.8,2,2.9s0.7,2.5,0.7,4
			c0,1.5-0.3,2.8-0.8,4c-0.5,1.2-1.3,2.3-2.2,3.3s-2.1,1.7-3.4,2.2c-1.3,0.5-2.8,0.8-4.4,0.8c-1.6,0-3-0.3-4.3-0.8s-2.4-1.2-3.3-2.2
			c-0.9-0.9-1.6-2.1-2.1-3.4c-0.5-1.3-0.7-2.8-0.7-4.5c0-1.4,0.3-2.8,0.9-4.4s1.6-3.2,2.9-5l8-10.8c0.2-0.3,0.5-0.5,0.9-0.7
			c0.4-0.2,0.8-0.3,1.3-0.3h3.5l-10.9,13.8c0.7-0.5,1.6-0.9,2.5-1.2S469.2,340,470.2,340z M462.1,349.6c0,1,0.1,1.9,0.4,2.8
			c0.3,0.8,0.7,1.6,1.3,2.2s1.3,1.1,2.1,1.4c0.8,0.3,1.7,0.5,2.8,0.5c1.1,0,2-0.2,2.9-0.5c0.9-0.3,1.6-0.8,2.2-1.4
			c0.6-0.6,1.1-1.3,1.4-2.1s0.5-1.7,0.5-2.7c0-1-0.2-2-0.5-2.8c-0.3-0.8-0.8-1.5-1.4-2.1c-0.6-0.6-1.3-1-2.1-1.3
			c-0.8-0.3-1.7-0.5-2.7-0.5c-1.1,0-2,0.2-2.9,0.5s-1.6,0.8-2.2,1.5s-1,1.3-1.4,2.1C462.3,347.9,462.1,348.7,462.1,349.6z"/>
	</g>
	<circle class="st3" cx="701.7" cy="447.7" r="179.3"/>
	<circle class="st1" cx="701.7" cy="499.9" r="127.1"/>
	<g>
		<path d="M670.8,472c1.1,0,2.1,0.2,3.1,0.5c0.9,0.3,1.8,0.8,2.5,1.4s1.2,1.4,1.6,2.3c0.4,0.9,0.6,1.9,0.6,3c0,1-0.1,1.8-0.4,2.7
			c-0.3,0.8-0.7,1.6-1.2,2.3s-1.1,1.5-1.7,2.2s-1.3,1.4-2,2.2l-6.8,6.9c0.5-0.1,1-0.2,1.5-0.3s1-0.1,1.4-0.1h8.6
			c0.3,0,0.6,0.1,0.8,0.3c0.2,0.2,0.3,0.5,0.3,0.8v1.9h-17.2V497c0-0.2,0-0.5,0.1-0.7s0.2-0.5,0.4-0.7l8.3-8.3
			c0.7-0.7,1.3-1.4,1.9-2c0.6-0.6,1-1.3,1.4-1.9c0.4-0.6,0.7-1.3,0.9-2s0.3-1.4,0.3-2.1c0-0.8-0.1-1.4-0.4-2s-0.6-1-1-1.4
			s-0.9-0.7-1.5-0.8c-0.6-0.2-1.2-0.3-1.8-0.3c-0.6,0-1.2,0.1-1.8,0.3c-0.6,0.2-1,0.5-1.5,0.8s-0.8,0.7-1.1,1.2
			c-0.3,0.5-0.5,1-0.6,1.5c-0.1,0.3-0.2,0.6-0.4,0.8c-0.2,0.2-0.4,0.2-0.8,0.2c-0.1,0-0.1,0-0.2,0c-0.1,0-0.1,0-0.2,0l-1.7-0.3
			c0.2-1.2,0.5-2.2,1-3.1c0.5-0.9,1.1-1.7,1.8-2.3c0.7-0.6,1.6-1.1,2.5-1.4C668.7,472.1,669.7,472,670.8,472z"/>
		<path d="M700.7,485.2c0,2.3-0.2,4.2-0.7,5.9c-0.5,1.7-1.1,3-2,4.1s-1.8,1.9-3,2.4c-1.1,0.5-2.4,0.8-3.7,0.8
			c-1.3,0-2.5-0.3-3.7-0.8c-1.1-0.5-2.1-1.3-3-2.4c-0.8-1.1-1.5-2.4-2-4.1c-0.5-1.6-0.7-3.6-0.7-5.9s0.2-4.2,0.7-5.9
			c0.5-1.7,1.1-3,2-4.1c0.8-1.1,1.8-1.9,3-2.4s2.4-0.8,3.7-0.8c1.3,0,2.5,0.3,3.7,0.8c1.1,0.5,2.1,1.3,3,2.4s1.5,2.5,2,4.1
			C700.4,481,700.7,482.9,700.7,485.2z M697.3,485.2c0-2-0.2-3.6-0.5-5s-0.8-2.4-1.3-3.2c-0.6-0.8-1.2-1.4-1.9-1.8
			c-0.7-0.4-1.5-0.5-2.3-0.5s-1.6,0.2-2.3,0.5c-0.7,0.4-1.4,0.9-1.9,1.8c-0.6,0.8-1,1.9-1.3,3.2s-0.5,3-0.5,5s0.2,3.6,0.5,4.9
			c0.3,1.3,0.8,2.4,1.3,3.2s1.2,1.4,1.9,1.8c0.7,0.4,1.5,0.5,2.3,0.5s1.6-0.2,2.3-0.5c0.7-0.4,1.4-0.9,1.9-1.8
			c0.6-0.8,1-1.9,1.3-3.2C697.2,488.8,697.3,487.1,697.3,485.2z"/>
		<path d="M706.9,495.6h5.5V478c0-0.5,0-1.1,0.1-1.6l-4.6,3.9c-0.1,0.1-0.2,0.2-0.4,0.2c-0.1,0-0.2,0.1-0.3,0.1
			c-0.2,0-0.3,0-0.5-0.1c-0.1-0.1-0.3-0.2-0.3-0.3l-1-1.4l7.7-6.6h2.6v23.4h5.1v2.4h-13.8V495.6z"/>
		<path d="M740.2,473.7c0,0.5-0.1,0.8-0.4,1.1s-0.8,0.4-1.5,0.4h-8.1l-1.2,6.8c1.3-0.3,2.6-0.4,3.7-0.4c1.3,0,2.5,0.2,3.6,0.6
			c1,0.4,1.9,0.9,2.6,1.6c0.7,0.7,1.2,1.5,1.6,2.5c0.4,0.9,0.5,2,0.5,3.1c0,1.4-0.2,2.6-0.7,3.7c-0.5,1.1-1.1,2-2,2.8
			c-0.8,0.8-1.8,1.4-2.9,1.8s-2.3,0.6-3.7,0.6c-0.8,0-1.5-0.1-2.2-0.2c-0.7-0.2-1.3-0.4-1.9-0.6c-0.6-0.3-1.2-0.5-1.7-0.9
			c-0.5-0.3-1-0.7-1.4-1l1-1.4c0.2-0.3,0.5-0.5,0.9-0.5c0.2,0,0.5,0.1,0.8,0.3c0.3,0.2,0.7,0.4,1.1,0.6c0.4,0.2,0.9,0.4,1.5,0.6
			c0.6,0.2,1.3,0.3,2.1,0.3c0.9,0,1.7-0.1,2.4-0.4c0.7-0.3,1.3-0.7,1.8-1.2c0.5-0.5,0.9-1.2,1.2-1.9c0.3-0.7,0.4-1.6,0.4-2.5
			c0-0.8-0.1-1.5-0.4-2.2c-0.2-0.6-0.6-1.2-1.1-1.7c-0.5-0.5-1.1-0.8-1.8-1.1s-1.5-0.4-2.5-0.4c-0.6,0-1.3,0.1-2,0.2
			c-0.7,0.1-1.4,0.3-2.2,0.5l-2-0.6l2.1-12.1h12.2V473.7z"/>
	</g>
	<g>
		<path class="st1" d="M663.9,309.3c1.3,0,2.6,0.2,3.7,0.6c1.2,0.4,2.2,1,3,1.7c0.8,0.8,1.5,1.7,2,2.8s0.7,2.3,0.7,3.7
			c0,1.2-0.2,2.3-0.5,3.3c-0.4,1-0.8,2-1.4,2.9c-0.6,0.9-1.3,1.8-2.1,2.7c-0.8,0.9-1.6,1.7-2.5,2.6l-8.3,8.5
			c0.6-0.2,1.2-0.3,1.8-0.4c0.6-0.1,1.2-0.1,1.7-0.1h10.6c0.4,0,0.8,0.1,1,0.4c0.2,0.2,0.4,0.6,0.4,1v2.4h-21v-1.3
			c0-0.3,0.1-0.6,0.2-0.9c0.1-0.3,0.3-0.6,0.5-0.8l10.1-10.1c0.8-0.9,1.6-1.7,2.3-2.5c0.7-0.8,1.3-1.6,1.8-2.4
			c0.5-0.8,0.9-1.6,1.1-2.4c0.3-0.8,0.4-1.7,0.4-2.6c0-0.9-0.1-1.7-0.4-2.4c-0.3-0.7-0.7-1.3-1.2-1.7c-0.5-0.5-1.1-0.8-1.8-1
			s-1.4-0.3-2.2-0.3s-1.5,0.1-2.2,0.4c-0.7,0.2-1.3,0.6-1.8,1s-1,0.9-1.3,1.5c-0.4,0.6-0.6,1.2-0.8,1.9c-0.1,0.4-0.3,0.7-0.5,0.9
			c-0.2,0.2-0.5,0.3-0.9,0.3c-0.1,0-0.2,0-0.2,0c-0.1,0-0.2,0-0.3,0l-2-0.4c0.2-1.4,0.6-2.7,1.2-3.8c0.6-1.1,1.3-2,2.2-2.8
			c0.9-0.7,1.9-1.3,3.1-1.7S662.6,309.3,663.9,309.3z"/>
		<path class="st1" d="M700.4,325.5c0,2.8-0.3,5.1-0.9,7.2c-0.6,2-1.4,3.7-2.4,5s-2.2,2.3-3.6,2.9c-1.4,0.6-2.9,1-4.5,1
			c-1.6,0-3.1-0.3-4.5-1c-1.4-0.6-2.6-1.6-3.6-2.9c-1-1.3-1.8-3-2.4-5c-0.6-2-0.9-4.4-0.9-7.2c0-2.8,0.3-5.1,0.9-7.2
			c0.6-2,1.4-3.7,2.4-5c1-1.3,2.2-2.3,3.6-3c1.4-0.6,2.9-1,4.5-1c1.6,0,3.1,0.3,4.5,1c1.4,0.6,2.6,1.6,3.6,3c1,1.3,1.8,3,2.4,5
			C700.1,320.3,700.4,322.7,700.4,325.5z M696.4,325.5c0-2.4-0.2-4.4-0.6-6.1c-0.4-1.6-0.9-3-1.6-3.9c-0.7-1-1.5-1.7-2.4-2.1
			c-0.9-0.4-1.8-0.6-2.8-0.6c-1,0-1.9,0.2-2.8,0.6c-0.9,0.4-1.7,1.1-2.4,2.1c-0.7,1-1.2,2.3-1.6,3.9c-0.4,1.6-0.6,3.7-0.6,6.1
			s0.2,4.4,0.6,6s0.9,2.9,1.6,3.9s1.5,1.7,2.4,2.1c0.9,0.4,1.8,0.6,2.8,0.6c1,0,1.9-0.2,2.8-0.6s1.7-1.1,2.4-2.1
			c0.7-1,1.2-2.3,1.6-3.9C696.2,329.9,696.4,327.9,696.4,325.5z"/>
		<path class="st1" d="M708.1,338.2h6.8v-21.5c0-0.6,0-1.3,0.1-2l-5.6,4.8c-0.1,0.1-0.3,0.2-0.4,0.3c-0.1,0.1-0.3,0.1-0.4,0.1
			c-0.2,0-0.4,0-0.6-0.1c-0.2-0.1-0.3-0.2-0.4-0.3l-1.2-1.7l9.4-8.1h3.2v28.6h6.2v3h-16.9V338.2z"/>
		<path class="st1" d="M741.6,321.9c1.3,0,2.5,0.2,3.6,0.6c1.1,0.4,2.1,1,3,1.8c0.8,0.8,1.5,1.8,2,2.9s0.7,2.5,0.7,4
			c0,1.5-0.3,2.8-0.8,4c-0.5,1.2-1.3,2.3-2.2,3.3s-2.1,1.7-3.4,2.2c-1.3,0.5-2.8,0.8-4.4,0.8c-1.6,0-3-0.3-4.3-0.8s-2.4-1.2-3.3-2.2
			c-0.9-0.9-1.6-2.1-2.1-3.4c-0.5-1.3-0.7-2.8-0.7-4.5c0-1.4,0.3-2.8,0.9-4.4s1.6-3.2,2.9-5l8-10.8c0.2-0.3,0.5-0.5,0.9-0.7
			c0.4-0.2,0.8-0.3,1.3-0.3h3.5l-10.9,13.8c0.7-0.5,1.6-0.9,2.5-1.2C739.5,322,740.5,321.9,741.6,321.9z M733.4,331.5
			c0,1,0.1,1.9,0.4,2.8c0.3,0.8,0.7,1.6,1.3,2.2s1.3,1.1,2.1,1.4c0.8,0.3,1.7,0.5,2.8,0.5c1.1,0,2-0.2,2.9-0.5
			c0.9-0.3,1.6-0.8,2.2-1.4c0.6-0.6,1.1-1.3,1.4-2.1s0.5-1.7,0.5-2.7c0-1-0.2-2-0.5-2.8c-0.3-0.8-0.8-1.5-1.4-2.1
			c-0.6-0.6-1.3-1-2.1-1.3c-0.8-0.3-1.7-0.5-2.7-0.5c-1.1,0-2,0.2-2.9,0.5s-1.6,0.8-2.2,1.5s-1,1.3-1.4,2.1
			C733.6,329.8,733.4,330.6,733.4,331.5z"/>
	</g>
</g>
<g id="white_type">
	<g>
		<path class="st3" d="M658.3,117.5c0,1.9-0.3,3.7-1,5.3c-0.6,1.6-1.5,3-2.7,4.1c-1.2,1.2-2.5,2-4.2,2.7c-1.6,0.6-3.4,1-5.4,1h-9.9
			v-26h9.9c2,0,3.8,0.3,5.4,1s3,1.5,4.2,2.7c1.2,1.1,2,2.5,2.7,4.1C658,113.9,658.3,115.6,658.3,117.5z M653.3,117.5
			c0-1.4-0.2-2.7-0.6-3.8c-0.4-1.1-0.9-2.1-1.6-2.9s-1.6-1.4-2.6-1.8c-1-0.4-2.2-0.6-3.4-0.6H640v18.3h5.1c1.3,0,2.4-0.2,3.4-0.6
			c1-0.4,1.9-1,2.6-1.8c0.7-0.8,1.3-1.7,1.6-2.9C653.1,120.2,653.3,118.9,653.3,117.5z"/>
		<path class="st3" d="M667.5,130.5h-4.9v-26h4.9V130.5z"/>
		<path class="st3" d="M685.3,127c1.1,0,2-0.1,2.9-0.3c0.8-0.2,1.6-0.5,2.3-0.8v-4.7h-3.3c-0.3,0-0.6-0.1-0.7-0.3s-0.3-0.4-0.3-0.6
			v-2.7h8.7V128c-0.7,0.5-1.3,0.9-2.1,1.3s-1.5,0.6-2.3,0.9s-1.7,0.4-2.6,0.5c-0.9,0.1-1.9,0.2-3,0.2c-1.9,0-3.6-0.3-5.2-1
			c-1.6-0.7-3-1.6-4.1-2.8c-1.2-1.2-2.1-2.6-2.7-4.2s-1-3.4-1-5.3c0-2,0.3-3.7,1-5.4c0.6-1.6,1.5-3,2.7-4.2c1.2-1.2,2.6-2.1,4.3-2.7
			c1.7-0.6,3.5-1,5.6-1c2.1,0,4,0.3,5.5,0.9s2.9,1.4,4,2.5l-1.4,2.2c-0.3,0.4-0.6,0.7-1.1,0.7c-0.3,0-0.6-0.1-0.9-0.3
			c-0.4-0.2-0.8-0.5-1.2-0.7c-0.4-0.2-0.8-0.4-1.3-0.6c-0.5-0.2-1-0.3-1.6-0.4c-0.6-0.1-1.3-0.2-2.1-0.2c-1.3,0-2.4,0.2-3.5,0.6
			s-1.9,1.1-2.7,1.9c-0.7,0.8-1.3,1.8-1.7,2.9c-0.4,1.1-0.6,2.4-0.6,3.8c0,1.5,0.2,2.8,0.6,4c0.4,1.2,1,2.2,1.8,3
			c0.8,0.8,1.7,1.4,2.7,1.8C683,126.8,684.1,127,685.3,127z"/>
		<path class="st3" d="M704.9,130.5H700v-26h4.9V130.5z"/>
		<path class="st3" d="M729.1,104.5v4h-7.8v22h-4.8v-22h-7.9v-4H729.1z"/>
		<path class="st3" d="M752.4,130.5h-3.7c-0.4,0-0.8-0.1-1-0.3c-0.3-0.2-0.5-0.5-0.6-0.8l-1.9-5.3h-10.8l-1.9,5.3
			c-0.1,0.3-0.3,0.5-0.6,0.8c-0.3,0.2-0.6,0.3-1,0.3H727l10.2-26h5L752.4,130.5z M735.5,120.7h8.3l-3.2-8.7
			c-0.1-0.4-0.3-0.8-0.5-1.4s-0.3-1.1-0.5-1.7c-0.2,0.6-0.3,1.2-0.5,1.7c-0.2,0.5-0.3,1-0.5,1.4L735.5,120.7z"/>
		<path class="st3" d="M759.9,126.5h10.4v4H755v-26h4.8V126.5z"/>
		<path class="st3" d="M655.8,206h8.2v6.4c0,0.6-0.2,1.1-0.6,1.6c-0.4,0.4-1,0.7-1.7,0.7h-5.9v15.9h-9.7v-15.9h-27.5
			c-0.8,0-1.4-0.2-2-0.7c-0.6-0.5-0.9-1-1.1-1.7l-1.1-5.6l30.8-41.2h10.5V206z M646.1,184.7c0-1,0-2,0.1-3.1
			c0.1-1.1,0.2-2.3,0.3-3.5L626.3,206h19.8V184.7z"/>
		<path class="st3" d="M677.8,222.2h13.2v-37.9c0-1.5,0-3,0.1-4.6l-9.4,7.8c-0.4,0.3-0.8,0.6-1.2,0.7c-0.4,0.1-0.8,0.2-1.2,0.2
			c-0.6,0-1.1-0.1-1.6-0.4c-0.5-0.3-0.9-0.5-1.1-0.9l-3.5-4.8l19.8-16.9h9.1v56.8h11.7v8.3h-36V222.2z"/>
		<path class="st3" d="M750.7,181.2c0,2.5-0.4,4.7-1.2,6.7s-1.9,3.7-3.3,5.1s-3,2.5-4.8,3.2c-1.8,0.8-3.7,1.1-5.7,1.1
			c-2.2,0-4.2-0.4-6-1.1c-1.8-0.7-3.4-1.8-4.7-3.2s-2.4-3.1-3.1-5.1c-0.8-2-1.1-4.2-1.1-6.7c0-2.5,0.4-4.8,1.1-6.8
			c0.7-2,1.8-3.8,3.1-5.2c1.3-1.4,2.9-2.5,4.7-3.3c1.8-0.8,3.8-1.1,6-1.1c2.2,0,4.2,0.4,6,1.1c1.8,0.8,3.4,1.9,4.8,3.3
			c1.3,1.4,2.4,3.1,3.1,5.2C750.3,176.4,750.7,178.7,750.7,181.2z M772.3,167.2c0.4-0.5,0.8-0.9,1.3-1.2c0.5-0.4,1.3-0.5,2.2-0.5
			h8.1l-48.3,63.4c-0.4,0.5-0.8,0.9-1.4,1.2c-0.6,0.3-1.2,0.5-2,0.5H724L772.3,167.2z M742.1,181.2c0-1.7-0.2-3.2-0.5-4.4
			s-0.8-2.1-1.4-2.8s-1.3-1.2-2.1-1.6c-0.8-0.3-1.6-0.5-2.5-0.5c-0.9,0-1.7,0.2-2.5,0.5c-0.8,0.3-1.5,0.8-2,1.6
			c-0.6,0.7-1,1.7-1.3,2.8c-0.3,1.2-0.5,2.6-0.5,4.4c0,1.7,0.2,3.1,0.5,4.2c0.3,1.1,0.8,2,1.3,2.7c0.6,0.7,1.2,1.2,2,1.5
			s1.6,0.4,2.5,0.4c0.9,0,1.7-0.1,2.5-0.4s1.5-0.8,2.1-1.5c0.6-0.7,1-1.6,1.4-2.7S742.1,182.9,742.1,181.2z M787.4,215.2
			c0,2.5-0.4,4.7-1.2,6.7s-1.9,3.7-3.3,5.1c-1.4,1.4-3,2.5-4.8,3.2c-1.8,0.8-3.7,1.1-5.7,1.1c-2.2,0-4.2-0.4-6-1.1s-3.4-1.8-4.7-3.2
			c-1.3-1.4-2.4-3.1-3.1-5.1s-1.1-4.2-1.1-6.7c0-2.5,0.4-4.8,1.1-6.8c0.8-2,1.8-3.8,3.1-5.2c1.3-1.4,2.9-2.5,4.7-3.3
			c1.8-0.8,3.8-1.1,6-1.1s4.2,0.4,6,1.1c1.8,0.8,3.4,1.9,4.8,3.3c1.3,1.4,2.4,3.1,3.2,5.2C787,210.4,787.4,212.7,787.4,215.2z
			 M778.8,215.2c0-1.7-0.2-3.2-0.5-4.4s-0.8-2.1-1.4-2.8s-1.3-1.2-2.1-1.6c-0.8-0.3-1.6-0.5-2.5-0.5c-0.9,0-1.7,0.2-2.5,0.5
			c-0.8,0.3-1.4,0.8-2,1.6c-0.6,0.7-1,1.7-1.3,2.8s-0.5,2.6-0.5,4.4c0,1.7,0.2,3.1,0.5,4.2s0.8,2.1,1.3,2.7c0.6,0.7,1.2,1.2,2,1.5
			c0.8,0.3,1.6,0.4,2.5,0.4c0.9,0,1.7-0.1,2.5-0.4c0.8-0.3,1.5-0.8,2.1-1.5c0.6-0.7,1-1.6,1.4-2.7S778.8,216.9,778.8,215.2z"/>
	</g>
	<g>
		<path class="st2" d="M378.9,148.4v10.2H374v-26h7.9c1.8,0,3.3,0.2,4.6,0.5c1.3,0.4,2.3,0.9,3.1,1.5c0.8,0.7,1.4,1.4,1.8,2.4
			c0.4,0.9,0.6,1.9,0.6,3c0,0.9-0.1,1.7-0.4,2.5c-0.3,0.8-0.6,1.5-1.1,2.1c-0.5,0.6-1.1,1.2-1.8,1.7c-0.7,0.5-1.5,0.9-2.4,1.2
			c0.6,0.3,1.1,0.8,1.6,1.5l6.5,9.6H390c-0.4,0-0.8-0.1-1.1-0.3c-0.3-0.2-0.5-0.4-0.7-0.7l-5.5-8.3c-0.2-0.3-0.4-0.5-0.7-0.7
			c-0.2-0.1-0.6-0.2-1.1-0.2H378.9z M378.9,144.9h3c0.9,0,1.7-0.1,2.4-0.3c0.7-0.2,1.2-0.5,1.7-0.9c0.4-0.4,0.8-0.9,1-1.4
			c0.2-0.6,0.3-1.2,0.3-1.8c0-1.3-0.4-2.3-1.3-3c-0.9-0.7-2.2-1.1-4-1.1h-3.1V144.9z"/>
		<path class="st2" d="M420.3,158.6h-3.7c-0.4,0-0.8-0.1-1-0.3c-0.3-0.2-0.5-0.5-0.6-0.8l-1.9-5.3h-10.8l-1.9,5.3
			c-0.1,0.3-0.3,0.5-0.6,0.8c-0.3,0.2-0.6,0.3-1,0.3h-3.8l10.2-26h5L420.3,158.6z M403.5,148.7h8.3l-3.2-8.7
			c-0.1-0.4-0.3-0.8-0.5-1.4s-0.3-1.1-0.5-1.7c-0.2,0.6-0.3,1.2-0.5,1.7c-0.2,0.5-0.3,1-0.5,1.4L403.5,148.7z"/>
		<path class="st2" d="M446.1,145.5c0,1.9-0.3,3.7-1,5.3c-0.6,1.6-1.5,3-2.7,4.1c-1.2,1.2-2.5,2-4.2,2.7c-1.6,0.6-3.4,1-5.4,1H423
			v-26h9.9c2,0,3.8,0.3,5.4,1s3,1.5,4.2,2.7c1.2,1.1,2,2.5,2.7,4.1C445.8,141.9,446.1,143.6,446.1,145.5z M441.2,145.5
			c0-1.4-0.2-2.7-0.6-3.8c-0.4-1.1-0.9-2.1-1.6-2.9s-1.6-1.4-2.6-1.8c-1-0.4-2.2-0.6-3.4-0.6h-5.1v18.3h5.1c1.3,0,2.4-0.2,3.4-0.6
			c1-0.4,1.9-1,2.6-1.8c0.7-0.8,1.3-1.7,1.6-2.9C441,148.2,441.2,147,441.2,145.5z"/>
		<path class="st2" d="M455.4,158.6h-4.9v-26h4.9V158.6z"/>
		<path class="st2" d="M486.2,145.5c0,1.9-0.3,3.7-1,5.3c-0.6,1.6-1.5,3-2.7,4.2s-2.5,2.1-4.2,2.8s-3.4,1-5.4,1s-3.8-0.3-5.4-1
			c-1.6-0.7-3-1.6-4.2-2.8s-2.1-2.6-2.7-4.2c-0.6-1.6-1-3.4-1-5.3c0-1.9,0.3-3.7,1-5.3c0.6-1.6,1.5-3,2.7-4.2s2.5-2.1,4.2-2.8
			c1.6-0.7,3.4-1,5.4-1s3.8,0.3,5.4,1c1.6,0.7,3,1.6,4.2,2.8s2,2.6,2.7,4.2C485.9,141.9,486.2,143.6,486.2,145.5z M481.2,145.5
			c0-1.4-0.2-2.7-0.6-3.8c-0.4-1.1-0.9-2.1-1.6-2.9s-1.6-1.4-2.6-1.8c-1-0.4-2.2-0.6-3.4-0.6c-1.3,0-2.4,0.2-3.4,0.6
			c-1,0.4-1.9,1-2.6,1.8s-1.3,1.8-1.6,2.9c-0.4,1.1-0.6,2.4-0.6,3.8c0,1.4,0.2,2.7,0.6,3.8c0.4,1.1,0.9,2.1,1.6,2.9
			c0.7,0.8,1.6,1.4,2.6,1.8c1,0.4,2.2,0.6,3.4,0.6c1.3,0,2.4-0.2,3.4-0.6c1-0.4,1.9-1,2.6-1.8c0.7-0.8,1.3-1.7,1.6-2.9
			C481,148.2,481.2,147,481.2,145.5z"/>
		<path class="st2" d="M368.1,192.8c3,0,5.7,0.4,8.2,1.3c2.5,0.9,4.6,2.1,6.4,3.8c1.8,1.6,3.2,3.6,4.1,5.9c1,2.3,1.5,4.8,1.5,7.6
			c0,2.4-0.4,4.6-1.1,6.7c-0.7,2-1.7,4-2.8,5.8c-1.2,1.9-2.6,3.7-4.2,5.4c-1.6,1.7-3.3,3.5-5,5.3l-14.7,15c1.4-0.4,2.8-0.7,4.2-1
			c1.4-0.2,2.7-0.3,4-0.3h16.7c1.2,0,2.2,0.3,2.9,1c0.7,0.7,1.1,1.6,1.1,2.7v6.7h-44.6v-3.7c0-0.7,0.2-1.5,0.5-2.3
			c0.3-0.8,0.8-1.6,1.5-2.2l19.8-19.8c1.6-1.7,3.1-3.3,4.4-4.8c1.3-1.5,2.4-3,3.3-4.5c0.9-1.5,1.6-3,2-4.6c0.5-1.5,0.7-3.2,0.7-4.9
			c0-1.6-0.2-2.9-0.7-4.1c-0.4-1.2-1.1-2.2-1.9-3c-0.8-0.8-1.8-1.4-3-1.8c-1.2-0.4-2.5-0.6-3.9-0.6c-2.7,0-4.9,0.7-6.6,2
			c-1.7,1.3-2.9,3.2-3.6,5.4c-0.3,1.1-0.8,2-1.5,2.5c-0.7,0.5-1.5,0.7-2.5,0.7c-0.5,0-0.9,0-1.5-0.1l-5.9-1c0.5-3.1,1.3-5.9,2.6-8.2
			c1.3-2.4,2.9-4.3,4.8-5.9s4.2-2.8,6.7-3.6C362.5,193.2,365.2,192.8,368.1,192.8z"/>
		<path class="st2" d="M442.5,193.5v4.8c0,1.4-0.2,2.6-0.5,3.5c-0.3,0.9-0.6,1.6-0.9,2.2l-24.6,50.8c-0.5,1.1-1.2,1.9-2.2,2.7
			c-0.9,0.7-2.2,1.1-3.8,1.1h-8.1l25.2-49.7c1-2,2.2-3.8,3.5-5.3h-31.1c-0.7,0-1.3-0.3-1.8-0.8c-0.5-0.5-0.8-1.1-0.8-1.8v-7.5H442.5
			z"/>
		<path class="st2" d="M478.2,209.2c0,2.5-0.4,4.7-1.2,6.7s-1.9,3.7-3.3,5.1s-3,2.5-4.8,3.2c-1.8,0.8-3.7,1.1-5.7,1.1
			c-2.2,0-4.2-0.4-6-1.1c-1.8-0.7-3.4-1.8-4.7-3.2s-2.4-3.1-3.1-5.1c-0.8-2-1.1-4.2-1.1-6.7c0-2.5,0.4-4.8,1.1-6.8
			c0.7-2,1.8-3.8,3.1-5.2c1.3-1.4,2.9-2.5,4.7-3.3c1.8-0.8,3.8-1.1,6-1.1c2.2,0,4.2,0.4,6,1.1c1.8,0.8,3.4,1.9,4.8,3.3
			c1.3,1.4,2.4,3.1,3.1,5.2C477.8,204.4,478.2,206.7,478.2,209.2z M499.8,195.2c0.4-0.5,0.8-0.9,1.3-1.2c0.5-0.4,1.3-0.5,2.2-0.5
			h8.1l-48.3,63.4c-0.4,0.5-0.8,0.9-1.4,1.2c-0.6,0.3-1.2,0.5-2,0.5h-8.3L499.8,195.2z M469.6,209.2c0-1.7-0.2-3.2-0.5-4.4
			s-0.8-2.1-1.4-2.8s-1.3-1.2-2.1-1.6c-0.8-0.3-1.6-0.5-2.5-0.5c-0.9,0-1.7,0.2-2.5,0.5c-0.8,0.3-1.5,0.8-2,1.6
			c-0.6,0.7-1,1.7-1.3,2.8c-0.3,1.2-0.5,2.6-0.5,4.4c0,1.7,0.2,3.1,0.5,4.2c0.3,1.1,0.8,2,1.3,2.7c0.6,0.7,1.2,1.2,2,1.5
			s1.6,0.4,2.5,0.4c0.9,0,1.7-0.1,2.5-0.4s1.5-0.8,2.1-1.5c0.6-0.7,1-1.6,1.4-2.7S469.6,210.9,469.6,209.2z M514.9,243.3
			c0,2.5-0.4,4.7-1.2,6.7s-1.9,3.7-3.3,5.1c-1.4,1.4-3,2.5-4.8,3.2c-1.8,0.8-3.7,1.1-5.7,1.1c-2.2,0-4.2-0.4-6-1.1s-3.4-1.8-4.7-3.2
			c-1.3-1.4-2.4-3.1-3.1-5.1s-1.1-4.2-1.1-6.7c0-2.5,0.4-4.8,1.1-6.8c0.8-2,1.8-3.8,3.1-5.2c1.3-1.4,2.9-2.5,4.7-3.3
			c1.8-0.8,3.8-1.1,6-1.1s4.2,0.4,6,1.1c1.8,0.8,3.4,1.9,4.8,3.3c1.3,1.4,2.4,3.1,3.2,5.2C514.5,238.5,514.9,240.7,514.9,243.3z
			 M506.4,243.3c0-1.7-0.2-3.2-0.5-4.4s-0.8-2.1-1.4-2.8s-1.3-1.2-2.1-1.6c-0.8-0.3-1.6-0.5-2.5-0.5c-0.9,0-1.7,0.2-2.5,0.5
			c-0.8,0.3-1.4,0.8-2,1.6c-0.6,0.7-1,1.7-1.3,2.8s-0.5,2.6-0.5,4.4c0,1.7,0.2,3.1,0.5,4.2s0.8,2.1,1.3,2.7c0.6,0.7,1.2,1.2,2,1.5
			c0.8,0.3,1.6,0.4,2.5,0.4c0.9,0,1.7-0.1,2.5-0.4c0.8-0.3,1.5-0.8,2.1-1.5c0.6-0.7,1-1.6,1.4-2.7S506.4,244.9,506.4,243.3z"/>
	</g>
	<g>
		<path class="st4" d="M161.4,140.6v4h-7.8v22h-4.8v-22h-7.9v-4H161.4z"/>
		<path class="st4" d="M161.9,140.6h3.9c0.4,0,0.8,0.1,1,0.3c0.3,0.2,0.5,0.5,0.6,0.8l6.1,15.9c0.2,0.5,0.4,1.1,0.6,1.7
			c0.2,0.6,0.4,1.3,0.5,2c0.3-1.4,0.6-2.6,1-3.7l6.1-15.9c0.1-0.3,0.3-0.5,0.6-0.8c0.3-0.2,0.6-0.3,1-0.3h3.9l-10.5,26h-4.4
			L161.9,140.6z"/>
		<path class="st4" d="M102.6,200.9c3,0,5.7,0.4,8.2,1.3c2.5,0.9,4.6,2.1,6.4,3.8c1.8,1.6,3.2,3.6,4.1,5.9c1,2.3,1.5,4.8,1.5,7.6
			c0,2.4-0.4,4.6-1.1,6.7c-0.7,2-1.7,4-2.8,5.8c-1.2,1.9-2.6,3.7-4.2,5.4c-1.6,1.7-3.3,3.5-5,5.3l-14.7,15c1.4-0.4,2.8-0.7,4.2-1
			c1.4-0.2,2.7-0.3,4-0.3H120c1.2,0,2.2,0.3,2.9,1c0.7,0.7,1.1,1.6,1.1,2.7v6.7H79.3V263c0-0.7,0.2-1.5,0.5-2.3
			c0.3-0.8,0.8-1.6,1.5-2.2l19.8-19.8c1.6-1.7,3.1-3.3,4.4-4.8c1.3-1.5,2.4-3,3.3-4.5c0.9-1.5,1.6-3,2-4.6c0.5-1.5,0.7-3.2,0.7-4.9
			c0-1.6-0.2-2.9-0.7-4.1c-0.4-1.2-1.1-2.2-1.9-3c-0.8-0.8-1.8-1.4-3-1.8c-1.2-0.4-2.5-0.6-3.9-0.6c-2.7,0-4.9,0.7-6.6,2
			c-1.7,1.3-2.9,3.2-3.6,5.4c-0.3,1.1-0.8,2-1.5,2.5c-0.7,0.5-1.5,0.7-2.5,0.7c-0.5,0-0.9,0-1.5-0.1l-5.9-1c0.5-3.1,1.3-5.9,2.6-8.2
			c1.3-2.4,2.9-4.3,4.8-5.9s4.2-2.8,6.7-3.6C97.1,201.3,99.8,200.9,102.6,200.9z"/>
		<path class="st4" d="M155.9,200.9c3,0,5.7,0.4,8.1,1.3c2.4,0.9,4.5,2,6.2,3.6c1.7,1.5,3,3.3,3.9,5.3c0.9,2,1.4,4.2,1.4,6.6
			c0,2.1-0.2,3.9-0.7,5.5c-0.5,1.6-1.1,2.9-2,4.1c-0.9,1.2-2,2.2-3.2,3c-1.3,0.8-2.7,1.5-4.3,2c3.9,1.2,6.8,3.1,8.7,5.6
			c1.9,2.5,2.9,5.7,2.9,9.5c0,3.2-0.6,6.1-1.8,8.6c-1.2,2.5-2.8,4.6-4.9,6.3c-2,1.7-4.4,3-7.1,3.8c-2.7,0.9-5.5,1.3-8.5,1.3
			c-3.3,0-6.1-0.4-8.5-1.1c-2.4-0.7-4.5-1.9-6.3-3.3c-1.8-1.5-3.3-3.3-4.6-5.4c-1.3-2.1-2.3-4.6-3.2-7.4l4.9-2
			c0.8-0.4,1.7-0.5,2.6-0.5c0.8,0,1.5,0.2,2.1,0.5c0.6,0.3,1.1,0.8,1.4,1.4c0.5,1.1,1.1,2.1,1.8,3.1c0.6,1,1.4,1.9,2.3,2.7
			c0.9,0.8,2,1.4,3.2,1.9c1.2,0.5,2.7,0.7,4.3,0.7c1.9,0,3.5-0.3,4.9-0.9c1.4-0.6,2.6-1.4,3.5-2.4c0.9-1,1.6-2.1,2.1-3.3
			c0.5-1.2,0.7-2.4,0.7-3.7c0-1.6-0.2-3-0.5-4.3c-0.3-1.3-1-2.4-2.1-3.3c-1.1-0.9-2.6-1.6-4.5-2.1c-2-0.5-4.6-0.8-7.9-0.8v-8
			c2.7,0,5-0.2,6.8-0.7c1.8-0.5,3.2-1.1,4.3-2c1.1-0.9,1.8-1.9,2.2-3.1c0.4-1.2,0.6-2.5,0.6-4c0-3.1-0.8-5.4-2.5-7
			c-1.7-1.6-4-2.4-6.9-2.4c-2.6,0-4.8,0.7-6.6,2.1c-1.7,1.4-3,3.2-3.6,5.4c-0.4,1.1-0.9,2-1.5,2.5c-0.6,0.5-1.5,0.7-2.5,0.7
			c-0.5,0-1,0-1.5-0.1l-5.9-1c0.5-3.1,1.3-5.9,2.6-8.2c1.3-2.4,2.9-4.3,4.8-5.9c1.9-1.6,4.2-2.8,6.7-3.6
			C150.3,201.3,153,200.9,155.9,200.9z"/>
		<path class="st4" d="M212.7,217.3c0,2.5-0.4,4.7-1.2,6.7c-0.8,2-1.9,3.7-3.3,5.1s-3,2.5-4.8,3.2c-1.8,0.8-3.7,1.1-5.7,1.1
			c-2.2,0-4.2-0.4-6-1.1c-1.8-0.7-3.4-1.8-4.7-3.2c-1.3-1.4-2.4-3.1-3.1-5.1c-0.8-2-1.1-4.2-1.1-6.7c0-2.5,0.4-4.8,1.1-6.8
			c0.7-2,1.8-3.8,3.1-5.2c1.3-1.4,2.9-2.5,4.7-3.3c1.8-0.8,3.8-1.1,6-1.1s4.2,0.4,6,1.1c1.8,0.8,3.4,1.9,4.8,3.3
			c1.4,1.4,2.4,3.1,3.2,5.2C212.4,212.5,212.7,214.8,212.7,217.3z M234.4,203.3c0.4-0.5,0.8-0.9,1.3-1.2c0.5-0.4,1.3-0.5,2.2-0.5
			h8.1L197.7,265c-0.4,0.5-0.8,0.9-1.4,1.2c-0.6,0.3-1.2,0.5-2,0.5h-8.3L234.4,203.3z M204.1,217.3c0-1.7-0.2-3.2-0.5-4.4
			s-0.8-2.1-1.4-2.8c-0.6-0.7-1.3-1.2-2.1-1.6c-0.8-0.3-1.6-0.5-2.5-0.5s-1.7,0.2-2.5,0.5c-0.8,0.3-1.5,0.8-2,1.6
			c-0.6,0.7-1,1.7-1.3,2.8s-0.5,2.6-0.5,4.4c0,1.7,0.2,3.1,0.5,4.2s0.8,2,1.3,2.7c0.6,0.7,1.2,1.2,2,1.5c0.8,0.3,1.6,0.4,2.5,0.4
			s1.7-0.1,2.5-0.4c0.8-0.3,1.5-0.8,2.1-1.5c0.6-0.7,1-1.6,1.4-2.7S204.1,219,204.1,217.3z M249.5,251.4c0,2.5-0.4,4.7-1.2,6.7
			c-0.8,2-1.9,3.7-3.3,5.1c-1.4,1.4-3,2.5-4.8,3.2c-1.8,0.8-3.7,1.1-5.7,1.1c-2.2,0-4.2-0.4-6-1.1c-1.8-0.8-3.4-1.8-4.7-3.2
			s-2.4-3.1-3.1-5.1c-0.8-2-1.1-4.2-1.1-6.7c0-2.5,0.4-4.8,1.1-6.8c0.7-2,1.8-3.8,3.1-5.2c1.3-1.4,2.9-2.5,4.7-3.3
			c1.8-0.8,3.8-1.1,6-1.1c2.2,0,4.2,0.4,6,1.1c1.8,0.8,3.4,1.9,4.8,3.3c1.4,1.4,2.4,3.1,3.1,5.2
			C249.1,246.6,249.5,248.8,249.5,251.4z M240.9,251.4c0-1.7-0.2-3.2-0.5-4.4c-0.3-1.2-0.8-2.1-1.4-2.8s-1.3-1.2-2.1-1.6
			c-0.8-0.3-1.6-0.5-2.5-0.5c-0.9,0-1.7,0.2-2.5,0.5c-0.8,0.3-1.4,0.8-2,1.6c-0.6,0.7-1,1.7-1.3,2.8c-0.3,1.2-0.5,2.6-0.5,4.4
			c0,1.7,0.2,3.1,0.5,4.2c0.3,1.1,0.8,2.1,1.3,2.7c0.6,0.7,1.2,1.2,2,1.5c0.8,0.3,1.6,0.4,2.5,0.4c0.9,0,1.7-0.1,2.5-0.4
			c0.8-0.3,1.5-0.8,2.1-1.5c0.6-0.7,1-1.6,1.4-2.7C240.7,254.5,240.9,253,240.9,251.4z"/>
	</g>
	<g>
		<path d="M165,66.3l13,13h-10.4v38.9h-5.2V79.3H152L165,66.3z"/>
	</g>
	<g>
		<g>
			<path class="st2" d="M432,55.2l13,13h-10.4v38.9h-5.2V68.2H419L432,55.2z"/>
		</g>
	</g>
	<g>
		<g>
			<path class="st3" d="M700.4,32.4l13,13H703v38.9h-5.2V45.4h-10.4L700.4,32.4z"/>
		</g>
	</g>
</g>
</svg>
