<?xml version="1.0" encoding="utf-8"?>
<!-- Generator: Adobe Illustrator 21.0.2, SVG Export Plug-In . SVG Version: 6.00 Build 0)  -->
<svg version="1.1" xmlns="http://www.w3.org/2000/svg" xmlns:xlink="http://www.w3.org/1999/xlink" x="0px" y="0px"
	 viewBox="0 0 890 638" style="enable-background:new 0 0 890 638;" xml:space="preserve">
<style type="text/css">
	.st0{fill:#A0AFB5;}
	.st1{fill:#FFFFFF;}
	.st2{fill:#0071BC;}
	.st3{fill:#961D22;}
	.st4{stroke:#FFFFFF;stroke-miterlimit:10;}
</style>
<g id="work_2">
	<circle class="st0" cx="164.3" cy="467.6" r="156.4"/>
	<circle class="st1" cx="164.3" cy="496.9" r="127.1"/>
	<g>
		<path d="M147.8,483.2c0.6,0,1.1,0.1,1.6,0.3c0.5,0.2,0.9,0.4,1.3,0.8s0.7,0.7,0.9,1.2c0.2,0.5,0.3,1,0.3,1.6c0,0.5-0.1,1-0.2,1.4
			s-0.4,0.9-0.6,1.3c-0.3,0.4-0.6,0.8-0.9,1.2s-0.7,0.8-1.1,1.1l-3.6,3.7c0.3-0.1,0.5-0.1,0.8-0.2c0.3,0,0.5-0.1,0.8-0.1h4.6
			c0.2,0,0.3,0.1,0.4,0.2c0.1,0.1,0.2,0.2,0.2,0.4v1H143v-0.6c0-0.1,0-0.2,0.1-0.4s0.1-0.2,0.2-0.4l4.4-4.4c0.4-0.4,0.7-0.7,1-1.1
			c0.3-0.3,0.6-0.7,0.8-1c0.2-0.3,0.4-0.7,0.5-1c0.1-0.4,0.2-0.7,0.2-1.1c0-0.4-0.1-0.8-0.2-1.1s-0.3-0.6-0.5-0.8s-0.5-0.3-0.8-0.4
			c-0.3-0.1-0.6-0.1-1-0.1c-0.3,0-0.7,0.1-1,0.2c-0.3,0.1-0.6,0.2-0.8,0.4c-0.2,0.2-0.4,0.4-0.6,0.6c-0.2,0.2-0.3,0.5-0.3,0.8
			c-0.1,0.2-0.1,0.3-0.2,0.4c-0.1,0.1-0.2,0.1-0.4,0.1c0,0-0.1,0-0.1,0c0,0-0.1,0-0.1,0l-0.9-0.2c0.1-0.6,0.3-1.2,0.5-1.7
			c0.3-0.5,0.6-0.9,1-1.2c0.4-0.3,0.8-0.6,1.4-0.7C146.7,483.3,147.2,483.2,147.8,483.2z"/>
		<path d="M163.7,490.2c0,1.2-0.1,2.2-0.4,3.1c-0.3,0.9-0.6,1.6-1.1,2.2s-1,1-1.6,1.3s-1.3,0.4-2,0.4c-0.7,0-1.4-0.1-2-0.4
			s-1.1-0.7-1.6-1.3s-0.8-1.3-1.1-2.2c-0.3-0.9-0.4-1.9-0.4-3.1c0-1.2,0.1-2.2,0.4-3.1c0.3-0.9,0.6-1.6,1.1-2.2s1-1,1.6-1.3
			s1.3-0.4,2-0.4c0.7,0,1.4,0.1,2,0.4s1.1,0.7,1.6,1.3s0.8,1.3,1.1,2.2C163.6,488,163.7,489,163.7,490.2z M161.9,490.2
			c0-1-0.1-1.9-0.3-2.6c-0.2-0.7-0.4-1.3-0.7-1.7c-0.3-0.4-0.6-0.7-1-0.9s-0.8-0.3-1.2-0.3s-0.8,0.1-1.2,0.3c-0.4,0.2-0.7,0.5-1,0.9
			c-0.3,0.4-0.5,1-0.7,1.7s-0.3,1.6-0.3,2.6c0,1,0.1,1.9,0.3,2.6c0.2,0.7,0.4,1.3,0.7,1.7c0.3,0.4,0.6,0.7,1,0.9
			c0.4,0.2,0.8,0.3,1.2,0.3s0.8-0.1,1.2-0.3s0.7-0.5,1-0.9c0.3-0.4,0.5-1,0.7-1.7C161.8,492.1,161.9,491.3,161.9,490.2z"/>
		<path d="M167,495.8h3v-9.4c0-0.3,0-0.6,0-0.9l-2.5,2.1c-0.1,0.1-0.1,0.1-0.2,0.1s-0.1,0-0.2,0c-0.1,0-0.2,0-0.3-0.1
			c-0.1,0-0.1-0.1-0.2-0.1l-0.5-0.7l4.1-3.5h1.4v12.5h2.7v1.3H167V495.8z"/>
		<path d="M184.8,484.1c0,0.2-0.1,0.4-0.2,0.6s-0.4,0.2-0.8,0.2h-4.3l-0.6,3.6c0.7-0.2,1.4-0.2,2-0.2c0.7,0,1.3,0.1,1.9,0.3
			s1,0.5,1.4,0.9c0.4,0.4,0.7,0.8,0.8,1.3s0.3,1.1,0.3,1.6c0,0.7-0.1,1.4-0.4,2c-0.3,0.6-0.6,1.1-1,1.5s-1,0.7-1.6,1
			s-1.2,0.3-1.9,0.3c-0.4,0-0.8,0-1.2-0.1c-0.4-0.1-0.7-0.2-1-0.3c-0.3-0.1-0.6-0.3-0.9-0.5c-0.3-0.2-0.5-0.4-0.7-0.5l0.5-0.7
			c0.1-0.2,0.3-0.2,0.5-0.2c0.1,0,0.3,0,0.4,0.1c0.2,0.1,0.4,0.2,0.6,0.3c0.2,0.1,0.5,0.2,0.8,0.3s0.7,0.1,1.1,0.1
			c0.5,0,0.9-0.1,1.3-0.2c0.4-0.2,0.7-0.4,1-0.7c0.3-0.3,0.5-0.6,0.6-1c0.1-0.4,0.2-0.8,0.2-1.3c0-0.4-0.1-0.8-0.2-1.2
			c-0.1-0.3-0.3-0.6-0.6-0.9s-0.6-0.4-0.9-0.6c-0.4-0.1-0.8-0.2-1.3-0.2c-0.3,0-0.7,0-1.1,0.1s-0.8,0.2-1.2,0.3l-1.1-0.3l1.1-6.4
			h6.5V484.1z"/>
	</g>
	<g>
		<path class="st1" d="M142.7,334c0.8,0,1.5,0.1,2.1,0.3c0.7,0.2,1.2,0.6,1.7,1c0.5,0.4,0.9,1,1.1,1.6c0.3,0.6,0.4,1.3,0.4,2.1
			c0,0.7-0.1,1.3-0.3,1.9s-0.5,1.1-0.8,1.6s-0.7,1-1.2,1.5c-0.4,0.5-0.9,1-1.4,1.5l-4.7,4.8c0.3-0.1,0.7-0.2,1-0.2s0.7-0.1,1-0.1h6
			c0.2,0,0.4,0.1,0.6,0.2c0.1,0.1,0.2,0.3,0.2,0.6v1.4h-12v-0.8c0-0.2,0-0.3,0.1-0.5c0.1-0.2,0.2-0.3,0.3-0.5l5.8-5.8
			c0.5-0.5,0.9-1,1.3-1.4c0.4-0.4,0.7-0.9,1-1.3s0.5-0.9,0.6-1.4c0.2-0.5,0.2-1,0.2-1.5s-0.1-1-0.3-1.4c-0.2-0.4-0.4-0.7-0.7-1
			s-0.6-0.5-1-0.6c-0.4-0.1-0.8-0.2-1.3-0.2c-0.5,0-0.9,0.1-1.3,0.2c-0.4,0.1-0.7,0.3-1,0.6c-0.3,0.2-0.5,0.5-0.8,0.8
			s-0.3,0.7-0.4,1.1c-0.1,0.2-0.2,0.4-0.3,0.5c-0.1,0.1-0.3,0.2-0.5,0.2c0,0-0.1,0-0.1,0s-0.1,0-0.2,0l-1.2-0.2
			c0.1-0.8,0.3-1.5,0.7-2.2s0.8-1.2,1.3-1.6c0.5-0.4,1.1-0.8,1.8-1S142,334,142.7,334z"/>
		<path class="st1" d="M163.5,343.2c0,1.6-0.2,2.9-0.5,4.1s-0.8,2.1-1.4,2.9c-0.6,0.8-1.3,1.3-2.1,1.7c-0.8,0.4-1.7,0.6-2.6,0.6
			c-0.9,0-1.8-0.2-2.6-0.6c-0.8-0.4-1.5-0.9-2.1-1.7c-0.6-0.8-1-1.7-1.4-2.9c-0.3-1.1-0.5-2.5-0.5-4.1s0.2-2.9,0.5-4.1
			c0.3-1.2,0.8-2.1,1.4-2.9c0.6-0.8,1.3-1.3,2.1-1.7c0.8-0.4,1.6-0.6,2.6-0.6c0.9,0,1.8,0.2,2.6,0.6c0.8,0.4,1.5,0.9,2.1,1.7
			c0.6,0.8,1,1.7,1.4,2.9S163.5,341.6,163.5,343.2z M161.2,343.2c0-1.4-0.1-2.5-0.3-3.5s-0.5-1.7-0.9-2.2s-0.8-1-1.3-1.2
			c-0.5-0.2-1-0.4-1.6-0.4c-0.6,0-1.1,0.1-1.6,0.4c-0.5,0.2-1,0.7-1.3,1.2c-0.4,0.6-0.7,1.3-0.9,2.2c-0.2,0.9-0.3,2.1-0.3,3.5
			c0,1.4,0.1,2.5,0.3,3.4c0.2,0.9,0.5,1.7,0.9,2.2c0.4,0.6,0.8,1,1.3,1.2c0.5,0.2,1,0.4,1.6,0.4c0.6,0,1.1-0.1,1.6-0.4
			c0.5-0.2,1-0.7,1.3-1.2s0.7-1.3,0.9-2.2S161.2,344.6,161.2,343.2z"/>
		<path class="st1" d="M167.9,350.5h3.9v-12.2c0-0.4,0-0.7,0-1.1l-3.2,2.7c-0.1,0.1-0.2,0.1-0.3,0.1s-0.2,0-0.2,0
			c-0.1,0-0.2,0-0.3-0.1c-0.1-0.1-0.2-0.1-0.2-0.2l-0.7-1l5.3-4.6h1.8v16.3h3.5v1.7h-9.6V350.5z"/>
		<path class="st1" d="M187,341.2c0.7,0,1.4,0.1,2,0.4s1.2,0.6,1.7,1c0.5,0.5,0.9,1,1.2,1.7c0.3,0.7,0.4,1.4,0.4,2.3
			c0,0.8-0.2,1.6-0.5,2.3c-0.3,0.7-0.7,1.3-1.3,1.9c-0.5,0.5-1.2,0.9-1.9,1.2c-0.8,0.3-1.6,0.5-2.5,0.5c-0.9,0-1.7-0.1-2.5-0.4
			c-0.7-0.3-1.4-0.7-1.9-1.2c-0.5-0.5-0.9-1.2-1.2-1.9c-0.3-0.8-0.4-1.6-0.4-2.5c0-0.8,0.2-1.6,0.5-2.5s0.9-1.8,1.7-2.9l4.6-6.1
			c0.1-0.2,0.3-0.3,0.5-0.4s0.4-0.2,0.7-0.2h2l-6.2,7.9c0.4-0.3,0.9-0.5,1.4-0.7S186.4,341.2,187,341.2z M182.3,346.6
			c0,0.6,0.1,1.1,0.3,1.6c0.2,0.5,0.4,0.9,0.7,1.2c0.3,0.3,0.7,0.6,1.2,0.8c0.5,0.2,1,0.3,1.6,0.3c0.6,0,1.1-0.1,1.6-0.3
			s0.9-0.5,1.2-0.8c0.3-0.3,0.6-0.7,0.8-1.2c0.2-0.5,0.3-1,0.3-1.5c0-0.6-0.1-1.1-0.3-1.6c-0.2-0.5-0.4-0.9-0.8-1.2
			c-0.3-0.3-0.7-0.6-1.2-0.8c-0.5-0.2-1-0.3-1.5-0.3c-0.6,0-1.1,0.1-1.6,0.3c-0.5,0.2-0.9,0.5-1.2,0.8c-0.3,0.3-0.6,0.7-0.8,1.2
			S182.3,346.1,182.3,346.6z"/>
	</g>
	<path class="st2" d="M592.9,463.9c0,89.2-72.3,161.5-161.5,161.5S270,553,270,463.9s71.3-161.5,160.5-161.5
		S592.9,374.7,592.9,463.9z"/>
	<path class="st1" d="M558.6,498.2c0,70.2-56.9,127.1-127.1,127.1s-127.1-56.9-127.1-127.1s55.9-127.1,126.1-127.1
		S558.6,428,558.6,498.2z"/>
	<g>
		<path d="M414.9,483.5c0.6,0,1.1,0.1,1.6,0.3c0.5,0.2,0.9,0.4,1.3,0.8c0.4,0.3,0.7,0.7,0.9,1.2c0.2,0.5,0.3,1,0.3,1.6
			c0,0.5-0.1,1-0.2,1.4s-0.4,0.9-0.6,1.3c-0.3,0.4-0.6,0.8-0.9,1.2c-0.3,0.4-0.7,0.8-1.1,1.1l-3.6,3.7c0.3-0.1,0.5-0.1,0.8-0.2
			c0.3,0,0.5-0.1,0.8-0.1h4.6c0.2,0,0.3,0.1,0.4,0.2c0.1,0.1,0.2,0.2,0.2,0.4v1h-9.2v-0.6c0-0.1,0-0.2,0.1-0.4
			c0-0.1,0.1-0.2,0.2-0.4l4.4-4.4c0.4-0.4,0.7-0.7,1-1.1c0.3-0.3,0.6-0.7,0.8-1c0.2-0.3,0.4-0.7,0.5-1c0.1-0.4,0.2-0.7,0.2-1.1
			c0-0.4-0.1-0.8-0.2-1.1s-0.3-0.6-0.5-0.8s-0.5-0.3-0.8-0.4c-0.3-0.1-0.6-0.1-1-0.1c-0.3,0-0.7,0.1-1,0.2c-0.3,0.1-0.6,0.2-0.8,0.4
			c-0.2,0.2-0.4,0.4-0.6,0.6c-0.2,0.2-0.3,0.5-0.3,0.8c-0.1,0.2-0.1,0.3-0.2,0.4c-0.1,0.1-0.2,0.1-0.4,0.1c0,0-0.1,0-0.1,0
			c0,0-0.1,0-0.1,0l-0.9-0.2c0.1-0.6,0.3-1.2,0.5-1.7c0.3-0.5,0.6-0.9,1-1.2c0.4-0.3,0.8-0.6,1.4-0.7
			C413.8,483.6,414.4,483.5,414.9,483.5z"/>
		<path d="M430.8,490.5c0,1.2-0.1,2.2-0.4,3.1c-0.3,0.9-0.6,1.6-1.1,2.2s-1,1-1.6,1.3s-1.3,0.4-2,0.4c-0.7,0-1.4-0.1-2-0.4
			c-0.6-0.3-1.1-0.7-1.6-1.3c-0.4-0.6-0.8-1.3-1.1-2.2c-0.3-0.9-0.4-1.9-0.4-3.1c0-1.2,0.1-2.2,0.4-3.1c0.3-0.9,0.6-1.6,1.1-2.2
			c0.4-0.6,1-1,1.6-1.3c0.6-0.3,1.3-0.4,2-0.4c0.7,0,1.3,0.1,2,0.4s1.1,0.7,1.6,1.3s0.8,1.3,1.1,2.2S430.8,489.3,430.8,490.5z
			 M429.1,490.5c0-1-0.1-1.9-0.3-2.6s-0.4-1.3-0.7-1.7s-0.6-0.7-1-0.9c-0.4-0.2-0.8-0.3-1.2-0.3s-0.8,0.1-1.2,0.3s-0.7,0.5-1,0.9
			s-0.5,1-0.7,1.7s-0.3,1.6-0.3,2.6c0,1,0.1,1.9,0.3,2.6c0.2,0.7,0.4,1.3,0.7,1.7s0.6,0.7,1,0.9s0.8,0.3,1.2,0.3s0.8-0.1,1.2-0.3
			c0.4-0.2,0.7-0.5,1-0.9s0.5-1,0.7-1.7C429,492.4,429.1,491.6,429.1,490.5z"/>
		<path d="M434.2,496.1h3v-9.4c0-0.3,0-0.6,0-0.9l-2.5,2.1c-0.1,0.1-0.1,0.1-0.2,0.1c-0.1,0-0.1,0-0.2,0c-0.1,0-0.2,0-0.3-0.1
			c-0.1,0-0.1-0.1-0.2-0.1l-0.5-0.7l4.1-3.5h1.4v12.5h2.7v1.3h-7.4V496.1z"/>
		<path d="M451.9,484.4c0,0.2-0.1,0.4-0.2,0.6s-0.4,0.2-0.8,0.2h-4.3l-0.6,3.6c0.7-0.2,1.4-0.2,2-0.2c0.7,0,1.3,0.1,1.9,0.3
			c0.5,0.2,1,0.5,1.4,0.9c0.4,0.4,0.7,0.8,0.8,1.3s0.3,1.1,0.3,1.6c0,0.7-0.1,1.4-0.4,2s-0.6,1.1-1,1.5s-1,0.7-1.6,1
			s-1.2,0.3-1.9,0.3c-0.4,0-0.8,0-1.2-0.1c-0.4-0.1-0.7-0.2-1-0.3c-0.3-0.1-0.6-0.3-0.9-0.5c-0.3-0.2-0.5-0.4-0.7-0.5l0.5-0.7
			c0.1-0.2,0.3-0.2,0.5-0.2c0.1,0,0.3,0,0.4,0.1c0.2,0.1,0.4,0.2,0.6,0.3c0.2,0.1,0.5,0.2,0.8,0.3c0.3,0.1,0.7,0.1,1.1,0.1
			c0.5,0,0.9-0.1,1.3-0.2c0.4-0.2,0.7-0.4,1-0.7s0.5-0.6,0.6-1c0.1-0.4,0.2-0.8,0.2-1.3c0-0.4-0.1-0.8-0.2-1.2
			c-0.1-0.3-0.3-0.6-0.6-0.9s-0.6-0.4-0.9-0.6c-0.4-0.1-0.8-0.2-1.3-0.2c-0.3,0-0.7,0-1.1,0.1c-0.4,0.1-0.8,0.2-1.2,0.3l-1.1-0.3
			l1.1-6.4h6.5V484.4z"/>
	</g>
	<g>
		<path class="st1" d="M408.9,331.2c0.8,0,1.5,0.1,2.1,0.3c0.7,0.2,1.2,0.6,1.7,1c0.5,0.4,0.9,1,1.1,1.6c0.3,0.6,0.4,1.3,0.4,2.1
			c0,0.7-0.1,1.3-0.3,1.9c-0.2,0.6-0.5,1.1-0.8,1.6c-0.3,0.5-0.7,1-1.2,1.5c-0.4,0.5-0.9,1-1.4,1.5l-4.7,4.8c0.3-0.1,0.7-0.2,1-0.2
			c0.3-0.1,0.7-0.1,1-0.1h6c0.2,0,0.4,0.1,0.6,0.2c0.1,0.1,0.2,0.3,0.2,0.6v1.4h-12v-0.8c0-0.2,0-0.3,0.1-0.5
			c0.1-0.2,0.2-0.3,0.3-0.5l5.8-5.8c0.5-0.5,0.9-1,1.3-1.4s0.7-0.9,1-1.3c0.3-0.5,0.5-0.9,0.6-1.4s0.2-1,0.2-1.5s-0.1-1-0.3-1.4
			c-0.2-0.4-0.4-0.7-0.7-1s-0.6-0.5-1-0.6s-0.8-0.2-1.3-0.2s-0.9,0.1-1.3,0.2c-0.4,0.1-0.7,0.3-1,0.6s-0.5,0.5-0.8,0.8
			c-0.2,0.3-0.3,0.7-0.4,1.1c-0.1,0.2-0.2,0.4-0.3,0.5c-0.1,0.1-0.3,0.2-0.5,0.2c0,0-0.1,0-0.1,0c0,0-0.1,0-0.2,0l-1.2-0.2
			c0.1-0.8,0.3-1.5,0.7-2.2c0.3-0.6,0.8-1.2,1.3-1.6c0.5-0.4,1.1-0.8,1.8-1S408.1,331.2,408.9,331.2z"/>
		<path class="st1" d="M429.7,340.4c0,1.6-0.2,2.9-0.5,4.1s-0.8,2.1-1.4,2.9c-0.6,0.8-1.3,1.3-2.1,1.7c-0.8,0.4-1.7,0.6-2.6,0.6
			c-0.9,0-1.8-0.2-2.6-0.6c-0.8-0.4-1.5-0.9-2.1-1.7c-0.6-0.8-1-1.7-1.4-2.9c-0.3-1.1-0.5-2.5-0.5-4.1s0.2-2.9,0.5-4.1
			c0.3-1.2,0.8-2.1,1.4-2.9c0.6-0.8,1.3-1.3,2.1-1.7c0.8-0.4,1.6-0.6,2.6-0.6c0.9,0,1.8,0.2,2.6,0.6c0.8,0.4,1.5,0.9,2.1,1.7
			c0.6,0.8,1,1.7,1.4,2.9S429.7,338.8,429.7,340.4z M427.4,340.4c0-1.4-0.1-2.5-0.3-3.5s-0.5-1.7-0.9-2.2s-0.8-1-1.3-1.2
			c-0.5-0.2-1-0.4-1.6-0.4s-1.1,0.1-1.6,0.4c-0.5,0.2-1,0.7-1.3,1.2c-0.4,0.6-0.7,1.3-0.9,2.2c-0.2,0.9-0.3,2.1-0.3,3.5
			c0,1.4,0.1,2.5,0.3,3.4c0.2,0.9,0.5,1.7,0.9,2.2c0.4,0.6,0.8,1,1.3,1.2c0.5,0.2,1,0.4,1.6,0.4s1.1-0.1,1.6-0.4
			c0.5-0.2,1-0.7,1.3-1.2s0.7-1.3,0.9-2.2S427.4,341.7,427.4,340.4z"/>
		<path class="st1" d="M434,347.6h3.9v-12.2c0-0.4,0-0.7,0-1.1l-3.2,2.7c-0.1,0.1-0.2,0.1-0.2,0.1c-0.1,0-0.2,0-0.2,0
			c-0.1,0-0.2,0-0.3-0.1c-0.1-0.1-0.2-0.1-0.2-0.2l-0.7-1l5.3-4.6h1.8v16.3h3.5v1.7H434V347.6z"/>
		<path class="st1" d="M453.1,338.3c0.7,0,1.4,0.1,2,0.4s1.2,0.6,1.7,1c0.5,0.5,0.9,1,1.2,1.7c0.3,0.7,0.4,1.4,0.4,2.3
			c0,0.8-0.2,1.6-0.5,2.3c-0.3,0.7-0.7,1.3-1.3,1.9c-0.5,0.5-1.2,0.9-1.9,1.2c-0.8,0.3-1.6,0.5-2.5,0.5c-0.9,0-1.7-0.1-2.5-0.4
			c-0.7-0.3-1.4-0.7-1.9-1.2c-0.5-0.5-0.9-1.2-1.2-1.9c-0.3-0.8-0.4-1.6-0.4-2.5c0-0.8,0.2-1.6,0.5-2.5c0.4-0.9,0.9-1.8,1.7-2.9
			l4.6-6.1c0.1-0.2,0.3-0.3,0.5-0.4s0.4-0.2,0.7-0.2h2l-6.2,7.9c0.4-0.3,0.9-0.5,1.4-0.7S452.5,338.3,453.1,338.3z M448.5,343.8
			c0,0.6,0.1,1.1,0.3,1.6c0.2,0.5,0.4,0.9,0.7,1.2c0.3,0.3,0.7,0.6,1.2,0.8c0.5,0.2,1,0.3,1.6,0.3c0.6,0,1.1-0.1,1.6-0.3
			c0.5-0.2,0.9-0.5,1.2-0.8s0.6-0.7,0.8-1.2c0.2-0.5,0.3-1,0.3-1.5c0-0.6-0.1-1.1-0.3-1.6c-0.2-0.5-0.4-0.9-0.8-1.2
			s-0.7-0.6-1.2-0.8c-0.5-0.2-1-0.3-1.5-0.3c-0.6,0-1.1,0.1-1.6,0.3c-0.5,0.2-0.9,0.5-1.2,0.8c-0.3,0.3-0.6,0.7-0.8,1.2
			S448.5,343.3,448.5,343.8z"/>
	</g>
	<circle class="st3" cx="701.7" cy="447.7" r="179.3"/>
	<circle class="st1" cx="701.7" cy="499.9" r="127.1"/>
	<g>
		<path d="M685.3,484.2c0.6,0,1.1,0.1,1.6,0.3c0.5,0.2,0.9,0.4,1.3,0.8c0.4,0.3,0.7,0.7,0.9,1.2c0.2,0.5,0.3,1,0.3,1.6
			c0,0.5-0.1,1-0.2,1.4s-0.4,0.9-0.6,1.3c-0.3,0.4-0.6,0.8-0.9,1.2c-0.3,0.4-0.7,0.8-1.1,1.1l-3.6,3.7c0.3-0.1,0.5-0.1,0.8-0.2
			c0.3,0,0.5-0.1,0.8-0.1h4.6c0.2,0,0.3,0.1,0.4,0.2c0.1,0.1,0.2,0.2,0.2,0.4v1h-9.2v-0.6c0-0.1,0-0.2,0.1-0.4
			c0-0.1,0.1-0.2,0.2-0.4l4.4-4.4c0.4-0.4,0.7-0.7,1-1.1c0.3-0.3,0.6-0.7,0.8-1c0.2-0.3,0.4-0.7,0.5-1c0.1-0.4,0.2-0.7,0.2-1.1
			c0-0.4-0.1-0.8-0.2-1.1s-0.3-0.6-0.5-0.8s-0.5-0.3-0.8-0.4c-0.3-0.1-0.6-0.1-1-0.1c-0.3,0-0.7,0.1-1,0.2c-0.3,0.1-0.6,0.2-0.8,0.4
			c-0.2,0.2-0.4,0.4-0.6,0.6c-0.2,0.2-0.3,0.5-0.3,0.8c-0.1,0.2-0.1,0.3-0.2,0.4c-0.1,0.1-0.2,0.1-0.4,0.1c0,0-0.1,0-0.1,0
			c0,0-0.1,0-0.1,0l-0.9-0.2c0.1-0.6,0.3-1.2,0.5-1.7c0.3-0.5,0.6-0.9,1-1.2c0.4-0.3,0.8-0.6,1.4-0.7
			C684.1,484.2,684.7,484.2,685.3,484.2z"/>
		<path d="M701.2,491.2c0,1.2-0.1,2.2-0.4,3.1c-0.3,0.9-0.6,1.6-1.1,2.2s-1,1-1.6,1.3s-1.3,0.4-2,0.4c-0.7,0-1.4-0.1-2-0.4
			c-0.6-0.3-1.1-0.7-1.6-1.3c-0.4-0.6-0.8-1.3-1.1-2.2c-0.3-0.9-0.4-1.9-0.4-3.1c0-1.2,0.1-2.2,0.4-3.1c0.3-0.9,0.6-1.6,1.1-2.2
			c0.4-0.6,1-1,1.6-1.3c0.6-0.3,1.3-0.4,2-0.4c0.7,0,1.3,0.1,2,0.4s1.1,0.7,1.6,1.3s0.8,1.3,1.1,2.2S701.2,490,701.2,491.2z
			 M699.4,491.2c0-1-0.1-1.9-0.3-2.6s-0.4-1.3-0.7-1.7s-0.6-0.7-1-0.9c-0.4-0.2-0.8-0.3-1.2-0.3s-0.8,0.1-1.2,0.3s-0.7,0.5-1,0.9
			s-0.5,1-0.7,1.7s-0.3,1.6-0.3,2.6c0,1,0.1,1.9,0.3,2.6c0.2,0.7,0.4,1.3,0.7,1.7s0.6,0.7,1,0.9s0.8,0.3,1.2,0.3s0.8-0.1,1.2-0.3
			c0.4-0.2,0.7-0.5,1-0.9s0.5-1,0.7-1.7C699.3,493.1,699.4,492.2,699.4,491.2z"/>
		<path d="M704.5,496.8h3v-9.4c0-0.3,0-0.6,0-0.9l-2.5,2.1c-0.1,0.1-0.1,0.1-0.2,0.1c-0.1,0-0.1,0-0.2,0c-0.1,0-0.2,0-0.3-0.1
			c-0.1,0-0.1-0.1-0.2-0.1l-0.5-0.7l4.1-3.5h1.4v12.5h2.7v1.3h-7.4V496.8z"/>
		<path d="M722.2,485.1c0,0.2-0.1,0.4-0.2,0.6s-0.4,0.2-0.8,0.2h-4.3l-0.6,3.6c0.7-0.2,1.4-0.2,2-0.2c0.7,0,1.3,0.1,1.9,0.3
			c0.5,0.2,1,0.5,1.4,0.9c0.4,0.4,0.7,0.8,0.8,1.3s0.3,1.1,0.3,1.6c0,0.7-0.1,1.4-0.4,2s-0.6,1.1-1,1.5s-1,0.7-1.6,1
			s-1.2,0.3-1.9,0.3c-0.4,0-0.8,0-1.2-0.1c-0.4-0.1-0.7-0.2-1-0.3c-0.3-0.1-0.6-0.3-0.9-0.5c-0.3-0.2-0.5-0.4-0.7-0.5l0.5-0.7
			c0.1-0.2,0.3-0.2,0.5-0.2c0.1,0,0.3,0,0.4,0.1c0.2,0.1,0.4,0.2,0.6,0.3c0.2,0.1,0.5,0.2,0.8,0.3c0.3,0.1,0.7,0.1,1.1,0.1
			c0.5,0,0.9-0.1,1.3-0.2c0.4-0.2,0.7-0.4,1-0.7s0.5-0.6,0.6-1c0.1-0.4,0.2-0.8,0.2-1.3c0-0.4-0.1-0.8-0.2-1.2
			c-0.1-0.3-0.3-0.6-0.6-0.9s-0.6-0.4-0.9-0.6c-0.4-0.1-0.8-0.2-1.3-0.2c-0.3,0-0.7,0-1.1,0.1c-0.4,0.1-0.8,0.2-1.2,0.3l-1.1-0.3
			l1.1-6.4h6.5V485.1z"/>
	</g>
	<g>
		<path class="st1" d="M680.2,317.1c0.8,0,1.5,0.1,2.1,0.3c0.7,0.2,1.2,0.6,1.7,1c0.5,0.4,0.9,1,1.1,1.6c0.3,0.6,0.4,1.3,0.4,2.1
			c0,0.7-0.1,1.3-0.3,1.9s-0.5,1.1-0.8,1.6c-0.3,0.5-0.7,1-1.2,1.5c-0.4,0.5-0.9,1-1.4,1.5l-4.7,4.8c0.3-0.1,0.7-0.2,1-0.2
			s0.7-0.1,1-0.1h6c0.2,0,0.4,0.1,0.6,0.2c0.1,0.1,0.2,0.3,0.2,0.6v1.4h-12v-0.8c0-0.2,0-0.3,0.1-0.5c0.1-0.2,0.2-0.3,0.3-0.5
			l5.8-5.8c0.5-0.5,0.9-1,1.3-1.4s0.7-0.9,1-1.3c0.3-0.5,0.5-0.9,0.6-1.4s0.2-1,0.2-1.5s-0.1-1-0.3-1.4c-0.2-0.4-0.4-0.7-0.7-1
			c-0.3-0.3-0.6-0.5-1-0.6c-0.4-0.1-0.8-0.2-1.3-0.2s-0.9,0.1-1.3,0.2c-0.4,0.1-0.7,0.3-1,0.6s-0.5,0.5-0.8,0.8
			c-0.2,0.3-0.3,0.7-0.4,1.1c-0.1,0.2-0.2,0.4-0.3,0.5c-0.1,0.1-0.3,0.2-0.5,0.2c0,0-0.1,0-0.1,0s-0.1,0-0.2,0l-1.2-0.2
			c0.1-0.8,0.3-1.5,0.7-2.2c0.3-0.6,0.8-1.2,1.3-1.6c0.5-0.4,1.1-0.8,1.8-1C678.7,317.2,679.4,317.1,680.2,317.1z"/>
		<path class="st1" d="M701,326.2c0,1.6-0.2,2.9-0.5,4.1s-0.8,2.1-1.4,2.9c-0.6,0.8-1.3,1.3-2.1,1.7c-0.8,0.4-1.7,0.6-2.6,0.6
			c-0.9,0-1.8-0.2-2.6-0.6c-0.8-0.4-1.5-0.9-2.1-1.7c-0.6-0.8-1-1.7-1.4-2.9c-0.3-1.1-0.5-2.5-0.5-4.1s0.2-2.9,0.5-4.1
			c0.3-1.2,0.8-2.1,1.4-2.9c0.6-0.8,1.3-1.3,2.1-1.7c0.8-0.4,1.6-0.6,2.6-0.6c0.9,0,1.8,0.2,2.6,0.6c0.8,0.4,1.5,0.9,2.1,1.7
			c0.6,0.8,1,1.7,1.4,2.9S701,324.7,701,326.2z M698.7,326.2c0-1.4-0.1-2.5-0.3-3.5s-0.5-1.7-0.9-2.2s-0.8-1-1.3-1.2
			c-0.5-0.2-1-0.4-1.6-0.4s-1.1,0.1-1.6,0.4c-0.5,0.2-1,0.7-1.3,1.2c-0.4,0.6-0.7,1.3-0.9,2.2c-0.2,0.9-0.3,2.1-0.3,3.5
			c0,1.4,0.1,2.5,0.3,3.4c0.2,0.9,0.5,1.7,0.9,2.2c0.4,0.6,0.8,1,1.3,1.2c0.5,0.2,1,0.4,1.6,0.4s1.1-0.1,1.6-0.4
			c0.5-0.2,1-0.7,1.3-1.2s0.7-1.3,0.9-2.2S698.7,327.6,698.7,326.2z"/>
		<path class="st1" d="M705.3,333.5h3.9v-12.2c0-0.4,0-0.7,0-1.1l-3.2,2.7c-0.1,0.1-0.2,0.1-0.2,0.1c-0.1,0-0.2,0-0.2,0
			c-0.1,0-0.2,0-0.3-0.1c-0.1-0.1-0.2-0.1-0.2-0.2l-0.7-1l5.3-4.6h1.8v16.3h3.5v1.7h-9.6V333.5z"/>
		<path class="st1" d="M724.4,324.2c0.7,0,1.4,0.1,2,0.4s1.2,0.6,1.7,1c0.5,0.5,0.9,1,1.2,1.7c0.3,0.7,0.4,1.4,0.4,2.3
			c0,0.8-0.2,1.6-0.5,2.3c-0.3,0.7-0.7,1.3-1.3,1.9c-0.5,0.5-1.2,0.9-1.9,1.2c-0.8,0.3-1.6,0.5-2.5,0.5c-0.9,0-1.7-0.1-2.5-0.4
			c-0.7-0.3-1.4-0.7-1.9-1.2c-0.5-0.5-0.9-1.2-1.2-1.9c-0.3-0.8-0.4-1.6-0.4-2.5c0-0.8,0.2-1.6,0.5-2.5c0.4-0.9,0.9-1.8,1.7-2.9
			l4.6-6.1c0.1-0.2,0.3-0.3,0.5-0.4s0.4-0.2,0.7-0.2h2l-6.2,7.9c0.4-0.3,0.9-0.5,1.4-0.7S723.8,324.2,724.4,324.2z M719.8,329.7
			c0,0.6,0.1,1.1,0.3,1.6c0.2,0.5,0.4,0.9,0.7,1.2c0.3,0.3,0.7,0.6,1.2,0.8c0.5,0.2,1,0.3,1.6,0.3c0.6,0,1.1-0.1,1.6-0.3
			c0.5-0.2,0.9-0.5,1.2-0.8s0.6-0.7,0.8-1.2c0.2-0.5,0.3-1,0.3-1.5c0-0.6-0.1-1.1-0.3-1.6c-0.2-0.5-0.4-0.9-0.8-1.2
			s-0.7-0.6-1.2-0.8c-0.5-0.2-1-0.3-1.5-0.3c-0.6,0-1.1,0.1-1.6,0.3c-0.5,0.2-0.9,0.5-1.2,0.8c-0.3,0.3-0.6,0.7-0.8,1.2
			S719.8,329.2,719.8,329.7z"/>
	</g>
</g>
<g id="white_type">
	<g>
		<path class="st3" d="M665.5,119.7c0,1.6-0.3,3.1-0.8,4.4c-0.5,1.3-1.3,2.5-2.2,3.4c-1,1-2.1,1.7-3.5,2.2c-1.3,0.5-2.8,0.8-4.5,0.8
			h-8.3v-21.7h8.3c1.6,0,3.1,0.3,4.5,0.8c1.3,0.5,2.5,1.3,3.5,2.2s1.7,2.1,2.2,3.4C665.3,116.6,665.5,118.1,665.5,119.7z
			 M661.4,119.7c0-1.2-0.2-2.3-0.5-3.2c-0.3-0.9-0.8-1.7-1.4-2.4c-0.6-0.7-1.3-1.2-2.2-1.5c-0.8-0.3-1.8-0.5-2.9-0.5h-4.2v15.3h4.2
			c1.1,0,2-0.2,2.9-0.5c0.8-0.4,1.6-0.9,2.2-1.5c0.6-0.7,1-1.5,1.4-2.4C661.2,121.9,661.4,120.9,661.4,119.7z"/>
		<path class="st3" d="M673.2,130.5h-4.1v-21.7h4.1V130.5z"/>
		<path class="st3" d="M688.1,127.6c0.9,0,1.7-0.1,2.4-0.2c0.7-0.2,1.3-0.4,1.9-0.7v-3.9h-2.7c-0.3,0-0.5-0.1-0.6-0.2
			s-0.2-0.3-0.2-0.5v-2.3h7.2v8.8c-0.6,0.4-1.1,0.7-1.7,1c-0.6,0.3-1.2,0.5-1.9,0.7c-0.7,0.2-1.4,0.3-2.2,0.4
			c-0.8,0.1-1.6,0.1-2.5,0.1c-1.6,0-3-0.3-4.4-0.8s-2.5-1.3-3.5-2.3c-1-1-1.7-2.1-2.3-3.5c-0.5-1.4-0.8-2.8-0.8-4.5
			c0-1.6,0.3-3.1,0.8-4.5c0.5-1.4,1.3-2.5,2.3-3.5s2.2-1.7,3.5-2.3c1.4-0.5,2.9-0.8,4.7-0.8c1.8,0,3.3,0.3,4.6,0.8s2.4,1.2,3.3,2
			l-1.2,1.8c-0.2,0.4-0.5,0.6-0.9,0.6c-0.2,0-0.5-0.1-0.7-0.2c-0.3-0.2-0.6-0.4-1-0.6c-0.3-0.2-0.7-0.4-1.1-0.5
			c-0.4-0.1-0.9-0.3-1.4-0.3c-0.5-0.1-1.1-0.1-1.7-0.1c-1.1,0-2,0.2-2.9,0.5c-0.9,0.4-1.6,0.9-2.2,1.5c-0.6,0.7-1.1,1.5-1.4,2.4
			c-0.3,0.9-0.5,2-0.5,3.1c0,1.3,0.2,2.4,0.5,3.3c0.3,1,0.8,1.8,1.5,2.5s1.4,1.2,2.2,1.5S687,127.6,688.1,127.6z"/>
		<path class="st3" d="M704.4,130.5h-4.1v-21.7h4.1V130.5z"/>
		<path class="st3" d="M724.5,108.8v3.3H718v18.4h-4v-18.4h-6.6v-3.3H724.5z"/>
		<path class="st3" d="M743.9,130.5h-3.1c-0.3,0-0.6-0.1-0.9-0.3c-0.2-0.2-0.4-0.4-0.5-0.7l-1.6-4.4h-9l-1.6,4.4
			c-0.1,0.2-0.2,0.4-0.5,0.6c-0.2,0.2-0.5,0.3-0.9,0.3h-3.1l8.5-21.7h4.1L743.9,130.5z M729.9,122.3h6.9l-2.6-7.2
			c-0.1-0.3-0.3-0.7-0.4-1.1c-0.1-0.4-0.3-0.9-0.4-1.4c-0.1,0.5-0.3,1-0.4,1.4c-0.1,0.4-0.3,0.8-0.4,1.2L729.9,122.3z"/>
		<path class="st3" d="M750.2,127.2h8.7v3.3h-12.7v-21.7h4V127.2z"/>
		<path class="st3" d="M667.9,182.5h6v4.7c0,0.4-0.1,0.8-0.4,1.1c-0.3,0.3-0.7,0.5-1.3,0.5h-4.3v11.7h-7.2v-11.7h-20.2
			c-0.6,0-1-0.2-1.5-0.5c-0.4-0.3-0.7-0.8-0.8-1.3l-0.8-4.1l22.7-30.4h7.8V182.5z M660.7,166.8c0-0.7,0-1.5,0.1-2.3
			c0-0.8,0.1-1.7,0.2-2.6l-14.9,20.5h14.6V166.8z"/>
		<path class="st3" d="M684.1,194.4h9.7v-28c0-1.1,0-2.2,0.1-3.4l-6.9,5.8c-0.3,0.2-0.6,0.4-0.9,0.5c-0.3,0.1-0.6,0.1-0.9,0.1
			c-0.4,0-0.8-0.1-1.2-0.3c-0.4-0.2-0.6-0.4-0.8-0.6l-2.6-3.6l14.6-12.4h6.7v41.9h8.6v6.1h-26.5V194.4z"/>
		<path class="st3" d="M737.8,164.2c0,1.8-0.3,3.5-0.9,4.9c-0.6,1.5-1.4,2.7-2.4,3.7s-2.2,1.8-3.6,2.4c-1.3,0.6-2.8,0.8-4.2,0.8
			c-1.6,0-3.1-0.3-4.4-0.8c-1.3-0.6-2.5-1.3-3.5-2.4s-1.8-2.3-2.3-3.7c-0.6-1.5-0.8-3.1-0.8-4.9c0-1.9,0.3-3.5,0.8-5
			s1.3-2.8,2.3-3.8c1-1,2.2-1.8,3.5-2.4s2.8-0.8,4.4-0.8c1.6,0,3.1,0.3,4.4,0.8s2.5,1.4,3.5,2.4c1,1,1.8,2.3,2.3,3.8
			C737.5,160.7,737.8,162.4,737.8,164.2z M753.8,153.9c0.3-0.3,0.6-0.6,1-0.9c0.4-0.3,1-0.4,1.7-0.4h5.9l-35.6,46.8
			c-0.3,0.4-0.6,0.6-1,0.9c-0.4,0.2-0.9,0.3-1.5,0.3h-6.1L753.8,153.9z M731.5,164.2c0-1.3-0.1-2.4-0.4-3.2c-0.2-0.9-0.6-1.6-1-2.1
			c-0.4-0.5-0.9-0.9-1.5-1.1c-0.6-0.2-1.2-0.3-1.9-0.3c-0.7,0-1.3,0.1-1.9,0.3c-0.6,0.2-1.1,0.6-1.5,1.1s-0.7,1.2-1,2.1
			s-0.3,1.9-0.3,3.2c0,1.2,0.1,2.3,0.3,3.1s0.6,1.5,1,2c0.4,0.5,0.9,0.9,1.5,1.1c0.6,0.2,1.2,0.3,1.9,0.3c0.7,0,1.3-0.1,1.9-0.3
			s1.1-0.6,1.5-1.1c0.4-0.5,0.8-1.2,1-2C731.4,166.5,731.5,165.5,731.5,164.2z M764.9,189.3c0,1.8-0.3,3.5-0.9,4.9
			c-0.6,1.5-1.4,2.7-2.4,3.7s-2.2,1.8-3.6,2.4c-1.3,0.6-2.8,0.8-4.2,0.8c-1.6,0-3.1-0.3-4.4-0.8c-1.3-0.6-2.5-1.4-3.5-2.4
			s-1.8-2.3-2.3-3.7c-0.6-1.5-0.8-3.1-0.8-4.9c0-1.9,0.3-3.5,0.8-5c0.6-1.5,1.3-2.8,2.3-3.8c1-1,2.2-1.8,3.5-2.4s2.8-0.8,4.4-0.8
			s3.1,0.3,4.4,0.8c1.4,0.6,2.5,1.4,3.5,2.4c1,1,1.8,2.3,2.3,3.8C764.6,185.8,764.9,187.4,764.9,189.3z M758.6,189.3
			c0-1.3-0.1-2.4-0.4-3.2s-0.6-1.6-1-2.1s-0.9-0.9-1.5-1.1c-0.6-0.2-1.2-0.3-1.9-0.3c-0.7,0-1.3,0.1-1.9,0.3
			c-0.6,0.2-1.1,0.6-1.5,1.1c-0.4,0.5-0.7,1.2-1,2.1s-0.4,1.9-0.4,3.2c0,1.2,0.1,2.3,0.4,3.1c0.2,0.8,0.6,1.5,1,2
			c0.4,0.5,0.9,0.9,1.5,1.1s1.2,0.3,1.9,0.3c0.7,0,1.3-0.1,1.9-0.3c0.6-0.2,1.1-0.6,1.5-1.1c0.4-0.5,0.8-1.2,1-2
			C758.5,191.6,758.6,190.5,758.6,189.3z"/>
	</g>
	<g>
		<path class="st2" d="M387.3,150.1v8.5h-4v-21.7h6.6c1.5,0,2.7,0.2,3.8,0.5c1.1,0.3,1.9,0.7,2.6,1.3c0.7,0.6,1.2,1.2,1.5,2
			c0.3,0.8,0.5,1.6,0.5,2.5c0,0.7-0.1,1.4-0.3,2.1c-0.2,0.6-0.5,1.2-0.9,1.8c-0.4,0.5-0.9,1-1.5,1.4c-0.6,0.4-1.3,0.7-2,1
			c0.5,0.3,1,0.7,1.3,1.2l5.4,8h-3.6c-0.4,0-0.6-0.1-0.9-0.2s-0.5-0.3-0.6-0.6l-4.6-6.9c-0.2-0.3-0.4-0.4-0.6-0.6
			c-0.2-0.1-0.5-0.2-0.9-0.2H387.3z M387.3,147.2h2.5c0.8,0,1.4-0.1,2-0.3c0.6-0.2,1-0.5,1.4-0.8c0.4-0.3,0.6-0.7,0.8-1.2
			c0.2-0.5,0.3-1,0.3-1.5c0-1.1-0.4-1.9-1.1-2.5c-0.7-0.6-1.8-0.9-3.3-0.9h-2.6V147.2z"/>
		<path class="st2" d="M421.8,158.6h-3.1c-0.3,0-0.6-0.1-0.9-0.3c-0.2-0.2-0.4-0.4-0.5-0.7l-1.6-4.4h-9l-1.6,4.4
			c-0.1,0.2-0.2,0.4-0.5,0.6c-0.2,0.2-0.5,0.3-0.9,0.3h-3.1l8.5-21.7h4.1L421.8,158.6z M407.8,150.4h6.9l-2.6-7.2
			c-0.1-0.3-0.3-0.7-0.4-1.1c-0.1-0.4-0.3-0.9-0.4-1.4c-0.1,0.5-0.3,1-0.4,1.4c-0.1,0.4-0.3,0.8-0.4,1.2L407.8,150.4z"/>
		<path class="st2" d="M443.3,147.7c0,1.6-0.3,3.1-0.8,4.4c-0.5,1.3-1.3,2.5-2.2,3.4c-1,1-2.1,1.7-3.5,2.2c-1.3,0.5-2.8,0.8-4.5,0.8
			h-8.3v-21.7h8.3c1.6,0,3.1,0.3,4.5,0.8c1.3,0.5,2.5,1.3,3.5,2.2s1.7,2.1,2.2,3.4C443.1,144.7,443.3,146.1,443.3,147.7z
			 M439.2,147.7c0-1.2-0.2-2.3-0.5-3.2c-0.3-0.9-0.8-1.7-1.4-2.4c-0.6-0.7-1.3-1.2-2.2-1.5c-0.8-0.3-1.8-0.5-2.9-0.5h-4.2v15.3h4.2
			c1.1,0,2-0.2,2.9-0.5c0.8-0.4,1.6-0.9,2.2-1.5c0.6-0.7,1-1.5,1.4-2.4C439,150,439.2,148.9,439.2,147.7z"/>
		<path class="st2" d="M451,158.6H447v-21.7h4.1V158.6z"/>
		<path class="st2" d="M476.7,147.7c0,1.6-0.3,3.1-0.8,4.4c-0.5,1.4-1.3,2.5-2.2,3.5c-1,1-2.1,1.8-3.5,2.3c-1.3,0.6-2.8,0.8-4.5,0.8
			c-1.6,0-3.1-0.3-4.5-0.8c-1.4-0.6-2.5-1.3-3.5-2.3c-1-1-1.7-2.2-2.2-3.5c-0.5-1.4-0.8-2.8-0.8-4.4c0-1.6,0.3-3.1,0.8-4.4
			c0.5-1.4,1.3-2.5,2.2-3.5c1-1,2.1-1.8,3.5-2.3c1.4-0.6,2.9-0.8,4.5-0.8c1.6,0,3.1,0.3,4.5,0.8s2.5,1.3,3.5,2.3s1.7,2.2,2.2,3.5
			C476.4,144.6,476.7,146.1,476.7,147.7z M472.6,147.7c0-1.2-0.2-2.3-0.5-3.2c-0.3-0.9-0.8-1.7-1.4-2.4c-0.6-0.7-1.3-1.2-2.2-1.5
			c-0.8-0.3-1.8-0.5-2.9-0.5c-1.1,0-2,0.2-2.9,0.5c-0.9,0.4-1.6,0.9-2.2,1.5s-1.1,1.5-1.4,2.4c-0.3,0.9-0.5,2-0.5,3.2
			c0,1.2,0.2,2.3,0.5,3.2c0.3,0.9,0.8,1.7,1.4,2.4c0.6,0.7,1.3,1.2,2.2,1.5c0.8,0.4,1.8,0.5,2.9,0.5c1.1,0,2-0.2,2.9-0.5
			c0.8-0.4,1.6-0.9,2.2-1.5c0.6-0.7,1-1.5,1.4-2.4C472.4,150,472.6,148.9,472.6,147.7z"/>
		<path class="st2" d="M384.1,180.1c2.2,0,4.2,0.3,6.1,1c1.8,0.7,3.4,1.6,4.7,2.8c1.3,1.2,2.3,2.6,3.1,4.3s1.1,3.6,1.1,5.6
			c0,1.8-0.3,3.4-0.8,4.9c-0.5,1.5-1.2,2.9-2.1,4.3c-0.9,1.4-1.9,2.7-3.1,4c-1.2,1.3-2.4,2.6-3.7,3.9l-10.8,11.1
			c1.1-0.3,2.1-0.5,3.1-0.7c1-0.2,2-0.2,2.9-0.2H397c0.9,0,1.6,0.2,2.1,0.7c0.5,0.5,0.8,1.2,0.8,2v4.9H367v-2.7
			c0-0.6,0.1-1.1,0.3-1.7c0.2-0.6,0.6-1.1,1.1-1.7l14.6-14.6c1.2-1.2,2.3-2.4,3.3-3.6c1-1.1,1.8-2.2,2.4-3.4
			c0.7-1.1,1.1-2.2,1.5-3.4c0.3-1.1,0.5-2.3,0.5-3.6c0-1.1-0.2-2.2-0.5-3c-0.3-0.9-0.8-1.6-1.4-2.2c-0.6-0.6-1.4-1-2.2-1.3
			c-0.9-0.3-1.8-0.4-2.9-0.4c-2,0-3.6,0.5-4.9,1.5c-1.3,1-2.2,2.3-2.7,4c-0.2,0.8-0.6,1.4-1.1,1.8c-0.5,0.4-1.1,0.5-1.9,0.5
			c-0.3,0-0.7,0-1.1-0.1l-4.3-0.8c0.3-2.3,1-4.3,1.9-6.1c1-1.7,2.1-3.2,3.6-4.3c1.4-1.2,3.1-2,4.9-2.6
			C380,180.4,382,180.1,384.1,180.1z"/>
		<path class="st2" d="M439,180.6v3.6c0,1.1-0.1,1.9-0.3,2.6c-0.2,0.7-0.5,1.2-0.7,1.6l-18.2,37.4c-0.4,0.8-0.9,1.4-1.6,2
			c-0.7,0.5-1.6,0.8-2.8,0.8h-5.9l18.6-36.7c0.8-1.5,1.6-2.8,2.6-3.9h-23c-0.5,0-1-0.2-1.3-0.6c-0.4-0.4-0.6-0.8-0.6-1.3v-5.5H439z"
			/>
		<path class="st2" d="M465.3,192.2c0,1.8-0.3,3.5-0.9,4.9c-0.6,1.5-1.4,2.7-2.4,3.7s-2.2,1.8-3.6,2.4c-1.3,0.6-2.8,0.8-4.2,0.8
			c-1.6,0-3.1-0.3-4.4-0.8c-1.3-0.6-2.5-1.3-3.5-2.4s-1.8-2.3-2.3-3.7c-0.6-1.5-0.8-3.1-0.8-4.9c0-1.9,0.3-3.5,0.8-5
			s1.3-2.8,2.3-3.8c1-1,2.2-1.8,3.5-2.4s2.8-0.8,4.4-0.8c1.6,0,3.1,0.3,4.4,0.8s2.5,1.4,3.5,2.4c1,1,1.8,2.3,2.3,3.8
			C465.1,188.7,465.3,190.4,465.3,192.2z M481.3,181.9c0.3-0.3,0.6-0.6,1-0.9c0.4-0.3,1-0.4,1.7-0.4h5.9l-35.6,46.8
			c-0.3,0.4-0.6,0.6-1,0.9c-0.4,0.2-0.9,0.3-1.5,0.3h-6.1L481.3,181.9z M459,192.2c0-1.3-0.1-2.4-0.4-3.2c-0.2-0.9-0.6-1.6-1-2.1
			c-0.4-0.5-0.9-0.9-1.5-1.1c-0.6-0.2-1.2-0.3-1.9-0.3c-0.7,0-1.3,0.1-1.9,0.3c-0.6,0.2-1.1,0.6-1.5,1.1s-0.7,1.2-1,2.1
			s-0.3,1.9-0.3,3.2c0,1.2,0.1,2.3,0.3,3.1s0.6,1.5,1,2c0.4,0.5,0.9,0.9,1.5,1.1c0.6,0.2,1.2,0.3,1.9,0.3c0.7,0,1.3-0.1,1.9-0.3
			s1.1-0.6,1.5-1.1c0.4-0.5,0.8-1.2,1-2C458.9,194.5,459,193.5,459,192.2z M492.4,217.3c0,1.8-0.3,3.5-0.9,4.9
			c-0.6,1.5-1.4,2.7-2.4,3.7s-2.2,1.8-3.6,2.4c-1.3,0.6-2.8,0.8-4.2,0.8c-1.6,0-3.1-0.3-4.4-0.8c-1.3-0.6-2.5-1.4-3.5-2.4
			s-1.8-2.3-2.3-3.7c-0.6-1.5-0.8-3.1-0.8-4.9c0-1.9,0.3-3.5,0.8-5c0.6-1.5,1.3-2.8,2.3-3.8c1-1,2.2-1.8,3.5-2.4s2.8-0.8,4.4-0.8
			s3.1,0.3,4.4,0.8c1.4,0.6,2.5,1.4,3.5,2.4c1,1,1.8,2.3,2.3,3.8C492.2,213.8,492.4,215.5,492.4,217.3z M486.1,217.3
			c0-1.3-0.1-2.4-0.4-3.2s-0.6-1.6-1-2.1s-0.9-0.9-1.5-1.1c-0.6-0.2-1.2-0.3-1.9-0.3c-0.7,0-1.3,0.1-1.9,0.3
			c-0.6,0.2-1.1,0.6-1.5,1.1c-0.4,0.5-0.7,1.2-1,2.1s-0.4,1.9-0.4,3.2c0,1.2,0.1,2.3,0.4,3.1c0.2,0.8,0.6,1.5,1,2
			c0.4,0.5,0.9,0.9,1.5,1.1s1.2,0.3,1.9,0.3c0.7,0,1.3-0.1,1.9-0.3c0.6-0.2,1.1-0.6,1.5-1.1c0.4-0.5,0.8-1.2,1-2
			C486,219.6,486.1,218.6,486.1,217.3z"/>
	</g>
	<g>
		<path class="st4" d="M161.8,145v3.3h-6.5v18.4h-4v-18.4h-6.6V145H161.8z"/>
		<path class="st4" d="M162.2,145h3.3c0.4,0,0.6,0.1,0.9,0.3c0.2,0.2,0.4,0.4,0.5,0.7l5.1,13.2c0.2,0.4,0.3,0.9,0.5,1.4
			c0.2,0.5,0.3,1.1,0.4,1.6c0.2-1.1,0.5-2.2,0.9-3l5.1-13.2c0.1-0.2,0.2-0.4,0.5-0.6c0.2-0.2,0.5-0.3,0.9-0.3h3.3l-8.8,21.7H171
			L162.2,145z"/>
		<path class="st4" d="M118.7,188.2c2.2,0,4.2,0.3,6.1,1c1.8,0.7,3.4,1.6,4.7,2.8c1.3,1.2,2.3,2.6,3.1,4.3s1.1,3.6,1.1,5.6
			c0,1.8-0.3,3.4-0.8,4.9c-0.5,1.5-1.2,2.9-2.1,4.3c-0.9,1.4-1.9,2.7-3.1,4c-1.2,1.3-2.4,2.6-3.7,3.9L113.2,230
			c1.1-0.3,2.1-0.5,3.1-0.7c1-0.2,2-0.2,2.9-0.2h12.3c0.9,0,1.6,0.2,2.1,0.7c0.5,0.5,0.8,1.2,0.8,2v4.9h-32.9V234
			c0-0.6,0.1-1.1,0.3-1.7c0.2-0.6,0.6-1.1,1.1-1.7l14.6-14.6c1.2-1.2,2.3-2.4,3.3-3.6c1-1.1,1.8-2.2,2.4-3.4
			c0.7-1.1,1.1-2.2,1.5-3.4c0.3-1.1,0.5-2.3,0.5-3.6c0-1.1-0.2-2.2-0.5-3c-0.3-0.9-0.8-1.6-1.4-2.2c-0.6-0.6-1.4-1-2.2-1.3
			c-0.9-0.3-1.8-0.4-2.9-0.4c-2,0-3.6,0.5-4.9,1.5c-1.3,1-2.2,2.3-2.7,4c-0.2,0.8-0.6,1.4-1.1,1.8c-0.5,0.4-1.1,0.5-1.9,0.5
			c-0.3,0-0.7,0-1.1-0.1l-4.3-0.8c0.3-2.3,1-4.3,1.9-6.1c1-1.7,2.1-3.2,3.6-4.3c1.4-1.2,3.1-2,4.9-2.6
			C114.6,188.5,116.6,188.2,118.7,188.2z"/>
		<path class="st4" d="M158,188.2c2.2,0,4.2,0.3,6,0.9s3.3,1.5,4.6,2.6s2.2,2.4,2.9,3.9c0.7,1.5,1,3.1,1,4.9c0,1.5-0.2,2.9-0.5,4
			c-0.3,1.2-0.8,2.2-1.5,3c-0.7,0.9-1.4,1.6-2.4,2.2c-0.9,0.6-2,1.1-3.2,1.5c2.9,0.9,5,2.3,6.4,4.1c1.4,1.9,2.1,4.2,2.1,7
			c0,2.4-0.4,4.5-1.3,6.3c-0.9,1.8-2.1,3.4-3.6,4.6c-1.5,1.2-3.2,2.2-5.2,2.8c-2,0.6-4.1,1-6.3,1c-2.4,0-4.5-0.3-6.3-0.8
			c-1.8-0.6-3.4-1.4-4.7-2.5c-1.3-1.1-2.5-2.4-3.4-4s-1.7-3.4-2.4-5.4l3.6-1.5c0.6-0.3,1.2-0.4,1.9-0.4c0.6,0,1.1,0.1,1.5,0.4
			c0.5,0.2,0.8,0.6,1,1.1c0.4,0.8,0.8,1.5,1.3,2.3c0.5,0.8,1,1.4,1.7,2c0.7,0.6,1.4,1.1,2.3,1.4s2,0.5,3.2,0.5
			c1.4,0,2.6-0.2,3.7-0.7c1-0.5,1.9-1,2.6-1.8s1.2-1.5,1.6-2.4c0.3-0.9,0.5-1.8,0.5-2.7c0-1.1-0.1-2.2-0.4-3.1
			c-0.2-0.9-0.8-1.7-1.5-2.4c-0.8-0.7-1.9-1.2-3.3-1.6c-1.4-0.4-3.4-0.6-5.8-0.6v-5.9c2,0,3.7-0.2,5-0.5c1.3-0.4,2.4-0.8,3.2-1.5
			c0.8-0.6,1.3-1.4,1.6-2.3c0.3-0.9,0.5-1.9,0.5-2.9c0-2.3-0.6-4-1.9-5.2c-1.2-1.2-2.9-1.7-5.1-1.7c-1.9,0-3.6,0.5-4.8,1.5
			c-1.3,1-2.2,2.3-2.7,4c-0.3,0.8-0.6,1.4-1.1,1.8c-0.5,0.4-1.1,0.5-1.8,0.5c-0.4,0-0.7,0-1.1-0.1l-4.3-0.8c0.3-2.3,1-4.3,1.9-6.1
			c1-1.7,2.1-3.2,3.6-4.3c1.4-1.2,3.1-2,4.9-2.6C153.9,188.5,155.8,188.2,158,188.2z"/>
		<path class="st4" d="M199.9,200.3c0,1.8-0.3,3.5-0.9,4.9c-0.6,1.5-1.4,2.7-2.4,3.7c-1,1-2.2,1.8-3.6,2.4c-1.3,0.6-2.8,0.8-4.2,0.8
			c-1.6,0-3.1-0.3-4.4-0.8c-1.3-0.6-2.5-1.3-3.5-2.4s-1.8-2.3-2.3-3.7c-0.6-1.5-0.8-3.1-0.8-4.9c0-1.9,0.3-3.5,0.8-5
			c0.6-1.5,1.3-2.8,2.3-3.8c1-1,2.2-1.8,3.5-2.4c1.3-0.6,2.8-0.8,4.4-0.8s3.1,0.3,4.4,0.8c1.4,0.6,2.5,1.4,3.5,2.4
			c1,1,1.8,2.3,2.3,3.8C199.6,196.8,199.9,198.5,199.9,200.3z M215.9,190c0.3-0.3,0.6-0.6,1-0.9c0.4-0.3,1-0.4,1.7-0.4h5.9
			l-35.6,46.8c-0.3,0.4-0.6,0.6-1,0.9c-0.4,0.2-0.9,0.3-1.5,0.3h-6.1L215.9,190z M193.6,200.3c0-1.3-0.1-2.4-0.4-3.2
			c-0.2-0.9-0.6-1.6-1-2.1c-0.4-0.5-0.9-0.9-1.5-1.1c-0.6-0.2-1.2-0.3-1.9-0.3s-1.3,0.1-1.9,0.3c-0.6,0.2-1.1,0.6-1.5,1.1
			c-0.4,0.5-0.7,1.2-1,2.1s-0.3,1.9-0.3,3.2c0,1.2,0.1,2.3,0.3,3.1s0.6,1.5,1,2c0.4,0.5,0.9,0.9,1.5,1.1c0.6,0.2,1.2,0.3,1.9,0.3
			s1.3-0.1,1.9-0.3c0.6-0.2,1.1-0.6,1.5-1.1c0.4-0.5,0.8-1.2,1-2C193.5,202.6,193.6,201.6,193.6,200.3z M227,225.4
			c0,1.8-0.3,3.5-0.9,4.9c-0.6,1.5-1.4,2.7-2.4,3.7c-1,1-2.2,1.8-3.6,2.4c-1.3,0.6-2.8,0.8-4.2,0.8c-1.6,0-3.1-0.3-4.4-0.8
			c-1.3-0.6-2.5-1.4-3.5-2.4c-1-1-1.8-2.3-2.3-3.7c-0.6-1.5-0.8-3.1-0.8-4.9c0-1.9,0.3-3.5,0.8-5c0.6-1.5,1.3-2.8,2.3-3.8
			c1-1,2.2-1.8,3.5-2.4c1.3-0.6,2.8-0.8,4.4-0.8s3.1,0.3,4.4,0.8c1.4,0.6,2.5,1.4,3.5,2.4c1,1,1.8,2.3,2.3,3.8
			C226.7,221.9,227,223.6,227,225.4z M220.7,225.4c0-1.3-0.1-2.4-0.4-3.2c-0.3-0.9-0.6-1.6-1-2.1c-0.4-0.5-0.9-0.9-1.5-1.1
			c-0.6-0.2-1.2-0.3-1.9-0.3s-1.3,0.1-1.9,0.3c-0.6,0.2-1.1,0.6-1.5,1.1c-0.4,0.5-0.7,1.2-1,2.1c-0.2,0.9-0.4,1.9-0.4,3.2
			c0,1.2,0.1,2.3,0.4,3.1c0.2,0.8,0.6,1.5,1,2c0.4,0.5,0.9,0.9,1.5,1.1c0.6,0.2,1.2,0.3,1.9,0.3s1.3-0.1,1.9-0.3
			c0.6-0.2,1.1-0.6,1.5-1.1c0.4-0.5,0.8-1.2,1-2C220.6,227.7,220.7,226.7,220.7,225.4z"/>
	</g>
	<g>
		<path d="M164.5,82.9l10.8,10.8h-8.7v32.5h-4.3V93.7h-8.7L164.5,82.9z"/>
	</g>
	<g>
		<g>
			<path class="st2" d="M427.5,66.9l10.8,10.8h-8.7v32.5h-4.3V77.7h-8.7L427.5,66.9z"/>
		</g>
	</g>
	<g>
		<g>
			<path class="st3" d="M697.5,47.9l10.8,10.8h-8.7v32.5h-4.3V58.7h-8.7L697.5,47.9z"/>
		</g>
	</g>
</g>
</svg>
